<?xml version="1.0" encoding="UTF-8" standalone="no"?>
<!-- Created with Inkscape (http://www.inkscape.org/) -->

<svg
   width="400"
   height="400"
   viewBox="0 0 400 400"
   version="1.1"
   id="svg1"
   xml:space="preserve"
   xmlns="http://www.w3.org/2000/svg"
   xmlns:svg="http://www.w3.org/2000/svg"><defs
     id="defs1" /><g
     id="layer1"
     transform="translate(-1230)"><path
       style="display:inline;fill:#000000;fill-opacity:1;stroke:#000000;stroke-width:6;stroke-dasharray:none;stroke-opacity:1"
       d="M 1335.6285,199.99129 V 74.206705 l 49.078,-0.0016 69.078,-0.0015 -1.087,89.566295 h 71.6445 l -0.4971,80.5116 -0.4972,80.51159 -93.8596,0.4914 -93.8596,0.4914 z m 113.2654,61.40843 h -48.9426 -49.0692 c 0.036,4.26215 -0.033,7.07345 0.444,12.89497 h 49.2138 48.4802 z m -54.183,-35.69783 c -14.8463,0 -28.4085,-0.36152 -42.6228,0 v 11.94523 h 42.4962 z m 114.336,0 h -89.4149 c -0.017,4.28619 0.5224,8.73118 0.4856,11.94523 29.644,0.3432 59.2876,0.34194 88.9293,0 z m 0,-36.2064 -157.212,-0.99506 v 13.38146 h 157.1532 z M 1468.0765,85.402104 c 19.1402,21.390416 31.2003,35.392646 54.4955,65.028596 h -54.4955 z"
       id="path5" /></g></svg>
