<?xml version="1.0" encoding="UTF-8" standalone="no"?>
<!-- Created with Inkscape (http://www.inkscape.org/) -->

<svg
   width="275.74023"
   height="293.06155"
   viewBox="0 0 275.74023 293.06155"
   version="1.1"
   id="svg1"
   xml:space="preserve"
   inkscape:version="1.4.2 (ebf0e940d0, 2025-05-08)"
   sodipodi:docname="iconos-menu-lineArt.svg"
   inkscape:export-filename="iconosss.svg"
   inkscape:export-xdpi="96"
   inkscape:export-ydpi="96"
   xmlns:inkscape="http://www.inkscape.org/namespaces/inkscape"
   xmlns:sodipodi="http://sodipodi.sourceforge.net/DTD/sodipodi-0.dtd"
   xmlns="http://www.w3.org/2000/svg"
   xmlns:svg="http://www.w3.org/2000/svg"><sodipodi:namedview
     id="namedview1"
     pagecolor="#ffffff"
     bordercolor="#000000"
     borderopacity="0.25"
     inkscape:showpageshadow="2"
     inkscape:pageopacity="0.0"
     inkscape:pagecheckerboard="0"
     inkscape:deskcolor="#d1d1d1"
     inkscape:document-units="px"
     inkscape:zoom="0.25"
     inkscape:cx="969.99999"
     inkscape:cy="324"
     inkscape:window-width="1920"
     inkscape:window-height="1015"
     inkscape:window-x="0"
     inkscape:window-y="0"
     inkscape:window-maximized="1"
     inkscape:current-layer="layer1"
     showguides="true"><sodipodi:guide
       position="-0.19992909,433.27039"
       orientation="0,1"
       id="guide1"
       inkscape:locked="false"
       inkscape:label=""
       inkscape:color="rgb(0,134,229)" /><sodipodi:guide
       position="-0.19992909,-140.56017"
       orientation="0,-1"
       id="guide2"
       inkscape:locked="false" /><inkscape:page
       x="0"
       y="0"
       width="275.74023"
       height="293.06155"
       id="page1"
       margin="0"
       bleed="0" /></sodipodi:namedview><defs
     id="defs1" /><g
     inkscape:label="Capa 1"
     inkscape:groupmode="layer"
     id="layer1"
     transform="translate(-1307.1152,-53.293557)"><path
       style="fill:#000000;stroke-width:0.901557"
       d="m 1326.7519,346.06767 c -3.55,-0.5929 -7.84,-2.63639 -10.9619,-5.22163 -3.6424,-3.01617 -6.8375,-8.3425 -7.8366,-13.06381 -0.528,-2.49498 -0.5524,-5.95304 -0.735,-104.22626 -0.1763,-94.82383 -0.1565,-101.70943 0.295,-102.59594 0.2661,-0.52266 2.0066,-2.50652 3.8677,-4.40858 1.8612,-1.90206 6.0917,-6.32531 9.4012,-9.82945 3.3094,-3.50414 10.6859,-11.288668 16.392,-17.298951 8.438,-8.887603 24.4066,-25.907821 31.701,-33.788602 0.7926,-0.856229 1.8583,-1.733204 2.3684,-1.948834 0.7734,-0.32701 12.6013,-0.392055 71.2915,-0.392055 h 70.3642 l 2.6294,0.603141 c 4.7069,1.079681 8.9337,3.54724 12.0774,7.050604 2.3149,2.579733 3.8654,5.403424 5.2921,9.637706 0.5109,1.516436 0.5374,3.833729 0.6114,53.531451 0.042,28.57052 0.1776,51.9464 0.3,51.9464 0.1223,0 1.0861,-1.78318 2.1415,-3.96262 1.0555,-2.17944 3.1422,-6.4915 4.6373,-9.58234 2.8733,-5.94022 4.1365,-7.89485 6.2447,-9.663 2.8879,-2.42205 7.4819,-3.84428 11.0954,-3.43485 2.4734,0.28027 4.694,1.19194 11.3075,4.64218 5.0628,2.64126 6.0402,3.26413 7.3524,4.68526 2.8019,3.03451 3.963,6.08352 3.963,10.40704 0,3.09997 -0.3738,4.36174 -2.9183,9.84851 l -2.0308,4.37939 0.8174,0.57143 c 1.2423,0.8684 3.4427,3.18138 4.2638,4.48223 1.3469,2.13347 2.1736,5.17712 2.1719,7.99504 -9e-4,1.3986 -0.1443,3.06165 -0.3187,3.69567 -0.3026,1.10041 -2.8953,6.69227 -10.6228,22.91117 -1.9257,4.04188 -4.7548,10.00743 -6.2868,13.25679 -4.8566,10.30069 -5.2477,11.0017 -6.5459,11.73317 -3.7681,2.12325 -8.3672,-1.53506 -7.044,-5.60314 0.1944,-0.59768 3.6873,-8.02489 7.7621,-16.50491 14.936,-31.08297 13.924,-28.72951 13.2798,-30.8835 -0.3868,-1.29304 -1.3281,-2.83482 -1.7308,-2.83482 -0.1265,0 -0.6235,0.87537 -1.1043,1.94528 -0.8764,1.94999 -2.3438,5.0274 -14.395,30.188 -5.6336,11.76193 -10.6839,22.16281 -19.8706,40.9231 l -2.258,4.61105 -0.1558,28.3868 c -0.1758,32.04913 0.022,29.3781 -2.5709,34.727 -3.2234,6.64958 -9.2091,11.39624 -16.1866,12.83598 -2.639,0.54453 -4.8107,0.55663 -94.6339,0.52741 -50.563,-0.0164 -92.6027,-0.14178 -93.4214,-0.27851 z m 149.9885,-9.75403 c 0.045,-0.009 -0.3637,-0.462 -0.9081,-1.0063 -0.5442,-0.54431 -1.121,-1.41969 -1.2817,-1.94529 -0.1753,-0.57318 -0.3539,-7.76074 -0.4463,-17.9589 l -0.1541,-17.00326 3.9955,-8.06935 c 4.0481,-8.17565 14.9255,-30.43201 18.0991,-37.03252 0.9526,-1.98132 5.977,-12.2265 11.1653,-22.76708 5.1881,-10.54058 11.0384,-22.43477 13.0005,-26.43153 l 3.5674,-7.26683 V 136.1726 c 0,-43.172035 -0.092,-61.100255 -0.3186,-62.187163 -0.9861,-4.728945 -4.1084,-8.319359 -8.7827,-10.099604 l -1.706,-0.649691 -67.5087,-0.07561 -67.5086,-0.07561 v 20.393071 c 0,12.512572 -0.1164,21.116947 -0.2978,22.266317 -1.3651,8.65243 -7.5251,16.66078 -15.1997,19.76073 -4.3541,1.75868 -3.318,1.68534 -25.2098,1.7846 l -20.1038,0.0912 0.075,98.91043 0.075,98.91041 0.6498,1.70613 c 0.3573,0.93836 0.9599,2.23522 1.3389,2.88191 0.9707,1.65566 3.8131,4.28049 5.6356,5.20399 3.2726,1.65835 -1.1983,1.5756 78.4007,1.45123 40.3395,-0.063 73.3813,-0.12208 73.4262,-0.13125 z m 37.0262,-0.32516 c 4.331,-1.1662 7.735,-4.63673 9.3081,-9.48999 0.4675,-1.44259 0.5163,-3.10678 0.5428,-18.51626 0.016,-9.31216 -0.055,-16.93121 -0.1585,-16.93121 -0.1031,0 -0.3552,0.42148 -0.5601,0.93662 -0.205,0.51514 -2.9519,6.25374 -6.1045,12.75244 -3.7475,7.72519 -6.0002,12.04473 -6.5069,12.47702 -0.9726,0.82973 -22.0078,14.87308 -25.7734,17.20664 -1.5347,0.95103 -2.7952,1.81367 -2.8012,1.91697 -0.02,0.33992 30.7385,0.002 32.0537,-0.35223 z m -23.1906,-17.0218 c 3.4408,-2.24044 6.5582,-4.30975 6.9273,-4.59847 l 0.6713,-0.52494 -6.9371,-3.47087 c -3.8154,-1.90899 -7.0355,-3.47096 -7.1555,-3.47106 -0.1202,-1e-4 -0.1822,3.6311 -0.1377,8.06934 0.044,4.43824 0.1471,8.06952 0.2283,8.06952 0.081,0 2.9626,-1.83308 6.4034,-4.07352 z m 16.4875,-16.46007 c 1.0001,-2.1002 5.702,-11.79422 10.4489,-21.54227 4.7468,-9.74806 9.9299,-20.4448 11.518,-23.77053 1.5881,-3.32574 4.1816,-8.64286 5.7635,-11.81583 1.5818,-3.17297 5.5747,-11.41037 8.8731,-18.30533 3.2985,-6.89497 8.9208,-18.56598 12.4941,-25.93559 3.5733,-7.36962 6.4055,-13.48042 6.2937,-13.57958 -0.2411,-0.21374 -4.275,-2.26304 -12.6658,-6.43446 l -6.1223,-3.04363 -2.4906,4.9717 c -1.3698,2.73443 -6.0891,12.36379 -10.4872,21.39857 -7.7016,15.8204 -18.1045,37.08946 -27.1125,55.43194 -2.3621,4.80976 -4.2947,8.79061 -4.2947,8.84632 0,0.0557 -1.9859,4.16099 -4.4132,9.12281 -7.4098,15.14737 -9.2331,18.96044 -9.1078,19.04765 0.3103,0.21613 19.1619,9.40821 19.3127,9.41687 0.094,0.005 0.9901,-1.70846 1.9901,-3.80864 z m 62.065,-128.03638 c 2.0981,-4.434 2.2888,-5.47682 1.371,-7.4973 -0.291,-0.64058 -0.9388,-1.50942 -1.4395,-1.93076 -1.4974,-1.26002 -11.439,-5.98257 -12.5941,-5.98257 -1.1372,0 -2.8559,0.64442 -3.6802,1.3799 -0.5633,0.50252 -4.5115,8.21704 -4.5115,8.81507 0,0.39553 18.5126,9.71456 18.7649,9.44599 0.097,-0.10344 1.0373,-2.00709 2.0894,-4.23033 z m -213.3344,-57.20427 c 3.7519,-0.71153 7.3673,-3.08844 9.4625,-6.22098 2.6674,-3.98806 2.61,-3.49145 2.61,-22.622494 0,-9.176592 -0.098,-16.684713 -0.2172,-16.684713 -0.1196,0 -6.1175,6.251425 -13.3288,13.892054 -7.2114,7.64063 -14.7975,15.652353 -16.8581,17.803843 -2.0606,2.15148 -5.8602,6.21008 -8.4436,9.01912 l -4.6972,5.10733 h 14.9607 c 8.9709,0 15.5816,-0.11777 16.5117,-0.29416 z"
       id="path3"
       sodipodi:nodetypes="ssssssssssscssscssssssssscsssssssssssssscssssscssscsssscssscccscsscccscssccsssssssssssscsscsssssssssscsssssscsssssssssssssssscss" /></g></svg>
