<?xml version="1.0" encoding="UTF-8" standalone="no"?>
<!-- Created with Inkscape (http://www.inkscape.org/) -->

<svg
   width="400"
   height="400"
   viewBox="0 0 400 400"
   version="1.1"
   id="svg1"
   xml:space="preserve"
   xmlns="http://www.w3.org/2000/svg"
   xmlns:svg="http://www.w3.org/2000/svg"><defs
     id="defs1" /><g
     id="layer1"
     transform="translate(-1640)"><path
       style="display:inline;fill:#000000;fill-opacity:1;stroke:#000000;stroke-width:6;stroke-dasharray:none;stroke-opacity:1"
       d="m 1705.4438,326.42188 c 0,-18.19662 0,-144.15093 0,-160.72268 45.0841,31.68387 95.6148,68.37029 134.8034,93.37439 44.8209,-27.88691 93.8454,-61.09031 135.6779,-93.37439 -1.0865,38.67127 0,148.23141 0,160.72268 -33.8195,0 -256.9498,0 -270.4813,0 z m 46.5873,-144.49127 c 0,-36.85626 -0.01,-71.83114 -0.029,-107.700202 h 175.3151 V 181.93061 c -14.0616,9.80439 -79.3758,58.14101 -87.2633,63.83906 -61.6545,-44.14995 -77.8749,-56.24573 -88.0228,-63.83906 z m 112.3898,-28.61781 c 16.6459,-41.84207 16.6692,-41.9244 11.9949,-42.5417 -2.5758,-0.34018 -5.7299,-0.21683 -7.0093,0.27412 -1.2794,0.49094 -7.8528,15.10876 -14.6074,32.48406 -6.7548,17.3753 -13.0964,31.34369 -14.0927,31.04089 -0.9962,-0.3028 -7.9296,-15.07105 -15.4075,-32.81836 -13.266,-31.48422 -13.7426,-32.28231 -19.6267,-32.86494 -3.8347,-0.37971 -6.0305,0.25902 -6.0305,1.75421 0,2.72722 18.1318,46.7869 28.7871,69.95212 7.0666,15.36283 7.4728,15.82841 13.3015,15.2448 5.9582,-0.59659 6.1625,-0.97927 22.6906,-42.5252 z"
       id="path6" /></g></svg>
