<?xml version="1.0" encoding="UTF-8" standalone="no"?>
<!-- Created with Inkscape (http://www.inkscape.org/) -->

<svg
   width="299.49084"
   height="212.1039"
   viewBox="0 0 299.49084 212.1039"
   version="1.1"
   id="svg1"
   xml:space="preserve"
   inkscape:version="1.4.2 (ebf0e940d0, 2025-05-08)"
   sodipodi:docname="iconos-menu-lineArt.svg"
   inkscape:export-filename="iconosss.svg"
   inkscape:export-xdpi="96"
   inkscape:export-ydpi="96"
   xmlns:inkscape="http://www.inkscape.org/namespaces/inkscape"
   xmlns:sodipodi="http://sodipodi.sourceforge.net/DTD/sodipodi-0.dtd"
   xmlns="http://www.w3.org/2000/svg"
   xmlns:svg="http://www.w3.org/2000/svg"><sodipodi:namedview
     id="namedview1"
     pagecolor="#ffffff"
     bordercolor="#000000"
     borderopacity="0.25"
     inkscape:showpageshadow="2"
     inkscape:pageopacity="0.0"
     inkscape:pagecheckerboard="0"
     inkscape:deskcolor="#d1d1d1"
     inkscape:document-units="px"
     inkscape:zoom="0.25"
     inkscape:cx="969.99999"
     inkscape:cy="324"
     inkscape:window-width="1920"
     inkscape:window-height="1015"
     inkscape:window-x="0"
     inkscape:window-y="0"
     inkscape:window-maximized="1"
     inkscape:current-layer="layer1"
     showguides="true"><sodipodi:guide
       position="-393.09361,396.90688"
       orientation="0,1"
       id="guide1"
       inkscape:locked="false"
       inkscape:label=""
       inkscape:color="rgb(0,134,229)" /><sodipodi:guide
       position="-393.09361,-176.92368"
       orientation="0,-1"
       id="guide2"
       inkscape:locked="false" /><inkscape:page
       x="0"
       y="0"
       width="299.49084"
       height="212.1039"
       id="page1"
       margin="0"
       bleed="0" /></sodipodi:namedview><defs
     id="defs1" /><g
     inkscape:label="Capa 1"
     inkscape:groupmode="layer"
     id="layer1"
     transform="translate(-1700.0089,-97.887702)"><path
       style="fill:#000000;stroke-width:0.861867"
       d="m 1728.5478,309.42352 c -5.2806,-0.96349 -10.0044,-3.00365 -14.2233,-6.1429 -4.8164,-3.58387 -7.8734,-7.25984 -10.5333,-12.66593 -1.9506,-3.96445 -2.9983,-7.58894 -3.516,-12.16329 -0.2398,-2.1192 -0.3078,-23.32442 -0.2433,-75.94047 0.085,-69.29858 0.117,-73.14292 0.6312,-75.81365 1.8272,-9.48769 6.3679,-16.85743 13.8178,-22.42627 3.2638,-2.43981 9.2188,-4.928637 14.1336,-5.907011 2.4504,-0.487796 9.3721,-0.51361 121.3203,-0.45246 117.5534,0.06421 118.7504,0.0707 121.6376,0.659076 14.5177,2.958525 24.1164,12.967445 27.1801,28.341825 0.5609,2.81488 0.5791,4.93217 0.6623,77.07923 l 0.085,74.18484 -0.6598,3.03067 c -3.2656,14.99734 -14.1593,25.84267 -28.4885,28.36179 -2.2068,0.38795 -17.0939,0.4396 -120.68,0.41872 -113.0385,-0.0228 -118.2911,-0.0472 -121.1242,-0.56417 z m 238.039,-9.898 c 2.2089,-0.11491 7.615,-1.50287 7.615,-1.9551 0,-0.31116 -21.0331,-21.6526 -65.771,-66.73526 l -11.1321,-11.21775 -5.8965,4.55739 c -10.9918,8.49562 -12.5744,9.6234 -16.4096,11.69378 -6.8747,3.71115 -14.3151,5.68738 -23.2867,6.18516 -8.5992,0.4771 -19.3997,-2.06612 -27.8506,-6.55798 -2.909,-1.54629 -4.1442,-2.4303 -14.6385,-10.47765 -2.6551,-2.03602 -5.314,-4.06547 -5.9085,-4.5099 l -1.081,-0.80806 -10.6303,10.72898 c -5.8466,5.90095 -21.4408,21.59019 -34.6537,34.86498 -23.5383,23.64862 -31.5706,31.81267 -31.7354,32.25623 -0.1326,0.35703 5.0253,1.82478 7.2349,2.05876 2.0589,0.21802 229.9099,0.13669 234.144,-0.0836 z m -227.6631,-30.75168 c 45.5627,-45.72719 54.6285,-54.88693 54.6285,-55.19503 0,-0.42536 -9.5049,-7.6554 -53.373,-40.59935 -15.9174,-11.95361 -29.0187,-21.85995 -29.1139,-22.01406 -0.095,-0.15412 -0.2986,-0.28021 -0.4518,-0.28021 -0.3871,0 -0.3642,123.02912 0.023,126.71039 0.3344,3.1745 1.67,7.4667 3.0065,9.66179 1.0635,1.74671 2.6957,3.97933 2.9186,3.99238 0.086,0.005 10.1488,-10.01912 22.3614,-22.27591 z m 244.6706,21.61873 c 1.1065,-1.20627 2.7522,-4.03402 3.6444,-6.26192 1.9223,-4.80065 1.8044,-0.17264 1.7809,-69.90266 -0.012,-34.84593 -0.072,-63.40643 -0.1328,-63.46777 -0.061,-0.0614 -0.5587,0.2748 -1.1052,0.74701 -0.5464,0.47221 -9.6558,7.37108 -20.2431,15.33081 -10.5872,7.95974 -21.9148,16.4833 -25.1725,18.94122 -3.2576,2.45793 -10.8538,8.18318 -16.8804,12.72277 -6.0266,4.53959 -12.93,9.78203 -15.3409,11.64988 l -4.3833,3.39607 14.9048,14.98966 c 29.4702,29.63795 46.4527,46.81332 53.9863,54.59933 4.2158,4.35707 7.8148,7.92194 7.9978,7.92194 0.183,0 0.6077,-0.29985 0.944,-0.66634 z m -126.293,-59.30998 c 4.2915,-0.75899 7.5644,-1.83522 11.6203,-3.82113 4.0889,-2.00213 3.2533,-1.4019 27.8866,-20.03067 4.8596,-3.67499 18.564,-13.99547 30.4543,-22.93439 11.8904,-8.93893 23.5511,-17.71519 25.9129,-19.50282 23.2027,-17.56209 27.3763,-20.81136 28.7954,-22.41823 2.8371,-3.21242 4.568,-6.60418 5.4319,-10.64357 0.8528,-3.98801 0.3917,-7.00722 -1.7189,-11.2536 -0.9953,-2.00236 -1.7977,-3.06866 -3.9233,-5.21309 -3.7728,-3.80616 -7.6488,-5.79956 -12.8441,-6.60564 -1.4796,-0.22958 -36.1302,-0.32329 -119.5358,-0.32329 -105.8869,0 -117.6768,0.0461 -119.7347,0.46793 -5.0514,1.03552 -9.0976,3.25763 -12.5924,6.91557 -2.4711,2.58653 -4.2337,5.75732 -5.1146,9.20073 -0.9912,3.8744 0.022,9.47002 2.4603,13.58494 2.2388,3.77848 3.6884,4.99186 25.641,21.46332 11.5961,8.70073 23.6159,17.73815 26.7106,20.08314 3.0948,2.345 11.0907,8.38455 17.7688,13.42123 31.5742,23.81341 38.6098,29.13095 40.0385,30.261 1.9609,1.55111 7.1604,4.20791 10.6027,5.41776 7.1757,2.522 14.9596,3.20081 22.1405,1.93081 z m -61.6792,-60.03729 c -2.7432,-1.86705 -3.3091,-5.21937 -1.2866,-7.62296 1.6151,-1.91937 -2.7461,-1.77971 55.5741,-1.77971 h 53.1293 l 0.9791,0.66634 c 1.7505,1.1914 2.2181,2.106 2.2181,4.33889 0,1.73486 -0.1102,2.14471 -0.8297,3.08814 -1.6379,2.1474 3.2026,1.97563 -55.6759,1.97563 h -53.1293 z"
       id="path2" /></g></svg>
