<?xml version="1.0" encoding="UTF-8" standalone="no"?>
<!-- Created with Inkscape (http://www.inkscape.org/) -->

<svg
   width="400"
   height="400"
   viewBox="0 0 400 400"
   version="1.1"
   id="svg1"
   xml:space="preserve"
   xmlns="http://www.w3.org/2000/svg"
   xmlns:svg="http://www.w3.org/2000/svg"><defs
     id="defs1" /><g
     id="layer1"><path
       style="fill:#000000;stroke-width:1.95142"
       d="m 320.16217,327.43014 c -15.84954,-6.77495 -16.83407,-27.89557 -1.63648,-35.10724 8.62863,-4.09467 12.81273,-3.80859 20.54883,1.40483 19.92495,13.42753 3.23503,43.16953 -18.91235,33.70241 z m -146.41594,-3.82206 c -37.73964,-9.15431 -68.79081,-43.19099 -74.871206,-82.07013 -2.03422,-13.0072 -0.838389,-38.92246 1.738226,-37.66984 0.675,0.32823 22.51511,11.34263 48.53362,24.47667 26.01849,13.13385 48.59284,23.87993 50.16522,23.87993 1.57238,0 23.51331,-10.26447 48.75766,-22.80996 25.2443,-12.54569 46.39979,-22.30924 47.01213,-21.69688 2.51897,2.51909 3.21344,28.617 1.03993,39.08091 -7.48276,36.02441 -41.49839,69.88703 -77.77995,77.43005 -13.22271,2.74897 -31.76757,2.49079 -44.59563,-0.62075 z M 321.37537,238.77493 V 201.9081 l -13.17208,-3.17184 c -7.24467,-1.74477 -15.36744,-3.31956 -18.05064,-3.50007 -2.89013,-0.19514 -22.39238,8.72402 -47.84845,21.8807 l -42.96992,22.20834 -81.92105,-41.57151 C 72.356656,174.88931 34.711188,155.45238 33.756631,154.56058 31.966456,152.88782 194.40401,70.742555 199.50188,70.742555 c 3.94185,0 166.75617,81.585795 166.75617,83.561015 0,0.8758 -8.28247,5.58731 -18.40547,10.47016 l -18.40549,8.87779 -20.13508,-4.5349 c -11.07429,-2.49431 -40.32215,-9.31433 -64.99524,-15.15552 l -44.86016,-10.62041 -7.6868,3.92138 c -5.69509,2.90547 -6.965,4.32025 -4.90107,5.46027 2.88195,1.59197 71.24735,18.5705 120.8467,30.01227 l 28.29558,6.5275 0.52519,43.18983 0.52521,43.18982 h -7.84304 -7.84301 z"
       id="path8" /></g></svg>
