<?xml version="1.0" encoding="UTF-8" standalone="no"?>
<!-- Created with Inkscape (http://www.inkscape.org/) -->

<svg
   width="337.47363"
   height="216.26042"
   viewBox="0 0 337.47363 216.26042"
   version="1.1"
   id="svg1"
   xml:space="preserve"
   inkscape:version="1.4.2 (ebf0e940d0, 2025-05-08)"
   sodipodi:docname="iconos-menu-lineArt.svg"
   inkscape:export-filename="iconosss.svg"
   inkscape:export-xdpi="96"
   inkscape:export-ydpi="96"
   xmlns:inkscape="http://www.inkscape.org/namespaces/inkscape"
   xmlns:sodipodi="http://sodipodi.sourceforge.net/DTD/sodipodi-0.dtd"
   xmlns="http://www.w3.org/2000/svg"
   xmlns:svg="http://www.w3.org/2000/svg"><sodipodi:namedview
     id="namedview1"
     pagecolor="#ffffff"
     bordercolor="#000000"
     borderopacity="0.25"
     inkscape:showpageshadow="2"
     inkscape:pageopacity="0.0"
     inkscape:pagecheckerboard="0"
     inkscape:deskcolor="#d1d1d1"
     inkscape:document-units="px"
     inkscape:zoom="0.25"
     inkscape:cx="969.99999"
     inkscape:cy="324"
     inkscape:window-width="1920"
     inkscape:window-height="1015"
     inkscape:window-x="0"
     inkscape:window-y="0"
     inkscape:window-maximized="1"
     inkscape:current-layer="layer1"
     showguides="true"><sodipodi:guide
       position="459.25234,391.04446"
       orientation="0,1"
       id="guide1"
       inkscape:locked="false"
       inkscape:label=""
       inkscape:color="rgb(0,134,229)" /><sodipodi:guide
       position="459.25234,-182.7861"
       orientation="0,-1"
       id="guide2"
       inkscape:locked="false" /><inkscape:page
       x="0"
       y="0"
       width="337.47363"
       height="216.26042"
       id="page1"
       margin="0"
       bleed="0" /></sodipodi:namedview><defs
     id="defs1" /><g
     inkscape:label="Capa 1"
     inkscape:groupmode="layer"
     id="layer1"
     transform="translate(-847.66295,-87.86876)"><path
       style="fill:#000000"
       d="m 1145.4445,303.5873 c -1.5116,-0.92168 -1.7617,-1.78689 -2.0717,-7.16583 -0.9968,-17.29758 1.3345,-31.12679 7.4141,-43.98137 0.8207,-1.73548 1.4604,-3.17371 1.4214,-3.19607 -0.9434,-0.54057 -2.5746,-2.12644 -3.3598,-3.26652 -3.0911,-4.48826 -3.3069,-10.59788 -0.5409,-15.31773 0.989,-1.6876 3.8242,-4.20158 5.76,-5.10743 l 1.6648,-0.77903 -0.072,-29.41335 -0.072,-29.41335 -7.1186,2.45505 c -3.9152,1.35028 -11.4119,3.93465 -16.6594,5.74306 -5.2474,1.80841 -13.1497,4.55038 -17.5606,6.09327 -4.4109,1.54289 -12.3132,4.28016 -17.5606,6.08282 -21.0524,7.23218 -25.1786,8.66078 -28.7607,9.95784 -13.3984,4.85142 -43.0968,14.95407 -45.048,15.32422 -5.3022,1.00581 -11.0843,0.81315 -15.4849,-0.51597 -1.1575,-0.34962 -5.7135,-1.90928 -10.12444,-3.46592 -7.74344,-2.73272 -30.60085,-10.67776 -39.4077,-13.69778 -2.35755,-0.80845 -8.2687,-2.85914 -13.1359,-4.5571 -4.8672,-1.69796 -13.51615,-4.68564 -19.2199,-6.63928 -5.70374,-1.95365 -15.59715,-5.37516 -21.98534,-7.60338 -6.3882,-2.22821 -15.59715,-5.40313 -20.46435,-7.05536 -34.76129,-11.80021 -31.89585,-10.68782 -33.60356,-13.04525 -3.13635,-4.32959 -2.01862,-11.22259 2.29174,-14.13311 0.70525,-0.47621 4.25163,-1.7732 9.3118,-3.40554 15.11321,-4.87527 63.01337,-20.814 116.25152,-38.682559 17.24921,-5.789429 30.38053,-10.049453 31.98443,-10.37631 3.4274,-0.698463 9.0296,-0.745552 12.7461,-0.107137 2.6103,0.448383 4.4799,1.045951 45.8885,14.666666 33.2801,10.947 105.4654,34.96063 110.736,36.83818 2.2284,0.7938 3.5428,1.76164 4.69,3.45327 3.5664,5.25908 1.5505,12.61749 -4.0035,14.61337 -4.5845,1.64746 -15.1081,5.20504 -15.3922,5.20342 -0.2745,-0.002 -0.3457,6.3407 -0.3457,30.79486 v 30.79683 l 1.819,0.89549 c 4.5331,2.23163 7.5897,7.24928 7.5803,12.44357 -0.01,3.62456 -1.4013,6.94024 -4.0468,9.6207 l -1.7056,1.72812 1.4575,3.38797 c 5.9739,13.8861 8.0589,26.77974 7.0419,43.54686 -0.3285,5.41542 -0.5326,6.09013 -2.1774,7.19854 l -0.9247,0.62316 -13.1641,-10e-4 c -12.5686,-9.9e-4 -13.2042,-0.0255 -14.0495,-0.54086 z m 22.7083,-12.3866 c 0.3768,-9.70852 -0.8453,-18.46847 -3.8868,-27.86193 -1.6919,-5.22533 -4.3593,-11.23652 -4.7702,-10.75024 -0.6543,0.77424 -3.5927,7.68005 -4.7354,11.12899 -2.6236,7.91874 -3.6155,14.06682 -3.7313,23.12759 -0.043,3.3462 -0.017,6.79956 0.057,7.67414 l 0.1347,1.59013 h 8.3708 8.3709 z m -5.3726,-48.56733 c 1.984,-1.3129 2.9081,-4.06068 2.2105,-6.57227 -0.3428,-1.23434 -2.2675,-3.07532 -3.7143,-3.55281 -3.4583,-1.14132 -7.0498,1.57007 -7.0605,5.3302 -0.01,2.50264 1.2912,4.4631 3.5988,5.43455 1.2357,0.52017 3.6909,0.20389 4.9655,-0.63967 z m -141.8636,-38.73348 c 1.5882,-0.34182 8.9497,-2.83826 29.5903,-10.03469 3.2702,-1.14015 8.7458,-3.04731 12.168,-4.23813 3.4223,-1.19082 9.4579,-3.30517 13.4125,-4.69855 3.9545,-1.39338 9.679,-3.37536 12.721,-4.4044 3.042,-1.02905 8.5799,-2.93884 12.3063,-4.244 3.7264,-1.30516 12.0021,-4.17224 18.3903,-6.3713 15.4475,-5.31762 18.5192,-6.43049 18.2238,-6.60249 -0.1366,-0.0796 -1.3062,-0.22846 -2.599,-0.33088 -1.2929,-0.10242 -3.844,-0.36464 -5.6692,-0.58271 -1.8252,-0.21808 -6.803,-0.76981 -11.0618,-1.22608 -4.2588,-0.45627 -12.3478,-1.32488 -17.9755,-1.93026 -5.6277,-0.60537 -14.4011,-1.54147 -19.4964,-2.08021 -5.0954,-0.53874 -12.6865,-1.35052 -16.8693,-1.80395 -27.9576,-3.03074 -44.1993,-4.76612 -46.5343,-4.97204 -3.1459,-0.27744 -4.4811,-0.84799 -5.2234,-2.23218 -1.0932,-2.03841 -0.3416,-4.38426 1.7499,-5.4612 l 1.226,-0.63132 6.3463,0.69463 c 3.4905,0.38205 11.1997,1.19769 17.1316,1.81254 5.9319,0.61485 12.2787,1.29756 14.1039,1.51714 1.8252,0.21957 12.7141,1.40301 24.1977,2.62986 11.4835,1.22685 25.8569,2.78336 31.9409,3.4589 6.084,0.67555 14.8574,1.60953 19.4965,2.07553 4.639,0.46599 12.9567,1.33809 18.4837,1.93799 l 10.0491,1.09074 4.8844,-1.7003 c 13.7256,-4.77807 15.0964,-5.3215 15.3674,-6.09225 0.1895,-0.53889 0.1405,-0.90228 -0.1898,-1.40633 -0.5016,-0.76553 4.553,0.95379 -60.2097,-20.48056 -64.3713,-21.3048 -93.3129,-30.751069 -95.8863,-31.296375 -2.416,-0.511974 -7.4844,-0.51643 -10.0754,-0.0089 -1.1161,0.218645 -6.8826,2.030806 -12.81451,4.027025 -51.47239,17.32163 -130.69742,43.57202 -138.13435,45.76938 -3.53732,1.04516 -4.70127,1.76005 -4.70127,2.88753 0,1.05582 0.99396,1.6204 5.39263,3.0631 6.8982,2.26249 44.25301,15.01941 59.73378,20.39948 3.49829,1.21577 11.4628,3.97367 17.69889,6.12867 6.2361,2.15501 14.2006,4.91903 17.6989,6.14228 12.86753,4.49939 22.7523,7.92111 39.26942,13.5935 2.8899,0.99247 7.36991,2.57272 9.95561,3.51167 2.5857,0.93896 5.448,1.87243 6.3606,2.0744 2.2065,0.48831 7.3037,0.49617 9.5408,0.0147 z m -15.6248,99.78087 c -10.74438,-0.7873 -14.96555,-1.25833 -22.26192,-2.48417 -23.92797,-4.02005 -45.34296,-12.07587 -58.35105,-21.95028 -2.82538,-2.14474 -7.2924,-6.41701 -9.15631,-8.75714 -3.29251,-4.13369 -5.44974,-8.76556 -6.61452,-14.20231 -0.85854,-4.00734 -1.07681,-13.00361 -0.43407,-17.89058 0.74415,-5.65805 9.52656,-49.07735 10.08232,-49.84591 1.36731,-1.89087 3.33023,-2.34836 5.98431,-1.39475 2.62882,0.94453 13.89509,4.85869 19.49644,6.7735 4.8707,1.66504 10.93316,3.7604 26.41007,9.12806 3.80249,1.31877 8.84253,3.05878 11.20008,3.86669 4.8126,1.64923 18.23496,6.35055 23.52175,8.23874 5.2095,1.86055 7.2504,2.25609 11.4612,2.22116 2.6385,-0.0219 4.147,-0.1767 5.6692,-0.5818 2.6678,-0.70999 20.0863,-6.67752 41.7583,-14.30633 4.1828,-1.47237 11.7117,-4.08948 16.731,-5.8158 5.0193,-1.72632 13.2949,-4.59173 18.3903,-6.36757 5.0953,-1.77585 9.7811,-3.28751 10.4127,-3.35925 1.3885,-0.1577 2.9002,0.48481 3.5794,1.52134 0.2836,0.4328 1.4435,5.50216 2.8894,12.62812 8.1323,40.07766 7.8972,38.63414 7.6486,46.97553 -0.242,8.12013 -1.3011,12.21875 -4.5893,17.76033 -3.4994,5.89766 -9.0756,11.43594 -16.0692,15.95998 -16.7019,10.8042 -40.4807,18.20232 -68.3067,21.25178 -4.4544,0.48815 -7.3653,0.60324 -16.7309,0.66148 -6.2361,0.0388 -11.9606,0.0249 -12.7211,-0.0308 z m 27.4787,-8.52073 c 28.8462,-2.98087 53.9217,-11.08219 69.1156,-22.32966 8.5837,-6.35415 12.5967,-12.69906 13.6247,-21.54164 0.4922,-4.2337 0.1857,-11.41727 -0.6717,-15.74276 -2.3272,-11.74075 -7.89,-39.05815 -7.9699,-39.13803 -0.093,-0.0933 -15.1826,5.00397 -25.3892,8.57678 -5.8107,2.03403 -24.5941,8.56844 -37.7484,13.13199 -4.8672,1.68856 -10.7784,3.75847 -13.1359,4.59982 -6.1973,2.21163 -8.0197,2.60566 -12.8594,2.78031 -6.7662,0.24418 -7.3096,0.1112 -25.02734,-6.12519 -11.53584,-4.06044 -25.07363,-8.74227 -48.39542,-16.73677 -4.79114,-1.64237 -11.06796,-3.8044 -13.94847,-4.80451 -2.88052,-1.00012 -5.27445,-1.78125 -5.31986,-1.73584 -0.0454,0.0454 -1.02231,4.6783 -2.17088,10.29532 -6.48508,31.71473 -7.29265,36.62106 -6.91562,42.01547 0.53453,7.64791 1.84327,11.62376 5.41991,16.46538 5.32122,7.20322 14.98869,13.58731 28.79348,19.01431 16.18264,6.36179 34.74805,10.44886 52.9073,11.64726 5.723,0.37768 24.7414,0.13925 29.6911,-0.37224 z M 941.117,273.55064 c -7.56003,-4.54711 -13.23251,-12.02927 -15.48615,-20.4267 -1.34245,-5.00216 -1.53765,-11.5994 -0.5283,-17.85451 0.79835,-4.94754 4.59607,-23.60007 5.02157,-24.66349 0.84352,-2.10817 3.67619,-3.07935 5.54991,-1.90278 1.14469,0.71879 2.00006,2.11277 2.00139,3.26163 5.7e-4,0.49119 -1.14556,6.52679 -2.54695,13.41245 l -2.54799,12.51937 0.009,5.39263 c 0.008,5.05215 0.0556,5.54597 0.75178,7.82121 1.96379,6.4176 5.39275,10.92603 11.47127,15.08255 2.81257,1.92324 3.36034,2.55853 3.55066,4.118 0.27749,2.27367 -1.65254,4.22785 -4.17559,4.22785 -1.14582,0 -1.75119,-0.19485 -3.07024,-0.98821 z"
       id="path4" /></g></svg>
