<?xml version="1.0" encoding="UTF-8" standalone="no"?>
<!-- Created with Inkscape (http://www.inkscape.org/) -->

<svg
   width="344.47537"
   height="245.5351"
   viewBox="0 0 344.47537 245.5351"
   version="1.1"
   id="svg1"
   xml:space="preserve"
   inkscape:version="1.4.2 (ebf0e940d0, 2025-05-08)"
   sodipodi:docname="iconos-menu-lineArt.svg"
   inkscape:export-filename="iconosss.svg"
   inkscape:export-xdpi="96"
   inkscape:export-ydpi="96"
   xmlns:inkscape="http://www.inkscape.org/namespaces/inkscape"
   xmlns:sodipodi="http://sodipodi.sourceforge.net/DTD/sodipodi-0.dtd"
   xmlns="http://www.w3.org/2000/svg"
   xmlns:svg="http://www.w3.org/2000/svg"><sodipodi:namedview
     id="namedview1"
     pagecolor="#ffffff"
     bordercolor="#000000"
     borderopacity="0.25"
     inkscape:showpageshadow="2"
     inkscape:pageopacity="0.0"
     inkscape:pagecheckerboard="0"
     inkscape:deskcolor="#d1d1d1"
     inkscape:document-units="px"
     inkscape:zoom="0.25"
     inkscape:cx="969.99999"
     inkscape:cy="324"
     inkscape:window-width="1920"
     inkscape:window-height="1015"
     inkscape:window-x="0"
     inkscape:window-y="0"
     inkscape:window-maximized="1"
     inkscape:current-layer="layer1"
     showguides="true"><sodipodi:guide
       position="873.7189,421.53919"
       orientation="0,1"
       id="guide1"
       inkscape:locked="false"
       inkscape:label=""
       inkscape:color="rgb(0,134,229)" /><sodipodi:guide
       position="873.7189,-152.29138"
       orientation="0,-1"
       id="guide2"
       inkscape:locked="false" /><inkscape:page
       x="0"
       y="0"
       width="344.47537"
       height="245.5351"
       id="page1"
       margin="0"
       bleed="0" /></sodipodi:namedview><defs
     id="defs1" /><g
     inkscape:label="Capa 1"
     inkscape:groupmode="layer"
     id="layer1"
     transform="translate(-433.1964,-89.088804)"><path
       style="fill:#000000"
       d="m 468.3006,334.54678 c -5.28937,-0.60744 -9.32611,-1.79648 -13.70547,-4.03699 -9.16985,-4.69138 -16.44272,-13.1524 -19.71149,-22.93173 -1.57373,-4.7082 -1.53191,-2.7211 -1.61199,-76.58236 l -0.0752,-69.34199 0.70958,-3.34263 c 3.23094,-15.22006 15.72136,-27.27734 30.90933,-29.83744 l 2.52624,-0.42583 0.17792,-4.77403 c 0.16211,-4.3499 0.25583,-4.93598 1.0549,-6.59685 1.09944,-2.28518 3.49573,-4.48815 5.72928,-5.26707 1.5223,-0.53088 2.98672,-0.58193 16.69267,-0.58193 13.74686,0 15.16694,0.0498 16.70587,0.58632 2.23764,0.78005 4.90285,3.23866 6.05569,5.58627 0.81363,1.65685 0.90744,2.21755 1.05303,6.29411 l 0.15983,4.47523 3.39874,0.0903 3.39874,0.0904 0.13541,-3.12711 c 0.21507,-4.96674 1.90894,-7.77181 5.76979,-9.55485 l 2.00164,-0.92441 h 10.22909 c 9.94727,0 10.27947,0.0204 12.05785,0.73873 2.21373,0.89423 4.52973,3.05566 5.41246,5.05123 0.37557,0.84902 0.76426,2.72973 0.93319,4.51526 0.15923,1.68308 0.3507,3.12133 0.42549,3.19611 0.33193,0.33194 1.41868,-0.62413 1.79804,-1.58182 0.39719,-1.0027 6.24145,-13.2537 10.87083,-22.78792 3.12022,-6.426101 6.0263,-9.585987 11.01679,-11.978958 5.37203,-2.575925 1.96787,-2.405698 48.10868,-2.405698 h 41.07618 l 2.38938,0.750258 c 4.26244,1.33839 7.02891,2.988966 10.1342,6.046413 2.45575,2.417918 4.36746,5.527965 6.92391,11.264065 1.13615,2.54928 3.79234,8.23122 5.90263,12.62653 l 3.8369,7.99148 22.16728,0.18481 c 23.48292,0.19578 23.63538,0.2054 28.39209,1.7925 2.66173,0.8881 6.78378,2.95999 9.56281,4.80662 3.35231,2.22756 7.98325,6.79206 10.04293,9.89881 2.945,4.44218 5.58094,11.09028 6.25329,15.77146 0.5338,3.71653 0.64753,138.51324 0.11924,141.32787 -1.59467,8.4961 -5.57324,16.24834 -11.26272,21.94541 -5.25835,5.26535 -11.32882,8.58431 -19.02241,10.40027 l -2.87693,0.67906 -137.45338,0.0401 c -75.59936,0.0221 -137.88492,-0.009 -138.41235,-0.07 z m 11.02823,-8.74088 c 7.66035,-1.66223 14.0531,-5.04721 19.09225,-10.10941 4.81438,-4.83642 7.50795,-9.80015 9.43588,-17.38855 l 0.69031,-2.7171 0.10357,-50.9057 0.10357,-50.9057 h -33.73885 -33.73885 l 0.0974,53.46297 c 0.10928,59.98837 -0.10553,54.7398 2.48508,60.71991 4.00115,9.2362 12.18609,15.92552 22.04397,18.01593 2.46449,0.52261 10.71084,0.41675 13.42568,-0.17235 z m 268.33798,-0.42404 c 9.04957,-2.83476 16.17698,-9.43846 19.68096,-18.23486 1.51011,-3.79096 1.92643,-6.21711 2.13385,-12.43522 l 0.18928,-5.67395 h -39.23294 -39.23293 l -3.5673,3.48663 c -6.46373,6.31756 -12.7104,10.73771 -20.82888,14.73858 -8.61968,4.24785 -17.29496,6.84546 -26.85136,8.04002 -4.04857,0.50607 -15.67351,0.50054 -19.65903,-0.009 -13.17963,-1.68615 -28.41826,-7.85836 -38.85897,-15.73931 -3.18294,-2.40258 -9.40676,-7.90306 -10.75402,-9.50419 l -0.85497,-1.01608 -26.47087,0.0818 -26.47086,0.0818 -0.20728,3.99574 c -0.37692,7.26583 -2.48116,14.43452 -5.95822,20.29835 -2.38753,4.02641 -6.65912,8.94732 -10.13711,11.67803 -0.70325,0.55215 -1.33968,1.06447 -1.41428,1.13848 -0.0746,0.074 55.16248,0.0975 122.74907,0.0522 l 122.8847,-0.0824 z M 642.03528,306.79642 c 11.98785,-2.05017 23.16353,-6.82332 32.79673,-14.00754 4.66148,-3.47643 7.39022,-5.99801 11.3235,-10.46389 13.95194,-15.84111 20.483,-37.1121 17.87472,-58.21607 -0.70381,-5.69458 -2.63161,-13.30666 -4.68575,-18.50209 -6.45582,-16.32836 -19.35877,-30.2541 -35.5688,-38.38826 -10.73893,-5.38877 -20.78734,-7.74736 -33.0883,-7.76656 -9.1935,-0.0144 -14.94873,0.91458 -23.89468,3.85674 -7.84312,2.57947 -15.09032,6.42271 -21.81656,11.56948 -2.88467,2.20729 -10.17161,9.4306 -12.61821,12.50803 -4.01575,5.05117 -7.48489,10.69256 -9.65233,15.69626 -6.10998,14.10531 -7.81541,28.57304 -5.19073,44.03464 2.35109,13.84999 9.68154,27.84747 19.94491,38.08476 12.47014,12.43847 27.94356,19.95292 45.39595,22.04593 3.6623,0.43921 15.61706,0.15783 19.17955,-0.45143 z m -15.18381,-14.14314 c -4.43863,-0.29222 -12.1509,-1.92466 -16.53024,-3.49893 -3.49827,-1.25754 -9.26707,-4.24547 -13.03822,-6.75309 -13.70521,-9.11326 -23.13717,-24.04967 -25.43713,-40.28213 -1.27106,-8.97078 -0.23585,-20.0427 2.63679,-28.20117 2.00865,-5.7047 5.95463,-12.86535 9.63104,-17.47714 9.21647,-11.56141 22.35704,-19.14875 37.62322,-21.72357 4.35561,-0.73463 13.54553,-0.73461 17.9009,4e-5 14.34632,2.4199 27.672,10.03879 36.44809,20.83903 6.52405,8.02878 10.40272,16.03233 12.43562,25.66067 0.9169,4.34266 1.57888,11.71915 1.31002,14.59761 -0.0985,1.05488 -0.26162,2.78104 -0.36242,3.83591 -0.10081,1.05488 -0.53799,3.6225 -0.97151,5.70583 -5.3727,25.81863 -27.45516,45.18173 -53.81451,47.18748 -2.37347,0.1806 -4.74694,0.30279 -5.27438,0.27153 -0.52743,-0.0313 -1.67821,-0.1042 -2.55727,-0.16207 z m 10.86841,-8.75497 c 15.69698,-1.87056 30.85197,-12.73645 38.32912,-27.48136 6.52067,-12.85874 7.34365,-27.06762 2.35784,-40.70841 -5.78491,-15.8271 -19.00573,-27.67603 -35.5234,-31.83726 -7.6012,-1.91493 -14.83329,-2.0778 -22.18233,-0.49954 -5.11178,1.0978 -8.0744,2.09288 -12.50049,4.19867 -21.67635,10.31289 -33.0355,34.40064 -27.33097,57.95697 1.5021,6.20282 3.60874,10.95141 7.20787,16.24739 7.9897,11.75649 20.63072,19.82823 34.41684,21.97638 3.40249,0.53017 11.36556,0.60714 15.22552,0.14716 z m -14.70432,-10.40087 c -11.48418,-2.06147 -20.6945,-7.64476 -27.44811,-16.63904 -4.91526,-6.54602 -8.09173,-15.6858 -7.82403,-22.51238 0.0957,-2.44075 0.20879,-2.90162 0.88966,-3.626 1.71006,-1.81936 4.60418,-1.76074 6.19126,0.1254 0.65207,0.77494 0.78777,1.36789 0.96447,4.21414 0.65097,10.48566 6.98925,20.40088 16.69522,26.11701 5.04196,2.96934 9.58731,4.20828 16.46098,4.4868 5.33566,0.2162 6.11042,0.44511 7.21571,2.13201 0.68183,1.0406 0.67543,3.09499 -0.0129,4.14554 -1.14089,1.74122 -2.2097,2.07312 -6.57923,2.04306 -2.19765,-0.0151 -5.14651,-0.23406 -6.55301,-0.48654 z m 37.39599,-44.59216 c -1.01127,-0.49202 -1.98178,-2.178 -2.555,-4.43857 -0.55689,-2.1962 -2.46664,-6.22719 -4.08898,-8.63079 -1.46176,-2.1657 -5.84763,-6.37539 -8.41272,-8.07477 -4.93901,-3.27211 -9.61434,-4.67185 -16.64933,-4.98461 -4.81636,-0.21413 -4.86737,-0.22423 -5.84091,-1.15695 -0.54017,-0.51751 -1.14173,-1.47365 -1.3368,-2.12475 -0.30499,-1.01796 -0.25723,-1.38514 0.34092,-2.62074 1.11062,-2.29424 2.07305,-2.59243 7.56216,-2.34301 14.9729,0.68034 27.30945,8.55511 33.84629,21.60503 1.29402,2.58333 2.67646,6.55373 2.9326,8.42244 0.34911,2.54706 -1.43377,4.72096 -3.83935,4.6814 -0.72349,-0.0119 -1.60499,-0.16251 -1.95888,-0.33468 z m -97.77652,51.73312 c 0.0678,-0.0678 -0.83544,-1.61586 -2.00715,-3.44018 -6.34893,-9.88507 -10.55209,-22.09546 -12.09904,-35.14831 -1.76932,-14.92921 1.35272,-31.94301 8.43071,-45.94382 0.55297,-1.09382 1.0054,-2.06478 1.0054,-2.1577 0,-0.0929 -9.2781,-0.16895 -20.618,-0.16895 h -20.61801 v 35.27047 c 0,19.39876 0.0948,38.95562 0.21072,43.4597 l 0.21072,8.18922 1.94698,0.11599 c 2.52993,0.15072 43.37604,-0.0148 43.53767,-0.17642 z m 206.86542,-43.30541 0.0811,-43.55355 h -33.24568 c -22.43198,0 -33.24568,0.10629 -33.24568,0.32676 0,0.17971 0.5852,1.49066 1.30044,2.9132 2.78597,5.54102 5.92318,15.18402 7.00564,21.53362 2.50614,14.70066 1.26162,29.56818 -3.58555,42.83431 -2.27175,6.21748 -5.06554,11.89854 -8.45112,17.18494 -0.76118,1.18853 -1.38396,2.23204 -1.38396,2.31891 0,0.0869 16.07486,0.12136 35.7219,0.0766 l 35.7219,-0.0813 z M 564.1983,184.308 c 14.74869,-18.49421 33.15918,-29.29656 55.52364,-32.57846 5.42309,-0.79582 13.46775,-0.94312 18.63726,-0.34126 16.64237,1.9376 30.3033,7.4761 43.31379,17.56056 5.0268,3.89628 11.42982,10.43162 14.71433,15.01838 l 1.31206,1.83227 35.86001,-0.0857 35.86001,-0.0857 0.0844,-10.32534 c 0.0954,-11.68147 -0.1977,-14.7571 -1.83881,-19.29253 -2.88055,-7.96077 -9.55606,-14.7294 -17.58493,-17.83021 -4.66903,-1.80322 -5.5501,-1.86515 -30.04794,-2.11219 -17.35917,-0.17504 -22.71954,-0.32159 -23.33511,-0.63793 -1.61724,-0.8311 -2.57526,-2.39199 -6.17293,-10.05753 -2.02159,-4.3074 -5.24972,-11.06819 -7.17363,-15.02397 -3.13289,-6.44162 -3.68121,-7.3643 -5.25333,-8.83995 -1.96681,-1.846122 -4.66412,-3.319065 -7.29249,-3.982277 -1.45193,-0.366361 -8.5502,-0.443624 -40.75653,-0.443624 -43.40497,0 -40.33971,-0.148018 -44.68577,2.157833 -3.19648,1.695928 -4.83056,3.829448 -7.78321,10.162098 -12.22439,26.21808 -11.18172,24.13876 -12.7368,25.39983 l -1.18256,0.95898 -48.15905,0.16298 -48.15905,0.16298 -3.07476,0.84687 c -11.0329,3.03874 -18.64551,10.31492 -21.92007,20.95131 l -0.86487,2.80926 -0.11957,12.59878 -0.11956,12.59877 60.99827,-0.19088 60.99827,-0.19088 z m 164.25212,-5.04831 c -5.5712,-1.35113 -10.19756,-6.06975 -11.77946,-12.01436 -0.62203,-2.33751 -0.60455,-6.79193 0.0352,-8.96993 1.9228,-6.54623 7.1911,-11.06028 14.17252,-12.14349 4.79774,-0.74439 10.22747,1.07968 13.81804,4.64205 2.05683,2.04069 4.16,5.80076 4.7086,8.41813 1.83874,8.77255 -3.37061,17.61486 -11.7458,19.93723 -2.45013,0.6794 -6.69733,0.73953 -9.20909,0.13037 z m 8.10447,-8.44496 c 2.99755,-1.52923 4.70749,-3.94261 5.08813,-7.18131 0.39673,-3.3755 -1.5127,-6.74975 -4.78478,-8.45545 -3.35771,-1.75034 -7.85135,-0.89097 -10.37587,1.9843 -1.52459,1.73642 -2.05696,3.0045 -2.22041,5.28895 -0.29565,4.13202 2.44329,7.96177 6.42499,8.98385 1.58425,0.40666 4.44835,0.10388 5.86794,-0.62034 z M 600.4796,127.61841 c -5.88972,-0.0925 -10.9574,-0.29037 -11.26151,-0.43968 -0.79861,-0.39207 -1.84451,-2.21896 -1.84451,-3.22184 0,-0.47331 0.92292,-3.83673 2.05093,-7.47426 1.12801,-3.63752 2.48946,-8.05825 3.02545,-9.82384 1.00891,-3.32341 1.66115,-4.28546 3.33548,-4.91985 0.6169,-0.23374 11.57375,-0.34058 34.84283,-0.33976 33.10126,0.001 33.96834,0.0167 34.96634,0.62518 0.56285,0.3432 1.22193,1.02593 1.46462,1.51719 0.24268,0.49126 1.78313,5.37112 3.42321,10.84414 l 2.98196,9.95093 -0.63261,1.23713 c -1.28484,2.51262 0.81646,2.36374 -32.23498,2.28391 -16.17475,-0.0391 -34.22749,-0.14673 -40.11721,-0.23925 z m 62.48193,-9.51824 c -0.25318,-0.83511 -0.92392,-3.06473 -1.49053,-4.95471 l -1.03021,-3.43634 h -30.12156 c -16.56686,0 -30.19069,0.11186 -30.27518,0.24857 -0.1589,0.2571 -2.194,7.22748 -2.56398,8.7818 l -0.20924,0.87906 h 33.07551 33.07551 z m -156.30185,6.20697 v -3.46272 l -1.04394,-0.93259 -1.04393,-0.9326 h -13.53688 -13.53687 l -0.84274,0.84274 c -0.81174,0.81175 -0.84274,0.97643 -0.84274,4.4783 v 3.63555 l 15.42355,-0.083 15.42355,-0.083 z m 36.20138,3.3048 7.43208,-0.002 v -1.62289 c 0,-1.3675 -0.14704,-1.76992 -0.93439,-2.55727 l -0.93439,-0.93439 h -8.3179 c -8.17008,0 -8.33246,0.0128 -9.13729,0.71923 -0.57237,0.50241 -0.87922,1.17164 -1.01782,2.21986 -0.33112,2.50418 -0.19195,2.62065 2.84837,2.38397 1.4461,-0.11258 5.9737,-0.20554 10.06134,-0.2066 z"
       id="path5" /></g></svg>
