<?xml version="1.0" encoding="UTF-8" standalone="no"?>
<!-- Created with Inkscape (http://www.inkscape.org/) -->

<svg
   width="400"
   height="400"
   viewBox="0 0 400 400"
   version="1.1"
   id="svg1"
   xml:space="preserve"
   xmlns="http://www.w3.org/2000/svg"
   xmlns:svg="http://www.w3.org/2000/svg"><defs
     id="defs1" /><g
     id="layer1"
     transform="translate(-410)"><path
       style="display:inline;fill:#000000;fill-opacity:1;stroke:#000000;stroke-width:6;stroke-dasharray:none;stroke-opacity:1"
       d="m 604.39489,300.9385 c -11.77565,-11.80931 -21.41056,-22.37171 -21.41056,-23.47204 0,-1.10031 10.07586,-11.7443 22.3908,-23.65327 12.31494,-11.90899 40.23369,-39.29347 62.04157,-60.8544 l 39.65077,-39.2017 22.11163,22.72794 22.11143,22.72794 -36.0366,35.18515 c -19.82015,19.35182 -48.05428,47.07113 -62.74264,61.59847 l -26.70584,26.41333 z m -80.96055,-40.33214 c -31.18039,-31.58653 -56.6916,-58.2752 -56.6916,-59.30815 0,-1.03295 27.45264,-29.28505 61.00568,-62.78243 l 61.0055,-60.90433 17.6005,17.709483 17.60031,17.709507 -57.168,55.97776 -57.168,55.97776 41.84107,41.97274 41.84107,41.97274 -4.53762,4.83003 c -2.49576,2.6565 -5.45992,4.70512 -6.58746,4.55248 -1.12736,-0.15264 -27.56108,-26.12107 -58.74145,-57.70759 z m 27.6312,-12.75097 c -11.7909,-11.57691 -21.44963,-21.6209 -21.46411,-22.32001 -0.0191,-0.69909 28.04376,-28.94703 62.3518,-62.7732 l 62.37791,-61.5021 21.49497,21.49498 21.49498,21.49499 -62.40878,62.32711 -62.40878,62.32712 z"
       id="path3" /></g></svg>
