<?xml version="1.0" encoding="UTF-8" standalone="no"?>
<!-- Created with Inkscape (http://www.inkscape.org/) -->

<svg
   width="400"
   height="400"
   viewBox="0 0 400 400"
   version="1.1"
   id="svg1"
   xml:space="preserve"
   xmlns="http://www.w3.org/2000/svg"
   xmlns:svg="http://www.w3.org/2000/svg"><defs
     id="defs1" /><g
     id="layer1"
     transform="translate(-820)"><path
       style="fill:#000000;stroke-width:2.15033"
       d="m 885.99811,272.01959 v -64.52592 l 133.85779,0.55371 133.8578,0.55393 0.1441,63.97221 0.1441,63.97221 h -45.8385 -45.8385 v -28.70686 c 0,-28.45527 -0.056,-28.78427 -6.4222,-37.57222 -3.5321,-4.87608 -10.2672,-10.82711 -14.9667,-13.22451 -11.1619,-5.69449 -29.6672,-5.82566 -40.5186,-0.28728 -17.73158,9.04986 -21.95526,19.42239 -21.95526,53.91793 v 25.87294 h -46.23201 -46.23202 z m 67.73528,-144.05553 c 35.46555,-35.480382 65.46261,-64.509789 66.66011,-64.509789 1.1975,0 31.1946,29.029407 66.6601,64.509789 l 64.4829,64.5098 h -131.143 -131.14302 z"
       id="path7" /></g></svg>
