<?xml version="1.0" encoding="UTF-8" standalone="no"?>
<!-- Created with Inkscape (http://www.inkscape.org/) -->

<svg
   width="300.9263"
   height="284.42892"
   viewBox="0 0 300.9263 284.42892"
   version="1.1"
   id="svg1"
   xml:space="preserve"
   inkscape:version="1.4.2 (ebf0e940d0, 2025-05-08)"
   sodipodi:docname="iconos-menu-lineArt.svg"
   inkscape:export-filename="iconosss.svg"
   inkscape:export-xdpi="96"
   inkscape:export-ydpi="96"
   xmlns:inkscape="http://www.inkscape.org/namespaces/inkscape"
   xmlns:sodipodi="http://sodipodi.sourceforge.net/DTD/sodipodi-0.dtd"
   xmlns="http://www.w3.org/2000/svg"
   xmlns:svg="http://www.w3.org/2000/svg"><sodipodi:namedview
     id="namedview1"
     pagecolor="#ffffff"
     bordercolor="#000000"
     borderopacity="0.25"
     inkscape:showpageshadow="2"
     inkscape:pageopacity="0.0"
     inkscape:pagecheckerboard="0"
     inkscape:deskcolor="#d1d1d1"
     inkscape:document-units="px"
     inkscape:zoom="0.25"
     inkscape:cx="969.99999"
     inkscape:cy="324"
     inkscape:window-width="1920"
     inkscape:window-height="1015"
     inkscape:window-x="0"
     inkscape:window-y="0"
     inkscape:window-maximized="1"
     inkscape:current-layer="layer1"
     showguides="true"><sodipodi:guide
       position="1261.7759,420.79234"
       orientation="0,1"
       id="guide1"
       inkscape:locked="false"
       inkscape:label=""
       inkscape:color="rgb(0,134,229)" /><sodipodi:guide
       position="1261.7759,-153.03822"
       orientation="0,-1"
       id="guide2"
       inkscape:locked="false" /><inkscape:page
       x="0"
       y="0"
       width="300.9263"
       height="284.42892"
       id="page1"
       margin="0"
       bleed="0" /></sodipodi:namedview><defs
     id="defs1" /><g
     inkscape:label="Capa 1"
     inkscape:groupmode="layer"
     id="layer1"
     transform="translate(-45.139404,-49.44814)"><path
       style="fill:#000000"
       d="m 49.657203,333.14886 c -2.955698,-1.94517 -3.120733,-5.52285 -0.373228,-8.09098 l 0.98309,-0.9189 14.857052,-0.10385 14.857051,-0.10385 v -70.00883 c 0,-38.50486 -0.0887,-70.00884 -0.197109,-70.00884 -0.108409,0 -1.284681,0.83358 -2.613936,1.8524 -4.527765,3.47034 -8.116152,4.76374 -13.216462,4.76374 -3.305533,0 -6.994465,-0.92685 -9.543148,-2.39773 -2.149966,-1.24078 -6.055163,-5.54271 -7.232201,-7.96693 -3.366121,-6.93285 -2.521187,-14.83164 2.215631,-20.71263 1.062998,-1.31977 10.768656,-8.83378 33.592215,-26.00673 17.653512,-13.28289 34.082142,-25.68486 36.508052,-27.55992 2.42592,-1.87507 11.68851,-8.903606 20.58354,-15.61897 8.89503,-6.715363 19.15005,-14.469796 22.78892,-17.232073 3.63888,-2.762276 11.33014,-8.584901 17.09169,-12.939165 5.76156,-4.354265 11.17213,-8.448087 12.02351,-9.097384 1.73317,-1.321793 3.27447,-1.782563 4.8242,-1.442185 0.57337,0.125932 2.84767,1.591982 5.05399,3.257888 2.20633,1.665906 11.62007,8.806275 20.91942,15.867487 9.29935,7.061212 23.28117,17.641405 31.07073,23.51154 7.78955,5.870135 18.04456,13.608972 22.78892,17.197422 26.30397,19.8953 39.80914,30.11379 51.07445,38.6447 12.8115,9.7018 14.49277,11.23917 16.39373,14.99053 1.91753,3.78406 2.49617,9.20425 1.42709,13.36763 -0.91574,3.56619 -2.33228,6.05729 -4.92633,8.66334 -3.86996,3.88788 -7.77739,5.47939 -13.41546,5.46419 -1.83329,-0.005 -4.07297,-0.17943 -4.97706,-0.38776 -2.45863,-0.56654 -5.82419,-2.30563 -8.09401,-4.18242 -1.11044,-0.91818 -2.14421,-1.66941 -2.29727,-1.66941 -0.15305,0 -0.27828,31.42666 -0.27828,69.83701 v 69.83701 h 14.18753 c 15.7374,0 15.9656,0.0312 17.41712,2.37979 1.4562,2.35619 0.58312,5.74415 -1.79752,6.97523 -0.98828,0.51106 -15.88257,0.56894 -145.84696,0.56677 -143.49957,-0.002 -144.755765,-0.009 -145.848957,-0.72812 z m 70.388357,-45.4169 c 0,-39.98878 -0.13857,-37.64601 2.31511,-39.14211 1.13758,-0.69362 2.03658,-0.71754 27.01631,-0.71887 28.16646,-0.001 27.12565,-0.0777 28.59709,2.09333 0.65937,0.97286 0.698,1.93074 0.70115,17.38615 0.002,8.99611 0.0432,25.41289 0.0919,36.48173 l 0.0886,20.12516 61.29117,-0.093 61.29116,-0.093 0.0928,-73.74023 0.0928,-73.74024 -7.18722,-5.46964 c -9.91484,-7.5453 -27.97943,-21.22211 -48.61816,-36.80898 -36.92894,-27.88965 -48.43047,-36.534673 -49.45646,-37.173545 -0.77888,-0.484999 -1.16334,-0.257683 -6.86833,4.060965 -3.3238,2.5161 -10.09565,7.62178 -15.04857,11.34596 -4.95291,3.72418 -14.1328,10.67334 -20.39975,15.44257 -6.26696,4.76922 -17.18358,13.04044 -24.25918,18.38048 -7.07559,5.34005 -15.49279,11.69787 -18.70489,14.12851 -3.2121,2.43064 -9.24932,6.99214 -13.416057,10.13666 l -7.575877,5.71733 -0.09279,73.952 -0.09279,73.952 h 15.070984 15.07099 z m 94.05865,-37.75619 c -2.64512,-1.76705 -2.5342,-0.52735 -2.53484,-28.33138 -6.3e-4,-27.62631 -0.0834,-26.64636 2.37921,-28.16834 1.17277,-0.72481 1.77169,-0.74092 27.54637,-0.74092 28.72111,0 27.63222,-0.0784 29.10505,2.0947 0.66637,0.98317 0.70227,2.18109 0.79642,26.57523 0.0936,24.23922 0.0639,25.60998 -0.57975,26.80371 -0.37309,0.69194 -1.24189,1.56031 -1.93068,1.92971 -1.17924,0.63243 -2.77798,0.67163 -27.39259,0.67163 h -26.14026 z m 46.50422,-9.31297 c 0.51973,-0.19944 0.5814,-2.22699 0.5814,-19.11329 V 202.65933 H 241.5252 221.86057 v 19.11329 19.11329 h 19.08322 c 10.49578,0 19.34486,-0.1004 19.66464,-0.22311 z m -92.04453,50.15498 v -33.13741 l -4.68643,0.23901 c -2.57754,0.13146 -11.17851,0.23969 -19.11329,0.24051 l -14.42685,10e-4 v 32.89691 32.8969 h 19.11329 19.11328 z M 67.137728,180.04669 c 0.914124,-0.32252 5.868778,-3.7945 11.716345,-8.21025 5.572817,-4.20827 15.921514,-12.01329 22.997107,-17.34448 7.07559,-5.33119 18.40573,-13.88071 25.17808,-18.99893 12.47993,-9.43173 20.53182,-15.50503 46.68053,-35.2097 7.98531,-6.017427 15.62812,-11.827746 16.98403,-12.911821 2.90351,-2.321418 4.06973,-2.831477 5.75228,-2.515829 1.24102,0.232817 10.82926,7.344772 55.00331,40.79801 9.90583,7.50174 25.37105,19.18673 34.36716,25.96665 8.99611,6.77992 20.82245,15.76895 26.28077,19.97564 5.45831,4.20669 10.65536,7.97496 11.54898,8.37395 1.28556,0.57397 2.15035,0.68782 4.14208,0.54531 3.21972,-0.23037 5.50598,-1.55848 7.08814,-4.11757 0.98524,-1.59359 1.11143,-2.11771 1.10389,-4.58482 -0.0104,-3.41714 -0.82026,-5.16089 -3.374,-7.26523 -1.69739,-1.39869 -13.11692,-10.09474 -32.08733,-24.43474 -4.95292,-3.74398 -13.9083,-10.5135 -19.90086,-15.04339 -5.99256,-4.52989 -16.49568,-12.47684 -23.34026,-17.65989 -6.84459,-5.18305 -16.00088,-12.116591 -20.34732,-15.407869 -23.75751,-17.99005 -40.90742,-30.88818 -41.16364,-30.958419 -0.2749,-0.07536 -14.77538,10.757602 -35.10573,26.226638 -5.05399,3.845503 -14.31658,10.870886 -20.58354,15.61196 -6.26695,4.74108 -14.28902,10.81681 -17.82681,13.50162 -3.5378,2.68481 -13.54471,10.24295 -22.23758,16.79587 -8.692867,6.55292 -18.534372,13.9859 -21.870008,16.51775 -3.335636,2.53184 -9.328936,7.04817 -13.318445,10.03628 -8.569616,6.41857 -9.212215,7.18299 -9.415061,11.19993 -0.147315,2.91725 0.221901,4.29586 1.68184,6.27978 2.168703,2.94708 6.367567,4.13139 10.046042,2.83355 z"
       id="path6" /></g></svg>
