<?xml version="1.0" encoding="UTF-8" standalone="no"?>
<!-- Created with Inkscape (http://www.inkscape.org/) -->

<svg
   version="1.1"
   id="svg1"
   width="844.07837"
   height="949.76996"
   viewBox="0 0 844.07837 949.76996"
   sodipodi:docname="logo-simple-shield-BW-2025 (copia 1) (copia 1).svg"
   inkscape:version="1.4.1 (93de688d07, 2025-03-30)"
   xml:space="preserve"
   inkscape:export-filename="logo-simple-shield-2025.png"
   inkscape:export-xdpi="96"
   inkscape:export-ydpi="96"
   xmlns:inkscape="http://www.inkscape.org/namespaces/inkscape"
   xmlns:sodipodi="http://sodipodi.sourceforge.net/DTD/sodipodi-0.dtd"
   xmlns="http://www.w3.org/2000/svg"
   xmlns:svg="http://www.w3.org/2000/svg"><defs
     id="defs1" /><sodipodi:namedview
     id="namedview1"
     pagecolor="#ffffff"
     bordercolor="#000000"
     borderopacity="0.25"
     inkscape:showpageshadow="2"
     inkscape:pageopacity="0.0"
     inkscape:pagecheckerboard="0"
     inkscape:deskcolor="#d1d1d1"
     inkscape:zoom="0.5"
     inkscape:cx="308"
     inkscape:cy="399"
     inkscape:window-width="1920"
     inkscape:window-height="1011"
     inkscape:window-x="0"
     inkscape:window-y="0"
     inkscape:window-maximized="1"
     inkscape:current-layer="svg1"
     showguides="true"><sodipodi:guide
       position="1421.372,949.7228"
       orientation="1,0"
       id="guide5"
       inkscape:locked="false" /><sodipodi:guide
       position="421.08212,651.26197"
       orientation="1,0"
       id="guide1"
       inkscape:locked="false" /><inkscape:page
       x="0"
       y="0"
       width="844.07837"
       height="949.76996"
       id="page2"
       margin="0"
       bleed="0" /></sodipodi:namedview><path
     id="path13"
     style="display:inline;fill:#ffffff;fill-opacity:1;stroke:none"
     inkscape:highlight-color="#37ef0e"
     inkscape:label="All-SHIELD"
     d="M 421.99623,2.614664e-4 C 421.47613,0.58744247 418.16531,6.6075325 414.63881,13.377214 l -6.41211,12.308594 6.89062,14.099609 c 3.78941,7.755357 6.63618,14.807029 6.89063,15.580078 0.009,0.02662 0.0226,0.0078 0.0312,0.0332 0.009,-0.0254 0.0222,-0.0066 0.0312,-0.0332 0.25445,-0.773049 3.10121,-7.824721 6.89062,-15.580078 l 6.89073,-14.099609 -6.41211,-12.308594 c -3.5265,-6.7696815 -6.83733,-12.78977153 -7.35742,-13.3769525336 -0.004,-0.004499996 -0.039,0.0507200036 -0.043,0.0468700036 -0.004,0.0038 -0.039,-0.05136 -0.043,-0.0468700036 z M 394.3556,34.617448 c -0.86784,-0.11547 -1.71628,-0.10306 -2.53515,0.04687 -0.93585,0.1714 -1.83142,0.523462 -2.66602,1.070313 -2.67667,1.753825 -5.81445,6.836638 -5.81445,9.419922 0,0.318926 2.41356,0.580078 5.36328,0.580078 6.87107,0 15.31987,7.387772 20.04297,17.52539 l 3.26172,4.998047 c 0.8919,-5.369251 0.21033,-10.794223 -1.375,-15.978515 -3.25278,-9.793222 -10.20248,-16.853816 -16.27735,-17.66211 z m 55.36719,0 c -6.07487,0.808294 -13.02456,7.868888 -16.27734,17.66211 -1.58533,5.184292 -2.2669,10.609264 -1.375,15.978515 l 3.26172,-4.998047 c 4.72309,-10.137619 13.17189,-17.52539 20.04296,-17.52539 2.94972,0 5.36328,-0.261152 5.36328,-0.580078 0,-2.583284 -3.13778,-7.666097 -5.81445,-9.419922 -0.8346,-0.546851 -1.73016,-0.898913 -2.66601,-1.070313 -0.81887,-0.14997 -1.66732,-0.16238 -2.53516,-0.04687 z m -104.43164,8.541016 c -7.57863,-0.151698 -15.30789,0.85753 -22.2793,3.044922 -22.76222,7.142014 -36.73591,17.742133 -72.94531,55.332024 -12.46457,13.4452 -26.34123,31.4671 -47.01563,26.25196 -9.64787,-2.77076 -14.7695,-12.85636 -6.19335,-20.68946 4.7608,-4.34832 3.85201,-10.340686 -0.50196,-7.791006 -13.837,8.102936 -11.88466,35.081846 9.99805,35.091786 7.67115,0.003 6.10334,1.71928 -5.59961,6.12696 -34.46918,12.9821 -65.76691,4.6576 -72.19141,-19.20117 -2.53748,-9.42351 2.0738,-21.778576 9.57618,-25.658206 6.76503,-3.49834 11.72904,-2.513 17.4082,3.45703 5.80759,6.105036 6.78664,4.332506 2.60742,-4.72265 -13.37641,-28.982641 -53.48047,-8.91608 -53.48047,26.759756 0,4.76271 0.9,10.8146 2,13.44727 1.1,2.63267 2,4.93083 2,5.10742 0,0.17658 -2.62028,-0.54157 -5.82226,-1.5957 -19.106764,-6.29019 -32.660464,14.98611 -20.470714,32.13476 l 2.74024,3.85157 1.60351,-6.31446 c 0.88202,-3.47372 3.1954,-7.90828 5.14063,-9.85351 4.95531,-4.95532 15.405284,-4.92029 27.724614,0.0918 10.3677,4.21803 24.87156,6.85682 29.09375,5.29493 2.61,-0.9655 2.29181,-1.27582 -2.8711,-2.81836 -21.50614,-6.42547 -35.41065,-23.30095 -32.40429,-39.32618 0.95099,-5.06928 3.26562,-6.58524 3.26562,-2.13867 0,1.45183 1.00063,5.20053 2.22461,8.33203 11.86573,30.35798 50.21466,40.44071 87.77539,23.07813 14.2657,-6.59436 24.66756,-15.34273 41.875,-35.2207 31.13242,-35.964026 55.86782,-54.719923 80.48047,-61.025391 32.43189,-8.308667 64.18177,20.662701 50.86524,46.414061 -5.32808,10.30337 -21.20074,15.25628 -27.78711,8.66992 -7.48023,-7.48023 -1.18194,-20.888666 9.8125,-20.888666 5.01251,0 2.38842,-6.74133 -3.88672,-9.98633 -11.59094,-5.993919 -24.02539,4.54149 -24.02539,20.35351 0,22.765456 24.99702,35.298236 46.76757,23.449216 15.41804,-8.39155 21.3983,-27.877126 14.35352,-46.765617 -4.03044,-10.806451 -17.36685,-24.106002 -28.45508,-28.375 -6.37541,-2.45455 -13.80418,-3.766271 -21.38281,-3.917969 z m 153.49609,0 c -7.57863,0.151698 -15.0074,1.463419 -21.38281,3.917969 -11.08823,4.268998 -24.42464,17.568549 -28.45508,28.375 -7.04478,18.888491 -1.06452,38.374067 14.35352,46.765617 21.77055,11.84902 46.76758,-0.68374 46.76758,-23.449216 0,-15.81202 -12.43445,-26.347429 -24.02539,-20.35351 -6.27514,3.245 -8.89923,9.98633 -3.88672,9.98633 10.99444,0 17.29273,13.408436 9.8125,20.888666 -6.58637,6.58636 -22.45903,1.63345 -27.78711,-8.66992 -13.31653,-25.751358 18.43334,-54.722728 50.86523,-46.414061 24.61265,6.305468 49.34805,25.061365 80.48047,61.025391 17.20744,19.87797 27.6093,28.62634 41.875,35.2207 37.56073,17.36258 75.90966,7.27985 87.77539,-23.07813 1.22398,-3.1315 2.22461,-6.8802 2.22461,-8.33203 0,-4.44657 2.31464,-2.93061 3.26563,2.13867 3.00636,16.02523 -10.89816,32.90071 -32.4043,39.32618 -5.16291,1.54254 -5.4811,1.85286 -2.87109,2.81836 4.22217,1.56189 18.72604,-1.0769 29.09374,-5.29493 12.31935,-5.01201 22.7693,-5.04704 27.72461,-0.0918 1.94523,1.94523 4.25861,6.37979 5.14063,9.85351 l 1.60352,6.31446 2.74023,-3.85157 c 12.18975,-17.14865 -1.36394,-38.42495 -20.4707,-32.13476 -3.20198,1.05413 -5.82227,1.77228 -5.82227,1.5957 0,-0.17659 0.9,-2.47475 2,-5.10742 1.1,-2.63267 2,-8.68456 2,-13.44727 0,-35.675836 -40.10406,-55.742399 -53.48047,-26.759756 -4.17922,9.055156 -3.20017,10.827686 2.60742,4.72265 5.67916,-5.97003 10.64318,-6.95537 17.40821,-3.45703 7.50238,3.87963 12.11365,16.234696 9.57617,25.658206 -6.4245,23.85877 -37.72223,32.18327 -72.19141,19.20117 -11.70295,-4.40768 -13.27076,-6.12396 -5.59961,-6.12696 21.88271,-0.01 23.83505,-26.98885 9.99805,-35.091786 -4.35397,-2.54968 -5.26275,3.442686 -0.50195,7.791006 8.57615,7.8331 3.45451,17.9187 -6.19336,20.68946 -20.6744,5.21514 -34.55106,-12.80676 -47.01563,-26.25196 -36.2094,-37.589891 -50.18309,-48.19001 -72.94531,-55.332024 -6.97141,-2.187392 -14.70067,-3.19662 -22.2793,-3.044922 z M 422.0392,64.951433 c -1.01194,0.087 -1.97637,0.387349 -3.53125,1.191406 -11.28878,5.837651 -6.49045,19.091805 3.53125,19.263675 10.0217,-0.17187 14.82003,-13.426024 3.53125,-19.263675 -1.55488,-0.804057 -2.51931,-1.104406 -3.53125,-1.191406 z m -90.69922,3.662109 c -21.51436,-0.311657 -46.48716,16.912842 -71.09961,49.041008 -14.86847,19.40872 -29.4911,33.90367 -38.37891,38.04102 -7.17094,3.33812 -7.17782,3.3463 -2.52148,3.33008 2.56667,-0.009 7.27919,-1.20023 10.4707,-2.64844 8.67686,-3.93731 15.12918,-9.57213 27.74609,-24.22656 6.27105,-7.28378 11.62799,-13.01654 11.9043,-12.74024 0.27631,0.27631 -1.54465,6.45793 -4.04687,13.73633 -3.32517,9.67217 -5.65769,14.22222 -8.66602,16.91016 -2.87431,2.5682 -3.46726,3.67773 -1.9668,3.67773 6.71342,0 14.50457,-9.85656 17.91016,-22.6582 1.90123,-7.14677 5.74639,-15.06349 10.20313,-21.00781 4.04471,-5.39478 2.58042,-5.43289 -7.92579,-0.20703 l -8.29492,4.125 12,-12.20704 c 18.60677,-18.928046 36.68876,-29.838752 52.95117,-31.951164 l 8.38282,-1.089844 z m 181.39843,0 -8.66796,0.125 8.38281,1.089844 c 16.26241,2.112412 34.3444,13.023118 52.95117,31.951164 l 12,12.20704 -8.29492,-4.125 c -10.50621,-5.22585 -11.97049,-5.18775 -7.92578,0.20703 4.45673,5.94432 8.30189,13.86104 10.20312,21.00781 3.40559,12.80164 11.19674,22.6582 17.91016,22.6582 1.50046,0 0.90751,-1.10953 -1.9668,-3.67773 -3.00833,-2.68794 -5.34084,-7.23799 -8.66601,-16.91016 -2.50222,-7.2784 -4.32319,-13.46002 -4.04688,-13.73633 0.27631,-0.2763 5.63325,5.45646 11.9043,12.74024 12.61691,14.65443 19.06923,20.28925 27.74609,24.22656 3.19151,1.44821 7.90403,2.63944 10.4707,2.64844 4.65635,0.0162 4.64946,0.008 -2.52148,-3.33008 -8.88781,-4.13735 -23.51044,-18.6323 -38.37891,-38.04102 C 559.22557,85.526384 534.25278,68.301885 512.73841,68.613542 Z m -90.69921,32.845698 -6.875,6.18164 c -36.33545,32.66868 -104.5154,57.13415 -185.82422,66.6836 -1.0902,0.12804 -3.15306,0.27319 -4.36133,0.40625 8.08331,3.97617 16.07591,8.92269 23.64453,14.22656 68.9077,-10.01807 119.98921,-27.34494 159.46484,-54.08008 l 13.95118,-9.44727 13.95117,9.44727 c 39.48584,26.74206 90.58462,44.06912 159.51953,54.08594 7.56785,-5.30388 15.56166,-10.24959 23.64453,-14.22656 -1.22484,-0.13481 -3.31212,-0.28247 -4.41602,-0.41211 -81.3088,-9.54945 -149.48876,-34.01492 -185.82421,-66.6836 z m -107.42774,11.16992 c -3.98966,-0.15063 -8.20578,0.63306 -11.82031,2.38282 -6.96302,3.37074 -11.44916,8.63404 -19.36524,22.72265 -3.09032,5.5 -7.22404,11.72487 -9.18554,13.83399 l -3.56641,3.83593 4,-2.03711 c 2.2,-1.12027 8.20065,-7.62995 13.33399,-14.46679 13.49098,-17.96801 21.09517,-22.0741 29.15234,-15.73633 4.06636,3.19861 4.63273,8.45752 1.30664,12.13281 -4.04026,4.46443 -9.79297,2.21375 -9.79297,-3.83008 0,-3.39201 -1.29713,-3.90012 -3.73242,-1.46484 -4.36756,4.36756 -0.26984,13.53675 6.93945,15.52734 18.17191,5.0175 28.56205,-18.3688 13.18555,-29.67773 -2.70347,-1.98831 -6.46542,-3.07202 -10.45508,-3.22266 z m 214.85547,0 c -3.98966,0.15064 -7.75161,1.23435 -10.45508,3.22266 -15.3765,11.30893 -4.98636,34.69523 13.18555,29.67773 7.20929,-1.99059 11.30701,-11.15978 6.93945,-15.52734 -2.43529,-2.43528 -3.73242,-1.92717 -3.73242,1.46484 0,6.04383 -5.75271,8.29451 -9.79297,3.83008 -3.32609,-3.67529 -2.75972,-8.9342 1.30664,-12.13281 8.05717,-6.33777 15.66137,-2.23168 29.15235,15.73633 5.13334,6.83684 11.13398,13.34652 13.33398,14.46679 l 4,2.03711 -3.56641,-3.83593 c -1.9615,-2.10912 -6.09522,-8.33399 -9.18554,-13.83399 -7.91607,-14.08861 -12.40222,-19.35191 -19.36524,-22.72265 -3.61453,-1.74976 -7.83065,-2.53345 -11.82031,-2.38282 z M 83.183726,124.40065 c -4.13861,0 -2.29415,3.10734 2.92383,4.92578 5.42359,1.89009 9.23242,2.15933 9.23242,0.6543 0,-1.51788 -8.84964,-5.58008 -12.15625,-5.58008 z m 677.710944,0 c -3.30661,0 -12.15624,4.0622 -12.15626,5.58008 0,1.50503 3.80884,1.23579 9.23243,-0.6543 5.21798,-1.81844 7.06243,-4.92578 2.92383,-4.92578 z m -589.28711,54.82422 c -7.08905,0.45832 -16.3559,1.17568 -19.26758,1.17578 h -7.66602 l -0.006,19.66797 c -0.007,35.73411 -5.17258,129.89621 -12.01562,219 -4.87441,63.47021 -5.28849,73.19974 -3.95703,92.99804 3.2847,48.84227 20.17943,91.61634 52.41015,133.15821 4.55093,5.74929 14.34033,17.88347 23.14649,27.15234 34.30576,36.10833 90.66942,76.46491 144.50586,103.4668 12.36544,6.20193 34.88729,16.1801 44.80468,20.12304 4.36144,-6.1839 6.00974,-11.59021 14.0918,-13.50781 -1.4891,-0.54211 -2.78409,-0.93625 -4.31445,-1.53515 -58.6558,-22.95553 -121.50054,-61.62937 -166.25719,-101.84975 -3.39878,-3.0543 -40.98979,-42.12955 -50.63232,-56.21172 -23.61551,-33.58702 -36.61617,-68.41157 -40.64174,-108.53814 -1.70814,-17.0266 -1.49942,-21.96252 4.10547,-97.25586 3.68448,-49.49548 6.45484,-95.56125 8.60742,-137.06055 -7.10214,-21.46178 -10.7303,-46.21187 -2.84766,-71.96094 3.26895,-9.7566 8.54274,-20.60505 15.9336,-28.82226 z m 500.93164,0.004 c 7.38904,8.21679 12.6632,19.06327 15.93164,28.81836 7.90345,25.81705 4.23327,50.62817 -2.90625,72.12891 2.15223,41.46176 4.92016,87.4647 8.59961,136.89258 5.60489,75.29334 5.81362,80.22926 4.10547,97.25586 -4.30152,42.87703 -18.85234,79.70018 -45.64976,115.42853 -13.04527,18.66196 -32.23238,37.00808 -40.7358,44.86155 -45.05264,41.50556 -110.86067,82.71647 -171.1457,106.30953 -4.71049,1.84349 -6.91399,2.627 -10.51171,3.71289 9.64773,3.78327 14.29527,7.83204 17.96875,12.29101 8.14243,-3.04146 33.94089,-14.47144 47.125,-21.08398 51.74287,-25.95185 105.81949,-64.24019 140.40429,-99.23633 4.72409,-4.6843 9.0094,-9.78243 13.36914,-14.80078 5.5125,-6.3551 11.82299,-13.74716 13.90235,-16.61328 32.21496,-41.53217 49.10284,-84.29682 52.38672,-133.12696 1.33146,-19.7983 0.91738,-29.52783 -3.95704,-92.99804 -6.84302,-89.10379 -12.00862,-183.26589 -12.01562,-219 l -0.006,-19.66797 h -7.66602 c -2.90134,-10e-5 -12.14552,-0.71644 -19.19921,-1.17188 z m -572.42579,4.35938 c -8.562344,-0.22448 -14.644054,10.24661 -11.476564,22.00976 3.28807,12.21096 16.845434,21.1073 26.851564,17.61914 2.35643,-0.82145 4.58374,-1.19555 4.94922,-0.83007 1.75177,1.75177 -5.09728,6.29836 -13.06054,8.66992 -5.0705,1.51007 -10.181424,4.03748 -11.929694,5.89843 l -3.05859,3.25586 4.4746,0.54883 c 9.839774,1.20553 16.128004,0.879 19.814464,-1.02734 4.58519,-2.37109 10.92154,-11.21583 13.33398,-18.61328 2.01761,-6.18677 2.48743,-23.08001 0.85547,-30.71875 l -1.13867,-5.33203 -2.48242,8.02734 c -5.02516,16.25464 -18.08516,22.57167 -26.70899,12.91992 -5.871554,-6.57141 -4.427624,-12.41843 3.5625,-14.42383 4.38675,-1.101 4.2731,-5.53138 -0.18554,-7.22656 -1.30474,-0.49606 -2.57758,-0.74528 -3.80079,-0.77734 z m 643.85157,0 c -1.2232,0.0321 -2.49604,0.28128 -3.80078,0.77734 -4.45864,1.69518 -4.5723,6.12556 -0.18555,7.22656 7.99012,2.0054 9.43405,7.85242 3.5625,14.42383 -8.62383,9.65175 -21.68382,3.33472 -26.70898,-12.91992 l -2.48243,-8.02734 -1.13867,5.33203 c -1.63196,7.63874 -1.16214,24.53198 0.85547,30.71875 2.41244,7.39745 8.74879,16.24219 13.33398,18.61328 3.68646,1.90634 9.97471,2.23287 19.81446,1.02734 l 4.47461,-0.54883 -3.0586,-3.25586 c -1.74827,-1.86095 -6.85918,-4.38836 -11.92968,-5.89843 -7.96326,-2.37156 -14.81232,-6.91815 -13.06055,-8.66992 0.36548,-0.36548 2.59281,0.009 4.94922,0.83007 10.00613,3.48816 23.56349,-5.40818 26.85156,-17.61914 3.16749,-11.76315 -2.91422,-22.23424 -11.47656,-22.00976 z M 68.652476,203.66247 c -11.42469,0.64886 -24.03659,8.28689 -28.78516,22.40234 -10.77297,32.02338 17.29497,64.98822 49.64844,58.31055 13.367054,-2.75891 23.718274,-10.04589 34.060554,-23.97461 l 3.46484,-4.66602 -4.00586,12 c -4.91376,14.71966 -5.84702,23.90195 -3.71484,36.54297 1.93448,11.4689 3.09706,10.95653 5.86718,-2.58008 1.12965,-5.5202 2.36295,-19.1988 2.74024,-30.39843 0.41508,-12.3214 1.4363,-22.57617 2.58594,-25.96485 2.80743,-8.2752 4.10636,-19.72688 1.86328,-16.42383 -6.71263,9.8847 -20.20843,26.18916 -24.51758,29.61914 -19.770874,15.73717 -41.731324,13.11451 -50.035164,-5.97461 -2.44851,-5.62871 -2.63774,-5.76068 -5.08398,-3.54687 -2.43563,2.20422 -2.63464,2.11893 -4.79492,-2.05859 -4.56537,-8.82845 0.74742,-26.41389 9.84765,-32.59766 12.60523,-8.56547 25.16468,1.19969 17.88086,13.90234 -2.26787,3.95505 -2.25301,4.14954 0.54492,6.94922 6.21269,6.21657 14.09571,-0.4965 14.09571,-12.0039 0,-13.84576 -10.23743,-20.18596 -21.66211,-19.53711 z m 706.773434,0 c -11.42466,-0.64885 -21.6621,5.69135 -21.6621,19.53711 0,11.5074 7.88301,18.22047 14.0957,12.0039 2.79793,-2.79968 2.81279,-2.99417 0.54492,-6.94922 -7.28382,-12.70265 5.27563,-22.46781 17.88086,-13.90234 9.10023,6.18377 14.41303,23.76921 9.84766,32.59766 -2.16028,4.17752 -2.3593,4.26281 -4.79493,2.05859 -2.44624,-2.21381 -2.63547,-2.08184 -5.08398,3.54687 -8.30384,19.08912 -30.26429,21.71178 -50.03516,5.97461 -4.30915,-3.42998 -17.80494,-19.73444 -24.51757,-29.61914 -2.24308,-3.30305 -0.94415,8.14863 1.86328,16.42383 1.14964,3.38868 2.17085,13.64343 2.58593,25.96485 0.37729,11.19963 1.61059,24.87823 2.74024,30.39843 2.77012,13.53661 3.93271,14.04898 5.86719,2.58008 2.13218,-12.64102 1.19891,-21.82331 -3.71485,-36.54297 l -4.00586,-12 3.46485,4.66602 c 10.34228,13.92872 20.69349,21.2157 34.06054,23.97461 32.35347,6.67767 60.42141,-26.28717 49.64844,-58.31055 -4.74857,-14.11545 -17.36046,-21.75348 -28.78516,-22.40234 z M 47.062626,280.1234 c -1.24863,0.39767 -2.67924,2.30562 -4.47656,5.78125 -5.35109,10.34788 1.95323,25.73807 13.60352,28.66211 2.40838,0.60447 3.06279,1.422 2.40429,3 -2.34215,5.6127 -3.47293,12.43725 -2.61914,15.79883 l 0.93946,3.70313 2.72656,-5.33399 c 1.49992,-2.93333 4.46873,-7.54797 6.59765,-10.25586 2.66408,-3.38855 6.24512,-5.80833 11.48633,-7.75976 14.12268,-5.25822 27.511104,-16.16707 33.117194,-26.98438 2.3981,-4.62728 1.75442,-4.59404 -4.94336,0.25781 -18.297334,13.25451 -48.189674,11.29893 -55.449224,-3.59179 -1.07057,-2.56225 -2.13809,-3.67502 -3.38672,-3.27735 z m 749.953134,0 c -1.24863,-0.39767 -2.31615,0.7151 -3.38672,3.27735 -7.25955,14.89072 -37.15189,16.8463 -55.44922,3.59179 -6.69778,-4.85185 -7.34146,-4.88509 -4.94336,-0.25781 5.60609,10.81731 18.99451,21.72616 33.11719,26.98438 5.24121,1.95143 8.82227,4.37121 11.48633,7.75976 2.12892,2.70789 5.09773,7.32253 6.59765,10.25586 l 2.72657,5.33399 0.93945,-3.70313 c 0.85379,-3.36158 -0.27699,-10.18613 -2.61914,-15.79883 -0.6585,-1.578 -0.004,-2.39553 2.4043,-3 11.65029,-2.92404 18.9546,-18.31423 13.60351,-28.66211 -1.79732,-3.47563 -3.22793,-5.38358 -4.47656,-5.78125 z M 88.966926,318.13708 c -10.97725,0.20685 -21.37209,6.29418 -28.16211,17.54492 -7.2203,11.96368 -7.04011,21.05789 0.65039,32.85351 2.16077,3.31418 2.13294,3.63872 -0.63086,7.37696 -9.33994,12.63295 -3.10328,28.58405 16.29492,41.67382 12.25775,8.27144 23.137454,20.00172 28.951184,31.21485 2.50038,4.82256 4.75804,8.55641 5.01562,8.29883 0.25759,-0.25758 -0.48944,-4.20564 -1.66016,-8.77539 -2.90805,-11.35125 -7.4437,-19.20395 -19.015624,-32.92579 -12.86887,-15.25977 -17.73633,-24.90707 -17.73633,-35.14843 0,-4.24835 0.69832,-9.25406 1.55078,-11.125 2.17214,-4.76733 0.44567,-5.71654 -4.17968,-2.29688 -5.22942,3.86628 -5.37189,3.79444 -5.36329,-2.75976 0.0182,-13.88922 8.21345,-25.82938 19.88672,-28.97266 11.88045,-3.19908 28.062654,9.69747 23.423834,18.66797 -2.84595,5.50344 -10.632024,7.34402 -13.984374,3.30469 -4.65948,-5.61433 -10.03431,2.62575 -5.60547,8.59375 3.77632,5.0887 8.16314,6.9164 15.195314,6.33203 8.25548,-0.68603 12.74178,-3.83041 16.01172,-11.22266 5.80597,-13.12534 1.26396,-28.32639 -10.90625,-36.5 -6.35265,-4.26648 -13.149984,-6.25886 -19.736334,-6.13476 z m 666.144534,0 c -6.58635,-0.1241 -13.38368,1.86828 -19.73633,6.13476 -12.17021,8.17361 -16.71222,23.37466 -10.90625,36.5 3.26994,7.39225 7.75624,10.53663 16.01172,11.22266 7.03217,0.58437 11.41901,-1.24333 15.19531,-6.33203 4.42886,-5.968 -0.94598,-14.20808 -5.60546,-8.59375 -3.35235,4.03933 -11.13843,2.19875 -13.98438,-3.30469 -4.63882,-8.9705 11.54338,-21.86705 23.42383,-18.66797 11.67327,3.14328 19.86852,15.08344 19.88672,28.97266 0.009,6.5542 -0.13386,6.62604 -5.36328,2.75976 -4.62535,-3.41966 -6.35183,-2.47045 -4.17969,2.29688 0.85246,1.87094 1.55078,6.87665 1.55078,11.125 0,10.24136 -4.86746,19.88866 -17.73633,35.14843 -11.57192,13.72184 -16.10757,21.57454 -19.01562,32.92579 -1.17072,4.56975 -1.91775,8.51781 -1.66016,8.77539 0.25758,0.25758 2.51525,-3.47627 5.01563,-8.29883 5.81373,-11.21313 16.69342,-22.94341 28.95117,-31.21485 19.3982,-13.08977 25.63486,-29.04087 16.29492,-41.67382 -2.7638,-3.73824 -2.79163,-4.06278 -0.63086,-7.37696 7.6905,-11.79562 7.87069,-20.88983 0.65039,-32.85351 -6.79002,-11.25074 -17.18486,-17.33807 -28.16211,-17.54492 z M 37.187626,349.73864 c -0.0849,0.001 -1.74812,2.29872 -3.69726,5.11133 -7.745133,11.17628 -7.211643,20.70313 1.95312,34.88281 2.8444,4.40084 4.73517,8.05593 4.20118,8.12109 -0.53401,0.0652 -3.74405,0.0247 -7.13282,-0.0898 -17.060221,-0.57651 -27.917958,16.09572 -17.359372,26.6543 l 3.810546,3.81054 -5.21875,5.08594 c -2.87041,2.79743 -7.096456,8.89362 -9.390625,13.54688 -13.327089,27.03122 5.789974,61.37661 32.302731,58.03515 3.29034,-0.41469 7.491,-1.5387 9.33399,-2.49805 4.74583,-2.47037 8.88818,-7.2312 11.28711,-12.97265 2.62628,-6.28558 2.60062,-10.28848 -0.0996,-17.03711 -3.45672,-8.63918 -10.08423,-10.53101 -16.03711,-4.57813 -3.56928,3.56928 -3.54397,3.12369 -0.95899,17.51368 0.61025,3.39714 0.0745,4.94697 -2.64648,7.66796 -9.35078,9.35078 -24.887071,-2.55302 -26.925781,-20.6289 -0.995581,-8.82716 1.501389,-13.86087 5.308593,-10.70117 2.686673,2.22974 3.898538,1.07405 6.103516,-5.81641 2.183604,-6.82366 10.945182,-16.2282 16.970702,-18.2168 19.51681,-6.44113 46.28049,7.23303 67.179694,34.32227 3.04848,3.95141 5.82039,6.90812 6.1582,6.57031 2.72213,-2.72213 -12.17909,-32.89088 -21.027344,-42.57226 -14.47129,-15.8339 -38.32215,-22.4028 -57.65235,-15.87696 l -7.644527,2.58203 v -4.36328 c 0,-7.90788 4.945557,-10.30655 19.699217,-9.55468 l 12.36524,0.6289 -2.28516,-3.48242 c -12.56568,-19.15032 -18.03692,-33.06449 -18.27539,-46.48047 -0.0945,-5.31495 -0.23866,-9.66167 -0.32227,-9.66406 z m 769.703134,0 c -0.0836,0.002 -0.22777,4.34911 -0.32227,9.66406 -0.23847,13.41598 -5.70971,27.33015 -18.27539,46.48047 l -2.28515,3.48242 12.36523,-0.6289 c 14.75366,-0.75187 19.69922,1.6468 19.69922,9.55468 v 4.36328 l -7.64453,-2.58203 c -19.3302,-6.52584 -43.18106,0.0431 -57.65235,15.87696 -8.84825,9.68138 -23.74947,39.85013 -21.02734,42.57226 0.33781,0.33781 3.10972,-2.6189 6.1582,-6.57031 20.8992,-27.08924 47.66288,-40.7634 67.17969,-34.32227 6.02552,1.9886 14.7871,11.39314 16.9707,18.2168 2.20498,6.89046 3.41685,8.04615 6.10352,5.81641 3.8072,-3.1597 6.30417,1.87401 5.30859,10.70117 -2.03871,18.07588 -17.575,29.97968 -26.92578,20.6289 -2.72098,-2.72099 -3.25673,-4.27082 -2.64648,-7.66796 2.58498,-14.38999 2.61029,-13.9444 -0.95899,-17.51368 -5.95288,-5.95288 -12.58039,-4.06105 -16.03711,4.57813 -2.7003,6.74863 -2.72596,10.75153 -0.0996,17.03711 2.39893,5.74145 6.54128,10.50228 11.28711,12.97265 1.84299,0.95935 6.04365,2.08336 9.33399,2.49805 26.51277,3.34146 45.62982,-31.00394 32.30273,-58.03515 -2.29417,-4.65324 -6.52021,-10.74945 -9.39062,-13.54688 l -5.21875,-5.08594 3.81054,-3.81054 c 10.55859,-10.55858 -0.29915,-27.23081 -17.35937,-26.6543 -3.38877,0.1145 -6.5988,0.15532 -7.13281,0.0898 -0.534,-0.0652 1.35677,-3.72025 4.20117,-8.12109 9.16477,-14.17968 9.69828,-23.70653 1.95312,-34.88281 -1.94914,-2.81261 -3.61236,-5.11033 -3.69726,-5.11133 z m -685.14258,23.36133 -1.75586,5.11132 c -0.96621,2.81054 -3.00793,6.44063 -4.53711,8.06836 -6.29273,6.69831 0.0163,12.65759 6.51758,6.15625 4.01533,-4.01532 4.72523,-8.95342 2.08398,-14.49218 z m 600.58203,0 -2.30859,4.84375 c -2.64125,5.53876 -1.93135,10.47686 2.08398,14.49218 6.50128,6.50134 12.81031,0.54206 6.51758,-6.15625 -1.52918,-1.62773 -3.5709,-5.25782 -4.53711,-8.06836 z M 99.064586,383.39869 c -0.0888,-0.13642 -0.39594,0.21169 -0.94922,1.00196 -0.77014,1.1 -1.41065,5.32542 -1.42188,9.38867 -0.0174,6.31694 1.13202,9.7692 7.919924,23.81836 5.72579,11.85083 8.41448,19.26363 9.64649,26.5957 1.66761,9.92452 1.72958,10.03887 2.65039,4.84766 0.51874,-2.92452 0.97727,-9.27202 1.01953,-14.10547 0.10435,-11.93443 -2.47485,-19.59276 -9.69726,-28.79102 -7.15118,-9.10755 -10.664814,-16.79716 -9.529304,-20.85156 0.32116,-1.14673 0.45017,-1.76788 0.36133,-1.9043 z m 645.949224,0 c -0.0888,0.13642 0.0402,0.75757 0.36132,1.9043 1.13551,4.0544 -2.37811,11.74401 -9.52929,20.85156 -7.22241,9.19826 -9.80162,16.85659 -9.69727,28.79102 0.0423,4.83345 0.50079,11.18095 1.01953,14.10547 0.92081,5.19121 0.98278,5.07686 2.65039,-4.84766 1.23201,-7.33207 3.92071,-14.74487 9.64649,-26.5957 6.78791,-14.04916 7.93732,-17.50142 7.91992,-23.81836 -0.0112,-4.06325 -0.65174,-8.28867 -1.42188,-9.38867 -0.55328,-0.79027 -0.86041,-1.13838 -0.94921,-1.00196 z M 62.379036,460.22877 c -0.60316,0.47701 0.39726,3.11414 2.94141,8.13477 4.08221,8.05585 9.79601,12.54511 20.85351,16.38672 l 8.5,2.95312 -9.33594,0.74414 c -16.22286,1.29315 -27.00077,10.61761 -29.83984,25.81446 -4.38119,23.45134 23.08691,45.82909 37.97656,30.93945 7.673504,-7.67351 5.48828,-18.9568 -4.29492,-22.18555 -3.79005,-1.25083 -5.18246,-1.14608 -7.84375,0.59766 -6.71647,4.4008 -9.99609,1.37462 -9.99609,-9.22656 0,-13.89382 13.58404,-18.31142 30.427734,-9.89454 8.54489,4.26994 11.85545,7.83363 16.23242,17.47852 2.98511,6.57784 3.24447,4.79064 1.28907,-8.90234 -2.57002,-17.997 -13.09104,-31.94381 -28.062504,-37.20313 -10.59527,-3.722 -19.16491,-8.24589 -24.50391,-12.93359 -1.39141,-1.22167 -2.45747,-2.0515 -3.20312,-2.46875 -0.55926,-0.31294 -0.93958,-0.39338 -1.14063,-0.23438 z m 719.320314,0 c -0.20105,-0.159 -0.58136,-0.0786 -1.14062,0.23438 -0.74567,0.41725 -1.81172,1.24708 -3.20313,2.46875 -5.339,4.6877 -13.90863,9.21159 -24.5039,12.93359 -14.97146,5.25932 -25.49248,19.20613 -28.0625,37.20313 -1.9554,13.69298 -1.69605,15.48018 1.28906,8.90234 4.37697,-9.64489 7.68753,-13.20858 16.23242,-17.47852 16.84369,-8.41688 30.42774,-3.99928 30.42773,9.89454 0,10.60118 -3.27962,13.62736 -9.99609,9.22656 -2.66129,-1.74374 -4.0537,-1.84849 -7.84375,-0.59766 -9.7832,3.22875 -11.96842,14.51204 -4.29492,22.18555 14.88965,14.88964 42.35775,-7.48811 37.97656,-30.93945 -2.83907,-15.19685 -13.61698,-24.52131 -29.83984,-25.81446 l -9.33594,-0.74414 8.5,-2.95312 c 11.0575,-3.84161 16.77131,-8.33087 20.85352,-16.38672 2.54415,-5.02063 3.54456,-7.65776 2.9414,-8.13477 z M 116.54115,566.4944 c -1.57061,-0.0805 -3.15078,0.11713 -4.67188,0.61914 -11.0675,3.6526 -11.0636,19.95508 0.006,19.95508 5.39931,0 8.44769,-3.15199 9.02735,-9.33399 l 0.4375,-4.66601 3.55078,3.73437 c 3.77991,3.9774 7.16771,15.08869 6.09375,19.98438 -0.35567,1.62135 -1.59163,5.1071 -2.7461,7.74609 -4.1984,9.59723 3.81773,11.95179 6.83594,8.93359 4.18207,-4.18207 0.19175,-28.76154 -6.4082,-39.47851 -2.77767,-4.51038 -7.41319,-7.2526 -12.125,-7.49414 z m 610.99609,0 c -4.71181,0.24154 -9.34733,2.98376 -12.125,7.49414 -6.59995,10.71697 -10.59027,35.29644 -6.4082,39.47851 3.01821,3.0182 11.03436,0.66364 6.83594,-8.93359 -1.15447,-2.63899 -2.39043,-6.12474 -2.7461,-7.74609 -1.07396,-4.89569 2.31384,-16.00698 6.09375,-19.98438 l 3.55078,-3.73437 0.4375,4.66601 c 0.57966,6.182 3.62804,9.33399 9.02735,9.33399 11.06848,0 11.07238,-16.30248 0.006,-19.95508 -1.5211,-0.50201 -3.10127,-0.69964 -4.67188,-0.61914 z m -614.875,44.85351 c -2.0223,-0.27156 -4.68053,1.14104 -5.375,1.76953 -1.7783,1.60934 -2.43607,3.82491 -2.25,5.94532 0.32424,3.69512 3.21033,7.10267 7.18946,6.51953 5.07152,-0.74323 8.23606,1.84328 15.04101,12.29101 4.8699,7.47684 8.87292,11.94103 13.13281,14.64258 7.17886,4.55269 7.43478,4.62106 5.76368,1.55274 -0.69895,-1.28333 -3.4824,-4.43333 -6.18555,-7 -2.70315,-2.56667 -7.79392,-8.86667 -11.3125,-14 -3.51857,-5.13333 -7.65686,-10.37814 -9.19531,-11.6543 -1.53847,-1.27614 -2.79688,-3.81409 -2.79688,-5.64063 0,-2.50747 -1.7813,-4.12628 -4.01172,-4.42578 z m 618.75391,0 c -2.23042,0.2995 -4.01172,1.91831 -4.01172,4.42578 0,1.82654 -1.2584,4.36449 -2.79687,5.64063 -1.53845,1.27616 -5.67675,6.52097 -9.19532,11.6543 -3.51858,5.13333 -8.60935,11.43333 -11.3125,14 -2.70315,2.56667 -5.48659,5.71667 -6.18554,7 -1.6711,3.06832 -1.41519,2.99995 5.76367,-1.55274 4.25989,-2.70155 8.26291,-7.16574 13.13281,-14.64258 6.80495,-10.44773 9.9695,-13.03424 15.04102,-12.29101 3.97913,0.58314 6.86521,-2.82441 7.18945,-6.51953 0.18607,-2.12041 -0.4717,-4.33598 -2.25,-5.94532 -0.69447,-0.62849 -3.3527,-2.04109 -5.375,-1.76953 z m -584.69141,7.28907 c -0.62222,0.17385 -1.60756,1.19511 -3.49609,3.21679 -2.97904,3.18907 -4.72709,4.03192 -7.33594,3.53321 -3.12339,-0.59707 -3.34981,-0.34744 -2.57422,2.8457 1.2186,5.01703 7.44847,12.40326 13.05078,15.4707 6.07451,3.32599 6.82951,2.52165 4.31836,-4.5957 -3.45075,-9.78048 -2.18894,-10.41057 2.82032,-1.41016 12.23774,21.98819 22.58073,33.72539 37.55664,42.61914 4.91848,2.92094 9.00957,5.33593 9.09179,5.36524 0.0822,0.0293 -6.54152,-6.69727 -14.7207,-14.94727 -13.97825,-14.09927 -34.80781,-42.07459 -37.39453,-50.22461 -0.43556,-1.37232 -0.69419,-2.04689 -1.31641,-1.87304 z m 550.62891,0 c -0.62222,-0.17385 -0.88085,0.50072 -1.31641,1.87304 -2.58672,8.15002 -23.41628,36.12534 -37.39453,50.22461 -8.17918,8.25 -14.8029,14.97657 -14.7207,14.94727 0.0822,-0.0293 4.17332,-2.4443 9.0918,-5.36524 14.97591,-8.89375 25.3189,-20.63095 37.55664,-42.61914 5.00926,-9.00041 6.27106,-8.37032 2.82031,1.41016 -2.51115,7.11735 -1.75615,7.92169 4.31836,4.5957 5.60231,-3.06744 11.83218,-10.45367 13.05078,-15.4707 0.77559,-3.19314 0.54917,-3.44277 -2.57422,-2.8457 -2.60885,0.49871 -4.3569,-0.34414 -7.33594,-3.53321 -1.88853,-2.02168 -2.87387,-3.04294 -3.49609,-3.21679 z m -550.75781,47.09765 c -1.61656,0 -1.72766,0.53993 -0.56055,2.7207 1.59742,2.98483 3.23286,2.9571 -33.76172,0.54883 l -10.40039,-0.67578 1.61523,3.03711 c 2.63974,4.9674 18.49385,20.74075 25.11915,24.99219 13.59484,8.72378 28.81969,9.9315 56.40039,4.47265 10.08333,-1.99572 18.32957,-3.95785 18.32617,-4.36132 -0.01,-1.15271 -41.55228,-10.60769 -59.99414,-13.6543 -21.61586,-3.57096 -24.00456,-5.69072 -5.19531,-4.60938 12.45568,0.71607 38.45464,4.83902 44.89453,7.11915 2.40862,0.85281 -6.9708,-6.62255 -13.46875,-10.73438 -4.47646,-2.83264 -20.10201,-8.85547 -22.97461,-8.85547 z m 550.88672,0 c -2.8726,0 -18.49815,6.02283 -22.97461,8.85547 -6.49795,4.11183 -15.87737,11.58719 -13.46875,10.73438 6.43989,-2.28013 32.43885,-6.40307 44.89453,-7.11915 18.80924,-1.08135 16.42054,1.03842 -5.19532,4.60938 -18.44186,3.04661 -59.98414,12.50159 -59.99414,13.6543 -0.003,0.40347 8.24285,2.36561 18.32618,4.36132 27.5807,5.45885 42.80555,4.25113 56.40039,-4.47265 6.6253,-4.25144 22.4794,-20.02479 25.11914,-24.99219 l 1.61523,-3.03711 -10.40039,0.67578 c -36.99458,2.40827 -35.35914,2.436 -33.76172,-0.54883 1.16711,-2.18077 1.05602,-2.7207 -0.56054,-2.7207 z M 95.359506,697.93385 c -2.12864,0.10914 -4.31701,0.49594 -6.68945,1.13477 l -5.97657,1.60937 4.75782,2.44141 c 2.61688,1.34254 7.00394,5.18048 9.74804,8.52929 2.7441,3.34881 6.298234,6.79251 7.898444,7.65235 8.4521,4.54151 20.06358,4.27758 30.67969,-0.69727 12.78708,-5.99219 12.94574,-6.86914 1.24609,-6.86914 -10.07634,0 -10.62462,-0.17078 -20.73437,-6.50195 -8.69362,-5.44434 -14.54378,-7.62624 -20.929694,-7.29883 z m 653.359374,0 c -6.38591,-0.32741 -12.23606,1.85449 -20.92968,7.29883 -10.10975,6.33117 -10.65804,6.50195 -20.73438,6.50195 -11.69965,0 -11.54099,0.87695 1.24609,6.86914 10.61613,4.97485 22.22759,5.23878 30.67969,0.69727 1.60021,-0.85984 5.15434,-4.30354 7.89844,-7.65235 2.7441,-3.34881 7.13117,-7.18675 9.74805,-8.52929 l 4.75781,-2.44141 -5.97656,-1.60937 c -2.37244,-0.63883 -4.56082,-1.02563 -6.68946,-1.13477 z m -546.4375,4.07617 c -6.12852,0.22787 -12.03281,1.41587 -16.81054,3.5293 -7.78794,3.44497 -17.98677,13.64762 -22.1875,22.19531 -4.57286,9.3049 -4.59839,24.89285 -0.0566,35.05078 7.55593,16.90076 29.12493,26.24371 45.13867,19.55274 18.5047,-7.73175 22.59522,-34.78525 6.41992,-42.46094 -5.5876,-2.65148 -7.86717,-2.68194 -12.73242,-0.16602 -8.13569,4.20712 -7.6828,18.27763 0.64453,20.00391 1.81999,0.37729 4.80089,0.99522 6.62305,1.37305 6.97157,1.44559 4.97132,12.41735 -2.80274,15.37304 -5.1149,1.94469 -13.58502,1.52085 -18.76562,-0.9375 -5.61045,-2.66233 -6.9024,-5.31553 -3.72266,-7.64062 2.18657,-1.59885 2.01093,-2.1048 -2.44336,-7.03516 -6.45251,-7.14216 -7.67485,-10.75256 -6.06836,-17.93359 4.27053,-19.08941 21.34031,-31.8285 44.13477,-32.9375 6.40486,-0.3116 11.32371,-1.08631 10.93164,-1.7207 -0.39208,-0.6344 -4.95573,-2.44213 -10.14258,-4.01758 -5.67805,-1.72466 -12.03164,-2.45639 -18.16016,-2.22852 z m 439.51563,0 c -6.12852,-0.22787 -12.48211,0.50386 -18.16016,2.22852 -5.18685,1.57545 -9.7505,3.38318 -10.14258,4.01758 -0.39207,0.63439 4.5268,1.4091 10.93164,1.7207 22.79446,1.109 39.86424,13.84809 44.13477,32.9375 1.60649,7.18103 0.38415,10.79143 -6.06836,17.93359 -4.45429,4.93036 -4.62993,5.43631 -2.44336,7.03516 3.17974,2.32509 1.8878,4.97829 -3.72265,7.64062 -5.1806,2.45835 -13.65073,2.88219 -18.76563,0.9375 -7.77406,-2.95569 -9.7743,-13.92745 -2.80273,-15.37304 1.82216,-0.37783 4.80305,-0.99576 6.62304,-1.37305 8.32733,-1.72628 8.78022,-15.79679 0.64453,-20.00391 -4.86525,-2.51592 -7.14482,-2.48546 -12.73242,0.16602 -16.1753,7.67569 -12.08478,34.72919 6.41992,42.46094 16.01374,6.69097 37.58275,-2.65198 45.13868,-19.55274 4.54147,-10.15793 4.51588,-25.74588 -0.0566,-35.05078 -4.20073,-8.54769 -14.39956,-18.75034 -22.1875,-22.19531 -4.77773,-2.11343 -10.68203,-3.30143 -16.81055,-3.5293 z m -481.5625,11.72461 c -0.57193,0 -7.93612,4.55311 -16.36524,10.11914 -26.37219,17.41445 -41.54124,21.46619 -54.945314,14.67383 -7.86036,-3.98314 -11.5854,-3.24284 -13.05078,2.5957 -2.53509,10.10062 18.9675,14.87344 38.019534,8.43946 11.23503,-3.79412 25.27272,-13.45148 37.41406,-25.74024 5.48165,-5.54821 9.49968,-10.08789 8.92774,-10.08789 z m 523.60937,0 c -0.57194,0 3.44609,4.53968 8.92774,10.08789 12.14134,12.28876 26.17903,21.94612 37.41406,25.74024 19.05203,6.43398 40.55462,1.66116 38.01953,-8.43946 -1.46538,-5.83854 -5.19042,-6.57884 -13.05078,-2.5957 -13.40407,6.79236 -28.57312,2.74062 -54.94531,-14.67383 -8.42912,-5.56603 -15.79331,-10.11914 -16.36524,-10.11914 z m -590.064454,8.01172 c -3.30133,1.26683 -1.46467,6.29657 2.56055,7.83203 3.800674,1.44979 13.550874,0.80183 15.376954,-1.02148 1.40059,-1.39847 -15.273534,-7.83282 -17.937504,-6.81055 z m 656.519534,0 c -2.66397,-1.02227 -19.33809,5.41208 -17.9375,6.81055 1.82608,1.82331 11.57628,2.47127 15.37695,1.02148 4.02522,-1.53546 5.86188,-6.5652 2.56055,-7.83203 z m -596.91015,7.98828 c -1.22384,0 -9.92969,14.00768 -9.92969,16.38672 0,4.4361 4.92531,6.5896 7.53515,3.2793 1.26118,-1.59967 3.46103,-19.66602 2.39454,-19.66602 z m 537.30078,0 c -1.06649,0 1.13335,18.06635 2.39453,19.66602 2.60984,3.3103 7.53515,1.1568 7.53515,-3.2793 0,-2.37904 -8.70584,-16.38672 -9.92968,-16.38672 z m -426.56446,18.59375 c -6.94772,0.75006 -12.78515,5.27791 -12.78515,11.9375 0,4.38319 3.05376,11.22586 4.22461,9.4668 0.2433,-0.36552 1.3566,-2.45082 2.47461,-4.63281 3.15351,-6.1546 8.36232,-8.55782 12.96875,-5.98438 4.64545,2.59525 7.50493,8.42001 6.36523,12.96094 -2.26246,9.01436 -16.84772,17.61376 -26.47656,15.60937 -6.56637,-1.36689 -15.45992,-7.06359 -18.30078,-11.72265 -3.47395,-5.69731 -3.51829,-1.03007 -0.0605,6.4375 6.692,14.45402 24.90789,21.09098 38.65039,14.08008 18.29562,-9.33372 21.44422,-34.55566 5.625,-45.06836 -3.94782,-2.62353 -8.51691,-3.53403 -12.68555,-3.08399 z m 315.82813,0 c -4.16864,-0.45004 -8.73773,0.46046 -12.68555,3.08399 -15.81922,10.5127 -12.67062,35.73464 5.625,45.06836 13.7425,7.0109 31.95839,0.37394 38.65039,-14.08008 3.45745,-7.46757 3.41307,-12.13481 -0.0605,-6.4375 -2.84086,4.65906 -11.73442,10.35576 -18.30079,11.72265 -9.62884,2.00439 -24.2141,-6.59501 -26.47656,-15.60937 -1.1397,-4.54093 1.71979,-10.36569 6.36524,-12.96094 4.60643,-2.57344 9.81524,-0.17022 12.96875,5.98438 1.11801,2.18199 2.23131,4.26729 2.47461,4.63281 1.17085,1.75906 4.2246,-5.08361 4.2246,-9.4668 0,-6.65959 -5.83743,-11.18744 -12.78515,-11.9375 z m -440.34766,9.65821 c -3.96679,-0.59587 -7.64397,5.25984 -5.64648,8.99218 2.11265,3.94752 9.06711,3.78775 10.63086,-0.24414 1.4441,-3.72341 -1.085,-8.16232 -4.98438,-8.74804 z m 564.86719,0 c -3.89938,0.58573 -6.42848,5.02463 -4.98438,8.74804 1.56377,4.03189 8.51821,4.19166 10.63086,0.24414 1.99749,-3.73234 -1.67969,-9.58807 -5.64648,-8.99218 z m -391.13281,18.22851 4.50586,2.3418 c 4.69988,2.44409 9.48167,8.88223 9.49023,12.77734 0.0113,5.16133 7.05434,6.42256 10.08008,1.80469 4.52184,-6.90119 -3.84251,-14.90181 -16.94727,-16.21094 z m 217.39843,0 -7.1289,0.71289 c -13.10476,1.30913 -21.46911,9.30975 -16.94727,16.21094 3.02574,4.61787 10.06878,3.35664 10.08008,-1.80469 0.009,-3.89511 4.79036,-10.33325 9.49024,-12.77734 z m -227.39843,8.08594 0.0332,7.71679 c 0.067,15.85154 4.69296,27.35549 15.85938,39.43555 3.246,3.51159 7.42134,7.2177 11.32031,10.2793 1.63935,-0.87395 3.78455,-1.57228 6.0664,-2.24219 -0.63514,-0.93962 -1.08627,-1.64089 -1.77929,-2.65039 -7.37249,-10.7393 -16.11959,-26.9312 -15.09961,-27.95117 0.31622,-0.31622 6.17481,6.34719 13.01758,14.80664 6.00341,7.4218 9.96065,11.78537 12.08593,13.37695 0.80363,-0.25297 1.62598,-0.49006 2.38868,-0.77148 1.37798,-4.39576 1.70135,-16.48828 0.25585,-20.23242 -1.23185,-3.19077 -2.14007,-3.66797 -6.99804,-3.66797 -8.01976,0 -16.26039,-5.16763 -18.94727,-11.88282 -1.55352,-3.88261 -4.26032,-6.7474 -10.16015,-10.7539 z m 237.8457,1.43359 c -1.93155,0 -15.17773,9.56613 -15.17773,10.96094 0,7.86468 -10.46915,15.67393 -21.79102,16.25586 -4.90926,0.25233 -5.50733,0.6647 -7.0625,5.5293 1.33593,1.13503 2.69303,2.32833 4.08008,3.61718 2.56061,2.37931 5.10748,4.5214 7.51172,6.51368 1.5192,-1.85006 2.83591,-3.38449 4.53515,-5.54297 6.35043,-8.06667 11.79716,-14.66797 12.10352,-14.66797 1.78854,0 -4.67605,12.55965 -12.07813,24.06054 2.45584,2.07717 4.67297,4.08059 6.22461,5.93164 13.63697,-11.20817 21.38899,-25.56974 22.22266,-41.45312 0.32349,-6.16332 0.0672,-11.20508 -0.56836,-11.20508 z m -124.96484,1.52735 c -7.81162,0.24221 -13.46257,5.09567 -15.78125,8.02343 -3.48227,4.81245 -4.26099,6.35394 1.3164,4.80664 4.26647,-1.18365 8.45766,-2.96431 12.70118,-3.15234 7.81182,-0.34611 15.79781,0.7689 24.74609,2.51172 l -2.70703,-2.63672 c -7.61475,-7.41496 -14.5293,-9.73094 -20.27539,-9.55273 z m -70.20703,1.24023 c -0.74561,-0.0365 -0.84408,1.0319 -0.0117,3.2207 1.37712,3.62206 0.66315,6.77183 -2.32813,10.26172 -1.06037,1.23712 -1.53452,2.88647 -1.05273,3.66602 1.48606,2.40449 5.79439,1.56861 7.97656,-1.54688 2.82911,-4.03913 2.60577,-8.00274 -0.6875,-12.18945 -1.75736,-2.23412 -3.15086,-3.37559 -3.89648,-3.41211 z m 152.05078,0 c -0.74562,0.0365 -2.13913,1.17799 -3.89649,3.41211 -3.29327,4.18671 -3.51661,8.15032 -0.6875,12.18945 2.18217,3.11549 6.49051,3.95137 7.97657,1.54688 0.48179,-0.77955 0.008,-2.4289 -1.05274,-3.66602 -2.99128,-3.48989 -3.70524,-6.63966 -2.32812,-10.26172 0.83222,-2.1888 0.73381,-3.2572 -0.0117,-3.2207 z m -85.22461,13.26953 c -5.72451,0.38569 -10.18112,3.88609 -12.50196,5.77539 l -0.96679,0.78711 3.67383,-0.23437 c 6.25162,-0.39802 10.83989,0.69944 16.24218,3.88672 8.18544,4.82925 13.15227,13.87459 12.03711,21.92187 -1.85759,13.40425 -18.36486,17.16456 -22.73828,17.32227 -6.96417,0.25111 -12.62122,-4.13989 -16.32226,-9.94532 -2.61742,-4.10557 -4.25695,-8.91982 -4.6875,-13.29882 -0.12469,-1.26829 -0.15837,-1.8418 -0.51368,-1.8418 -0.93781,0 -4.07039,2.34325 -6.10937,4.57031 -2.85749,3.12125 -3.96205,5.68919 -4.14063,9.63477 -0.27738,6.13025 3.21123,9.94634 6.65821,12.20507 11.10839,7.27916 23.22341,9.41359 36.39648,6.46485 5.90136,-1.321 12.78348,-3.99255 21.30469,-8.01172 1.11638,-4.73053 3.04697,-17.02444 -2.9082,-29.73242 -7.46663,-15.93336 -18.75374,-19.95323 -25.42383,-19.50391 z m 14.57031,0.11328 c -0.16097,0.006 1.09919,0.81291 2.80078,1.79883 0.72849,0.42208 18.85352,11.18482 18.85352,37.04102 v 5.19531 l 1.11523,-0.79297 c 0.61246,-0.43613 2.41157,-2.17483 4,-3.86328 4.90205,-5.21097 7.25977,-10.90031 7.25977,-17.51953 -0.33501,-14.06572 -10.28857,-17.90794 -22.04102,-20.36133 -3.94515,-0.8236 -7.98348,-1.10463 -11.98828,-1.49805 z m -35.72461,1.86719 c -3.23238,-0.12028 -7.06203,0.37432 -9.61133,1.33398 -13.61541,5.12518 -19.42997,18.74113 -16.54297,38.74219 2.39399,16.58534 6.63493,28.61912 13.05274,37.03711 4.35588,5.71351 12.51092,12.11994 14.79297,11.6211 0.53174,-0.11622 2.09794,-0.46534 3.48047,-0.77735 5.64858,-1.27445 15.72168,-0.46556 23.39648,1.87891 5.83855,1.78356 13.38112,5.04797 16.16797,7 0.44142,0.3091 0.84232,0.52096 0.89258,0.4707 0.0503,-0.0503 0.54406,-2.35025 1.09765,-5.11328 3.78377,-18.88412 9.75679,-28.56291 15.77344,-37.81055 4.19283,-6.44439 6.94307,-11.6948 7.38867,-14.10351 0.1278,-0.69124 0.1904,-1.25782 0.13867,-1.25782 -0.0515,0 -1.83008,1.69893 -3.95312,3.7754 -13.77495,13.4728 -36.04031,21.85388 -53.64844,20.19335 -12.32044,-1.16187 -22.01714,-5.4775 -28.5332,-12.69726 -5.54241,-6.14092 -6.52612,-14.37897 -2.60938,-21.86328 2.36643,-4.52188 7.7959,-9.2447 13.18164,-11.4668 1.36474,-0.5631 1.55261,-0.83893 2.51368,-3.69727 1.31607,-3.91417 3.14455,-6.98299 5.98632,-10.05078 l 2.23829,-2.41796 -2.23829,-0.4668 c -0.87484,-0.18226 -1.88736,-0.28994 -2.96484,-0.33008 z m -113.90039,0.96094 c -1.73381,-0.60509 -3.88172,0.058 -5.15625,2.43945 -1.10076,2.05679 -1.05772,3.25321 0.16992,4.73242 2.47144,2.9779 7.12631,1.76167 7.65821,-2 0.38082,-2.69337 -0.93807,-4.56679 -2.67188,-5.17187 z m 288.50781,0 c -1.73381,0.60508 -3.05269,2.4785 -2.67187,5.17187 0.53188,3.76167 5.18676,4.9779 7.6582,2 1.22764,-1.47921 1.27068,-2.67563 0.16992,-4.73242 -1.27453,-2.38145 -3.42244,-3.04454 -5.15625,-2.43945 z m -104.91992,4.68359 1.35547,2.11719 c 1.27097,1.98682 2.94276,6.26474 2.98437,7.63672 0.0116,0.33709 0.98033,1.22235 2.15625,1.96679 5.7497,3.63985 10.79023,10.3566 13.25,17.65821 3.07589,9.13084 3.09712,20.8754 0.0547,30.21679 -3.50829,10.77026 -10.59688,20.80583 -20.54883,29.08789 l -2.31836,1.92774 3.79102,0.0137 c 7.11335,0.025 13.0192,1.72521 14.82812,4.26563 0.82981,1.16535 0.92419,1.30008 2.88086,0.77539 28.41533,-8.10446 34.24638,-31.52832 37.10743,-58.08203 l 0.22656,-2.5625 -2.61719,-2.13868 c -13.61345,-8.39192 -24.72927,-21.93953 -38.44336,-29.34179 -3.3688,-1.67145 -8.15529,-3.02512 -11.67578,-3.30274 z m -56.04883,2.95508 c -0.77258,-0.028 -1.53835,-0.016 -2.28711,0.0391 -1.99663,0.14673 -3.87288,0.59544 -5.42773,1.38867 -5.14242,2.62349 -7.10618,11.83332 -4.16406,19.52149 l 0.86718,2.26758 0.63086,-2.125 c 3.06761,-10.33333 13.62183,-16.97082 22.74805,-12.87305 1.14236,0.51297 2.14203,0.93359 2.22266,0.93359 0.55421,0 -0.0434,-2.08079 -0.96289,-3.34961 -2.48283,-3.42747 -8.21886,-5.60641 -13.62696,-5.80273 z m 179.80078,6.76172 c -12.84159,-0.0727 -32.21111,7.14945 -37.89062,14.12695 -1.70597,2.09585 -1.62886,2.22503 0.77344,1.29688 6.57638,-2.54084 21.13656,-4.90656 34,-5.52344 16.01916,-0.7682 15.3341,-0.13518 -6.33594,5.86523 -16.91252,4.68306 -24.33203,7.49982 -24.33203,9.23633 0,1.02596 10.11847,6.58537 16,8.79102 4.96113,1.86046 22.10446,-0.0351 28.66797,-3.16992 3.77587,-1.80341 11.0022,-7.50232 16.66601,-13.14258 l 10,-9.95899 -4.66601,-1.93945 c -6.52333,-2.71068 -23.11273,-5.5267 -32.88282,-5.58203 z m -324.57226,0.76172 c -2.69712,-0.0433 -5.46105,0.003 -8.21289,0.13867 -11.00739,0.54094 -21.81732,2.47948 -27.3418,5.5664 -2.37344,1.32624 10.45774,15.41554 18.95899,20.81836 9.3226,5.92484 13.28649,7.10933 24.19531,7.23047 8.15747,0.0906 10.62654,-0.48514 17.69922,-4.13281 4.52035,-2.33132 8.01128,-4.88263 7.75781,-5.66797 -0.54565,-1.69064 -17.53645,-7.91214 -31.49414,-11.5332 -5.44058,-1.41146 -10.23993,-2.94942 -10.66602,-3.41602 -1.55408,-1.70182 26.1861,0.87024 36.55274,3.38867 5.8635,1.42449 10.86831,2.38168 11.12304,2.12696 1.02206,-1.02206 -11.19513,-8.75843 -18.25781,-11.56055 -4.73563,-1.87886 -12.22311,-2.82898 -20.31445,-2.95898 z m 151.02148,3.64062 c -3.16008,0.19054 -5.82459,2.41745 -8.16015,4.49024 -2.53937,2.31764 -2.60755,2.02552 -1.5918,3.10547 4.02395,2.62724 8.30699,4.57327 13.12109,2.54687 5.99052,-2.98519 4.71608,-9.46805 -1.98437,-10.09375 -0.47223,-0.0623 -0.93335,-0.0762 -1.38477,-0.0488 z m 12.66992,0.92774 c -0.16204,0.13376 -0.28135,0.81853 -0.54296,2.37109 -1.75644,10.42458 -10.05331,11.69503 -11.50586,11.83789 -5.4495,0.5358 -12.48076,-4.38672 -12.82227,-4.38672 -0.33666,0 -1.50067,4.06267 -1.35351,5.38672 0.77377,6.96355 7.86891,8.43355 14.79882,6.5 6.99165,-1.95067 13.81555,-7.36572 13.81641,-14.09766 3e-4,-2.46572 -0.75504,-5.35937 -1.8457,-7.06835 -0.15216,-0.2383 -0.26731,-0.41511 -0.36133,-0.50391 -0.0706,-0.0666 -0.12958,-0.0837 -0.1836,-0.0391 z m 42.61133,5.18164 c 2.35501,12.42649 0.17107,21.75094 -6.5664,32.29101 -5.47091,8.20419 -11.22866,21.85047 -13.70703,32.48438 -0.5453,2.33967 -1.10835,4.67429 -1.25,5.1875 -0.21664,0.78539 0.25273,0.54058 2.96093,-1.54688 1.76957,-1.36394 4.64959,-3.8307 6.40039,-5.48047 3.83407,-3.61292 6.63464,-6.98232 10.0586,-12.10351 7.40433,-11.0745 10.76806,-23.93284 9.56054,-34.8086 -0.4135,-4.41689 -3.17724,-13.85693 -7.45703,-16.02343 z m -113.1289,10.44531 c -1.72957,-0.0901 -3.85844,0.26001 -6.44922,1.03906 -4.8081,1.50012 -9.44171,3.87881 -13.05469,6.98047 l -1.33789,1.14844 1.02148,2.66601 c 1.06816,2.78152 3.85565,11.5944 4.51172,14.26563 4.68898,19.47148 8.7134,39.38559 26.23242,51.50391 7.24007,4.63134 15.73695,6.26706 22.96094,4.41796 7.36047,-1.88408 13.02287,-5.84619 42.06836,-14.81054 0.97876,-0.30205 1.16929,-0.49134 0.77149,-0.75977 -2.42711,-1.63776 -11.18414,-5.34657 -14.99219,-6.34961 -20.75024,-5.46577 -29.80271,2.97332 -32.09571,5.69727 -0.5094,0.6052 -1.06367,1.09961 -1.23046,1.09961 -0.27677,0 -2.22635,-5.13797 0.28711,-8.125 l 0.93359,-1.11133 -2.91016,-1.96289 c -16.7156,-11.27953 -19.46315,-27.34325 -20.29492,-42.79492 0.3566,-8.41164 -1.23312,-12.63392 -6.42187,-12.9043 z m 169.99414,19.03711 c -0.90427,-0.007 -1.5442,0.0277 -2.32422,0.0391 -0.4018,3.67436 -0.90219,7.05293 -1.4961,10.14063 14.73506,13.57197 30.00504,16.79466 46.00196,9.63867 l 6.10547,-2.73047 -4.66797,-3.96094 c -2.56666,-2.17875 -8.55346,-5.88249 -13.30469,-8.23047 -7.89684,-3.90249 -9.93873,-4.31029 -23.78516,-4.75 -2.46265,-0.0782 -4.63415,-0.131 -6.52929,-0.14648 z m -199.38672,0.0957 c -3.11951,-0.0555 -6.93164,-0.009 -10.6836,0.15235 -14.95906,0.64439 -22.80127,3.32334 -34.11718,11.65625 l -5.80664,4.27539 3.09961,2.16992 c 8.83807,6.19042 24.91001,6.61801 36.51367,0.9707 3.66667,-1.78451 9.91117,-6.53453 13.87695,-10.55664 l 2.61719,-2.6543 c -0.43888,-1.98767 -0.89582,-3.98872 -1.23633,-5.83203 -1.16235,-0.0875 -2.57782,-0.15163 -4.26367,-0.18164 z m 8.09375,16.45313 c -4.18822,0.99014 -16.59824,8.6959 -20.85547,13.31445 -6.91292,7.49962 -16.23242,26.54096 -16.23242,33.16602 0,2.08194 15.92329,0.0876 24.28515,-3.04102 9.7965,-3.66534 17.3118,-10.32562 21.39454,-18.38281 -1.97668,-4.54006 -3.81791,-9.61449 -5.5254,-14.8418 l -7.74218,7.56055 c -10.45866,10.21175 -15.50165,14.40313 -14.14063,11.7539 3.04582,-5.92867 11.88131,-18.77089 16.6543,-24.20703 1.11146,-1.26589 2.04279,-2.47975 2.67187,-3.43359 -0.18014,-0.63482 -0.33614,-1.25614 -0.50976,-1.88867 z m 185.41992,2.19726 c -0.4692,1.58196 -0.96685,3.06436 -1.48828,4.46094 0.50271,0.60357 0.81636,1.04659 1.36719,1.68359 3.67949,4.2551 8.82038,11.63568 11.42578,16.40235 l 4.73828,8.66797 -15.89649,-15.66797 c -1.75364,-1.72838 -3.01676,-2.88145 -4.63476,-4.43946 -2.7671,5.10412 -5.90848,8.50881 -9.07227,10.97071 0.20887,0.503 0.4137,1.07368 0.62696,1.48828 5.69717,11.07617 19.22621,19.14979 36.27539,21.64844 3.74939,0.54949 7.26836,1.07452 7.81836,1.16601 0.55,0.0915 1,-0.6398 1,-1.625 0,-7.67015 -10.13666,-27.95699 -17.55469,-35.13281 -3.20714,-3.10242 -9.64704,-7.1291 -14.60547,-9.62305 z m -53.35938,28.81836 c -0.95725,-0.0212 -1.93686,-0.012 -2.9375,0.0273 -6.67074,0.26142 -14.27486,1.86118 -22.40039,4.75585 -17.02101,6.06368 -39.01634,13.40237 -41.65039,13.89649 -0.77905,0.14612 -1.41601,0.43984 -1.41601,0.65039 0,0.55457 6.5353,8.27346 8.95898,10.58203 20.28588,19.32221 56.17344,19.37042 67.56055,-13.07812 1.4285,-4.07065 2.8514,-11.21634 2.68555,-13.49024 l -0.1211,-1.64844 -2.70703,-0.68164 c -2.43147,-0.61341 -5.10088,-0.95004 -7.97266,-1.01367 z"
     sodipodi:nodetypes="ccccccccccsccssssscccsccccsssscssccsscsssscsssscccsssssssssssssssssssssssssssssssssssssscccssssssssscssccsscscsccssssssssssscccccccccsccssssssssssscccsccccccccccssscccsssssssssssssssscccsssssssssssccccsscsscccssssccccccsssssccscccsscccccsssscccsscccssscsssscccssccssscsssssccssssssssssssssssssssssssssssssccssssssscccsssscsscsssscccssssssssssssssssssssssssssssssssscsssssssssssscssssscssssssssssssssssccscccsccssccsccsssssssssssssssscsscsscccssccccssccssssssssssssssssssssssscsssssssssssssssssssssssssscsssssssccssssssssssccsssssssssssssssssssssssssssssssssssssssssssssssssssssscccsscsssssssssscsscccssssccssssssssssssccssssscssssssssssssssssssssssssssssscsssssssssssssssssssssssssssssssssssssssscssssssscsssssssssssssssccssccccscccccsccsssccsssccssscscssccssscssccsscssssssssscssssccsssssssssscsscssccscscscssscssscssssssssscccssssssssssscccssccccscccccccscsccssscssssssssscccsscsssssssssssccccccssssssssssccsssssccscsccccssssssccccsccccccsscsccccssccscssscccssccccscccccssssscscssssscccs" /><path
     id="path12"
     style="display:inline;opacity:1;fill:#ffffff;fill-opacity:1;stroke:none;stroke-width:0.394098"
     inkscape:highlight-color="#ffffff"
     inkscape:label="FACE TIGRE-COLOR-FUL"
     d="m 202.27552,179.25221 c -20.35451,1.21012 -32.64646,22.55926 -38.51562,39.9668 -9.87594,29.29199 2.67951,55.77039 5.48437,61.11133 4.27995,8.14877 6.65017,11.38664 12.82422,17.50976 6.30756,6.25537 10.89589,9.00643 16.55469,9.92579 3.29951,0.53613 9.19531,0.70409 9.19531,0.26172 0,-0.14155 -1.84215,-2.0188 -4.09375,-4.16993 -4.45402,-4.25547 -8.38985,-9.42886 -13.04493,-17.14844 -8.71166,-14.44671 -11.73429,-25.19369 -9.9375,-35.33594 1.93666,-10.93141 7.82451,-16.875 18.06641,-18.23632 15.01789,-1.99626 29.71019,5.50146 39.6543,20.23633 1.3652,2.023 3.54189,5.18496 4.83594,7.02343 2.95023,4.19181 3.00866,4.83655 0.38281,4.24415 -3.02722,-0.68302 -6.3999,-1.96307 -8.34961,-3.16797 -2.49981,-1.545 -2.22993,-0.23151 0.12695,2.05468 0.82745,0.80251 19.05717,17.94958 52.19727,3.92188 2.36162,-0.99934 -3.21151,3.40784 -7.88281,6.79883 -5.80421,4.21378 -21.4762,12.15532 -28.86328,14.625 -6.15761,2.05859 -10.61501,2.21606 -16.0879,0.56835 -2.05404,-0.61833 -4.04112,-1.12496 -4.41601,-1.12499 5.73823,7.28871 21.68418,5.82948 30.60156,6.04297 -3.16703,1.41507 -6.16477,3.15703 -9.08008,5.03125 -5.83547,3.95327 -12.5308,5.77594 -19.43945,6.41992 -1.86668,3.35919 -3.32843,7.08756 -5.95898,9.95508 -1.61436,1.61436 -8.42552,7.4337 -18.66407,2.61132 -6.50747,-2.97261 -12.97807,-6.00523 -19.19726,-9.55078 -3.12979,-1.80656 -5.85901,-3.06666 -6.10742,-2.81836 -1.01399,1.01402 2.91895,14.8415 5.9414,20.88673 0.85475,1.7097 3.40702,5.80285 5.67188,9.09764 2.26458,3.29463 4.26621,6.66599 4.44726,7.49024 0.38022,1.73105 -0.5274,3.72667 -4.15039,9.11134 -3.0153,4.48173 -3.1183,5.04675 -0.73242,4.05858 7.25422,-3.00478 21.68294,-7.31299 22.33008,-6.66601 l 0.002,0.002 v 0.002 h 0.002 v 0.002 0.002 l 0.002,0.002 c 1.1e-4,7.2e-4 -5e-5,0.005 0,0.006 -0.002,0.1971 -1.81475,1.63228 -4.12695,3.26172 -4.57291,3.22257 -7.95966,5.93934 -14.96485,12.01172 -2.34665,2.03416 -5.58384,4.82605 -7.19531,6.20312 -4.40552,3.7644 -11.35394,14.78898 -10.10742,16.03516 l 0.002,0.002 h 0.002 c 0.14562,0.0993 2.35877,-0.64824 4.94726,-1.67187 8.06407,-3.1888 15.30665,-4.8571 15.30665,-3.52735 0,0.60133 -3.62276,4.71885 -9.98829,11.35352 -6.79527,7.08148 -10.99968,12.48351 -14.00977,17.99609 -2.91739,5.34355 -5.91068,12.89724 -5.93554,14.97852 -0.0205,1.71219 0.27722,1.73801 7.86524,0.71094 2.76362,-0.37443 5.2151,-0.47743 5.49414,-0.23048 0.30493,0.27091 -0.88965,1.43285 -2.40235,3.46485 -3.86217,5.18688 -10.95024,15.09288 -20.125,23.10156 -1.86368,1.62668 -2.98619,3.37757 -2.88086,3.52735 l 0.002,0.002 c 22.95753,-9.8393 30.70732,-14.51417 40.92969,-30.86329 7.88944,-12.77856 9.57636,-15.2063 13.30664,-19.13281 2.01341,-2.11943 3.72346,-3.79201 3.79883,-3.71288 0.0755,0.0779 -1.09259,2.63876 -2.5957,5.6875 -9.50767,19.2902 -9.66389,32.2327 -17.36719,41.37695 -1.94086,2.14844 -3.6812,2.99776 -9.32618,4.54882 -10.63964,2.92602 -18.74794,11.64357 -23.31054,25.05664 -3.28547,9.6601 -2.65316,28.96496 1.56445,47.76172 1.3558,6.04113 2.72109,9.82233 3.32813,9.21484 0.64159,-0.64165 -0.008,-9.38495 1.11328,-15.54686 2.69898,-14.82599 18.57334,-32.2189 23.47265,-37.29884 9.10042,-9.43745 10.9081,-12.42395 13.3711,-22.07031 1.32916,-5.20615 3.12919,-14.76558 3.20899,-17.04492 0.0218,-0.62415 0.0449,-0.97462 0.0918,-1.01758 h 0.002 0.002 v -0.002 h 0.002 0.002 0.002 0.002 l 0.002,0.002 c 9.6e-4,4.4e-4 0.005,0.003 0.006,0.003 0.065,0.0547 0.17224,0.5406 0.36524,1.50586 2.44156,12.2109 2.63231,21.30613 0.56054,26.66406 -5.24945,13.57569 -14.36065,8.81462 -23.6289,30.27343 -7.18247,16.62923 -6.14615,33.44396 -2.52344,47.3672 1.39088,5.34722 2.72554,9.9203 2.96484,10.16406 0.23927,0.24265 0.60877,-1.05745 0.82033,-2.89063 0.24955,-2.16189 2.69228,-20.35486 15.12108,-29.73828 5.70146,-4.30443 13.98691,-8.00976 17.90625,-8.00976 1.52782,0 1.45003,0.11677 -2.36328,3.63085 -6.58782,6.06961 -11.79613,14.6671 -13.875,22.9043 -5.62746,20.18375 2.44951,32.94937 18.14453,45.16602 6.3778,4.93059 19.61662,6.26525 32.11914,5.93945 3.63255,-0.0942 -28.67649,-16.5512 -14.39062,-45.25 2.49188,25.19317 30.97179,45.26162 35.36133,43.84375 7.24557,-2.33941 10.12502,-2.11518 15.38671,-3.12695 1.43543,-0.27538 1.05733,-2.90898 -1.66796,-3.71875 -1.7253,-0.51249 -6.82428,-3.81619 -4.47852,-8.75782 1.91651,-4.04088 4.55701,-6.17539 9.12891,-4.54492 3.58277,1.27731 0.96485,-3.75182 0.4707,-5.76953 -1.89321,-7.73011 -6.89887,-17.12326 -11.92774,-21.5664 -4.25777,-3.76147 -10.19369,-7.19009 -16.30078,-8.08789 -2.7933,-0.41069 -7.22311,-1.065 -9.84375,-1.45508 -9.80438,-1.45822 -17.12411,-5.95047 -24.11523,-14.80274 -4.89177,-6.19397 -6.02264,-8.10005 -8.7168,-14.70312 -2.67649,-6.55825 -4.97718,-15.53756 -5.98047,-23.33203 -0.42781,-3.3232 -0.94033,-6.87117 -1.13867,-7.88282 -0.17393,-0.88663 -0.24138,-1.40487 -0.1582,-1.46289 0.002,-0.001 0.007,-0.003 0.01,-0.003 0.20369,-0.0272 1.07746,1.93504 3.06055,6.67187 7.11692,16.99925 12.31938,25.16098 20.73828,32.54493 5.66685,4.97031 10.64532,6.93557 24.13477,9.52734 9.42158,1.80983 13.68636,3.99403 20.17382,10.32422 1.86817,1.82383 3.50191,3.22277 3.66602,3.15234 v -0.002 h 0.002 l 0.002,-0.002 c 0.11917,-0.11918 -0.50496,-1.64707 -1.38867,-3.39648 -1.87591,-3.71786 -3.77614,-10.00107 -5.00196,-16.55078 -0.47891,-2.55709 -1.34452,-5.91389 -1.92383,-7.4629 -2.5058,-6.69718 -9.29155,-14.64783 -16.14648,-18.91796 -17.42978,-10.08025 -30.78854,-22.28794 -37.68945,-41.60743 -5.12756,-15.62295 -2.7854,-27.7925 -1.67774,-31.94141 2.07974,-7.79131 4.50583,-15.96777 8.75977,-22.76171 2.95437,-4.71906 6.53887,-9.0124 10.92773,-13.65039 7.76904,-8.21254 3.57549,-1.69468 0.14453,12.25586 -6.21667,25.27471 -6.52725,50.30547 8.32813,72.77539 11.26424,15.71764 34.45565,33.09966 38.56054,40.76758 2.66378,4.9762 3.68029,11.90827 2.45704,16.76757 -0.31933,1.26647 -0.49651,2.53271 -0.39453,2.8125 0.24762,0.67934 7.34076,-4.48962 10.90234,-7.94335 3.33522,-3.23405 11.56906,-15.35685 14,-20.61524 0.93562,-2.02316 2.9459,-7.40934 4.46875,-11.96679 3.54612,-10.61505 4.14117,-11.48127 4.16406,-6.0586 0.0227,5.52007 -1.35925,15.6219 -2.67187,19.5332 -1.62751,4.84873 -4.78433,10.81019 -9.72461,18.35742 -5.78524,8.83992 -6.72983,10.78271 -7.80274,16.05274 -0.89883,4.4139 -0.9964,14.77275 -0.14844,15.61914 4.25218,-7.36055 10.24036,-11.74196 23.95313,-32.21094 8.946,-13.35253 13.56291,-26.72369 12.75586,-38.58984 -0.97602,-14.33611 -4.59187,-20.5229 -9.5918,-23.07422 -2.49947,-1.27447 -4.62122,-1.38815 -14.11328,-0.75391 -5.33876,0.35599 -6.52186,0.27246 -10.14844,-0.72265 -7.90518,-2.16857 -12.99922,-4.82959 -17.61523,-9.19922 -2.95727,-2.80107 -4.51268,-5.09732 -8.22461,-12.14063 -5.38967,-10.22595 -6.06354,-10.98656 -12.87109,-14.50976 -5.17795,-2.67901 -8.77738,-5.99728 -10.83399,-9.99024 -1.88034,-4.17523 -2.41532,-9.32226 -1.43555,-15.54882 7.2e-4,-0.005 0.003,-0.0104 0.004,-0.0137 l 0.002,-0.002 v -0.002 l 0.002,-0.002 0.002,-0.002 0.002,-0.002 h 0.002 0.002 l 0.002,-0.002 h 0.002 0.002 0.002 c 0.19612,0.0129 1.49434,2.05528 2.39844,2.84962 6.69887,5.88146 15.62671,7.62734 30.41796,5.9453 7.2352,-0.82196 19.98894,-0.72412 24.35938,0.1875 10.40776,2.16964 20.57703,8.46772 26.41211,16.35743 4.71041,6.36878 10.18455,18.9789 11.87305,27.3457 4.54873,22.39242 3.83979,36.15509 -5.72266,56.27343 -9.20629,18.95225 -23.07292,35.81331 -36.19922,51.94336 -5.44385,6.68819 -9.74286,8.11718 -4.80664,8.95509 2.72047,0.46139 6.94203,2.62453 7.62891,3.9082 1.59324,2.97716 -0.79479,2.84445 -5.74024,-0.32032 -3.61019,-2.31032 -6.13529,-2.54873 -7.36328,-1.84374 -1.54878,0.88961 -2.73743,7.48918 -2.31641,8.58593 4.5861,1.56869 6.35172,2.00901 9.61524,4.0918 16.28573,10.39259 19.71556,10.1739 37.30078,14.15429 3.93,0.89004 1.69957,2.20643 -1.84375,2.89844 -5.34583,1.04318 -14.75753,-0.92509 -21.48438,-2.67773 -8.24798,-2.14975 -11.54547,-4.76851 -24.93554,-12.5586 -1.87291,2.39035 -2.47774,3.73009 -2.68555,7.48829 -0.20824,3.76522 -0.1854,3.54843 1.41211,5.68945 2.76866,3.71154 29.58577,13.66489 43.64258,15.12109 6.08225,0.63143 13.88507,1.6143 14.14648,2.4707 0.45938,1.50088 -0.35237,2.43653 -1.44726,2.98047 -4.66494,2.31715 -19.63353,2.19831 -34.42969,-2.49219 -6.45155,-2.04548 -13.14946,-4.60174 -18.39063,-8.92187 -1.74972,-1.44303 -3.54727,-2.29737 -3.94726,-0.80273 l -0.61328,2.29882 c -37.80157,4.22224 -54.12443,6.6822 -86.34766,30.56056 15.13944,-10.48474 45.48095,-24.3506 86.82617,-26.3125 0.49423,4.10136 1.90905,6.64884 4.16992,9.71679 -27.11603,4.90554 -44.83299,8.45256 -70.56445,34.41407 17.80601,-15.04452 42.2573,-26.29712 75.04688,-31.0293 4.22608,-0.58473 7.23926,-0.88851 8.20117,-0.84766 0.89489,0.0886 2.54766,0.64744 5.85156,1.88281 11.76593,4.39792 22.89939,4.82216 35.99609,5.25196 4.84822,0.15867 8.9225,0.46196 9.05469,0.67577 -5.47818,3.95578 -23.7137,5.82638 -29.31054,5.96485 -7.18744,0.0328 -15.71415,-0.9707 -24.40625,-4.33593 -3.81975,-1.47938 -7.1878,-2.68946 -7.48633,-2.68946 -0.96134,0 -0.57448,1.23069 1.65234,5.2539 3.59295,6.49041 16.02193,17.86463 24.05469,22.01173 21.84117,10.81775 34.96325,7.89494 55.72266,-2.34766 14.24543,-7.10621 18.85767,-10.36332 24.1289,-14.70898 2.88192,-2.37416 5.48593,-5.27771 6.67383,-8.4375 1.16051,-3.08658 0.96939,-6.41885 -1.63672,-9.73829 -2.19765,-2.7995 -10.18696,-6.28047 -11.80078,-8.30273 -5.46877,-6.85378 -3.00769,-15.6801 -15.48828,-21.85157 -13.44215,-6.649 -22.25691,-11.86279 -26.93555,-21.5371 -1.89356,-7.6779 -1.83256,-16.93797 1.71094,-13.71484 2.91225,3.945 7.40444,11.73437 8.20508,11.73437 0.44442,0 0.66521,-0.40801 1.54687,-1.00977 8.32845,-5.6817 16.54391,-7.70252 21.4336,-6.73242 6.83267,1.35568 16.24604,3.94315 21.74804,4.84961 3.3875,0.55807 5.46624,0.65366 6.91797,0.64063 h 1.16211 1.16211 c 1.45173,0.013 3.53047,-0.0826 6.91797,-0.64063 5.502,-0.90646 14.91537,-3.49393 21.74804,-4.84961 4.88969,-0.9701 13.10515,1.05072 21.4336,6.73242 0.88166,0.60176 1.10246,1.00977 1.54688,1.00977 0.80064,0 5.29283,-7.78937 8.20507,-11.73437 3.54351,-3.22313 3.6045,6.03694 1.71094,13.71484 -4.67864,9.67431 -13.4934,14.8881 -26.93555,21.5371 -12.48059,6.17147 -10.01951,14.99779 -15.48828,21.85157 -1.61382,2.02226 -9.60312,5.50323 -11.80078,8.30273 -2.60611,3.31944 -2.79722,6.65171 -1.63672,9.73829 1.18791,3.15979 3.79191,6.06334 6.67383,8.4375 5.27124,4.34566 9.88348,7.60277 24.12891,14.70898 20.7594,10.2426 33.88148,13.16541 55.72265,2.34766 8.03276,-4.1471 20.46175,-15.52132 24.05469,-22.01173 2.22682,-4.02321 2.61369,-5.2539 1.65234,-5.2539 -0.29853,0 -3.66658,1.21008 -7.48632,2.68946 -8.69211,3.36523 -17.21882,4.36876 -24.40626,4.33593 -5.59684,-0.13847 -23.83235,-2.00907 -29.31053,-5.96485 0.13219,-0.21381 4.20647,-0.5171 9.05468,-0.67577 13.0967,-0.4298 24.23016,-0.85404 35.99609,-5.25196 3.3039,-1.23537 4.95667,-1.79421 5.85156,-1.88281 0.96191,-0.0408 3.9751,0.26293 8.20117,0.84766 32.78958,4.73218 57.24087,15.98478 75.04688,31.0293 -25.73146,-25.96151 -43.44842,-29.50853 -70.56445,-34.41407 2.26088,-3.06795 3.6757,-5.61543 4.16992,-9.71679 41.34522,1.9619 71.68674,15.82776 86.82618,26.3125 -32.22323,-23.87836 -48.5461,-26.33832 -86.34766,-30.56056 l -0.61328,-2.29882 c -0.4,-1.49464 -2.19755,-0.6403 -3.94726,0.80273 -5.24117,4.32013 -11.93909,6.87639 -18.39064,8.92187 -14.79616,4.6905 -29.76475,4.80934 -34.42969,2.49219 -1.09489,-0.54394 -1.90664,-1.47959 -1.44726,-2.98047 0.26141,-0.8564 8.06423,-1.83927 14.14648,-2.4707 14.05681,-1.4562 40.87392,-11.40955 43.64258,-15.12109 1.59752,-2.14102 1.62036,-1.92423 1.41211,-5.68945 -0.2078,-3.7582 -0.81264,-5.09794 -2.68554,-7.48829 -13.39007,7.79009 -16.68757,10.40885 -24.93555,12.5586 -6.72684,1.75264 -16.13854,3.72091 -21.48437,2.67773 -3.54332,-0.69201 -5.77376,-2.0084 -1.84376,-2.89844 17.58523,-3.98039 21.01506,-3.7617 37.30079,-14.15429 3.26352,-2.08279 5.02913,-2.52311 9.61523,-4.0918 0.42102,-1.09675 -0.76763,-7.69632 -2.3164,-8.58593 -1.22799,-0.70499 -3.75309,-0.46658 -7.36328,1.84374 -4.94546,3.16477 -7.33349,3.29748 -5.74024,0.32032 0.68687,-1.28367 4.90843,-3.44681 7.6289,-3.9082 4.93622,-0.83791 0.63721,-2.2669 -4.80664,-8.95509 -13.1263,-16.13005 -26.99292,-32.99111 -36.19921,-51.94336 -9.56245,-20.11834 -10.27139,-33.88101 -5.72266,-56.27343 1.68849,-8.3668 7.16263,-20.97692 11.87305,-27.3457 5.83507,-7.88971 16.00435,-14.18779 26.41211,-16.35743 4.37044,-0.91162 17.12418,-1.00946 24.35937,-0.1875 14.79125,1.68204 23.7191,-0.0638 30.41796,-5.9453 0.9041,-0.79434 2.20232,-2.83667 2.39845,-2.84962 h 0.002 0.002 0.002 l 0.002,0.002 h 0.002 0.002 l 0.002,0.002 0.002,0.002 0.002,0.002 v 0.002 l 0.002,0.002 c 10e-4,0.003 0.003,0.009 0.003,0.0137 0.97977,6.22656 0.44479,11.37359 -1.43555,15.54882 -2.0566,3.99296 -5.65604,7.31123 -10.83398,9.99024 -6.80755,3.5232 -7.48143,4.28381 -12.8711,14.50976 -3.71193,7.04331 -5.26734,9.33956 -8.22461,12.14063 -4.616,4.36963 -9.71005,7.03065 -17.61523,9.19922 -3.62657,0.99511 -4.80967,1.07864 -10.14844,0.72265 -9.49206,-0.63424 -11.61381,-0.52056 -14.11328,0.75391 -4.99992,2.55132 -8.61577,8.73811 -9.59179,23.07422 -0.80705,11.86615 3.80985,25.23731 12.75586,38.58984 13.71277,20.46898 19.70094,24.85039 23.95312,32.21094 0.84796,-0.84639 0.75038,-11.20524 -0.14844,-15.61914 -1.07291,-5.27003 -2.0175,-7.21282 -7.80274,-16.05274 -4.94028,-7.54723 -8.09709,-13.50869 -9.7246,-18.35742 -1.31263,-3.9113 -2.69457,-14.01313 -2.67188,-19.5332 0.0229,-5.42267 0.61795,-4.55645 4.16407,6.0586 1.52284,4.55745 3.53313,9.94363 4.46875,11.96679 2.43093,5.25839 10.66477,17.38119 14,20.61524 3.56157,3.45373 10.65471,8.62269 10.90234,7.94335 0.10197,-0.27979 -0.0752,-1.54603 -0.39453,-2.8125 -1.22325,-4.8593 -0.20674,-11.79137 2.45703,-16.76757 4.10489,-7.66792 27.2963,-25.04994 38.56055,-40.76758 14.85537,-22.46992 14.5448,-47.50068 8.32812,-72.77539 -3.43095,-13.95054 -7.62451,-20.4684 0.14453,-12.25586 4.38886,4.63799 7.97336,8.93133 10.92773,13.65039 4.25394,6.79394 6.68003,14.9704 8.75977,22.76171 1.10767,4.14891 3.44982,16.31846 -1.67773,31.94141 -6.90091,19.31949 -20.25968,31.52718 -37.68945,41.60743 -6.85494,4.27013 -13.64068,12.22078 -16.1465,18.91796 -0.5793,1.54901 -1.4449,4.90581 -1.92381,7.4629 -1.22582,6.54971 -3.12606,12.83292 -5.00196,16.55078 -0.88372,1.74941 -1.50785,3.2773 -1.38868,3.39648 l 0.002,0.002 h 0.002 v 0.002 c 0.16412,0.0704 1.79786,-1.32851 3.66602,-3.15234 6.48746,-6.33019 10.75224,-8.51439 20.17382,-10.32422 13.48945,-2.59177 18.46792,-4.55703 24.13477,-9.52734 8.41891,-7.38395 13.62136,-15.54568 20.73829,-32.54493 1.98308,-4.73683 2.85685,-6.69901 3.06054,-6.67187 0.002,5.9e-4 0.008,0.002 0.009,0.003 0.0832,0.0581 0.0158,0.57626 -0.1582,1.46289 -0.19835,1.01165 -0.71087,4.55962 -1.13868,7.88282 -1.00328,7.79447 -3.30398,16.77378 -5.98046,23.33203 -2.69417,6.60307 -3.82503,8.50915 -8.71681,14.70312 -6.99112,8.85227 -14.31085,13.34452 -24.11523,14.80274 -2.62064,0.39008 -7.05046,1.04439 -9.84375,1.45508 -6.10708,0.8978 -12.04301,4.32642 -16.30079,8.08789 -5.02886,4.44314 -10.03452,13.83629 -11.92772,21.5664 -0.49415,2.01771 -3.11207,7.04684 0.4707,5.76953 4.57189,-1.63047 7.21239,0.50404 9.1289,4.54492 2.34576,4.94163 -2.75321,8.24533 -4.47852,8.75782 -2.72529,0.80977 -3.10339,3.44337 -1.66796,3.71875 5.26169,1.01177 8.14115,0.78754 15.38672,3.12695 4.38953,1.41787 32.86945,-18.65058 35.36132,-43.84375 14.28588,28.6988 -18.02316,45.15575 -14.39062,45.25 12.50252,0.3258 25.74134,-1.00886 32.11914,-5.93945 15.69502,-12.21665 23.772,-24.98227 18.14453,-45.16602 -2.07887,-8.2372 -7.28718,-16.83469 -13.875,-22.9043 -3.8133,-3.51408 -3.8911,-3.63085 -2.36327,-3.63085 3.91934,0 12.20478,3.70533 17.90624,8.00976 12.42881,9.38342 14.87154,27.57639 15.12109,29.73828 0.21156,1.83318 0.58106,3.13328 0.82032,2.89063 0.23931,-0.24376 1.57396,-4.81684 2.96484,-10.16406 3.62271,-13.92324 4.65904,-30.73797 -2.52343,-47.3672 -9.26825,-21.45881 -18.37945,-16.69774 -23.62891,-30.27343 -2.07177,-5.35793 -1.88102,-14.45316 0.56054,-26.66406 0.193,-0.96526 0.30022,-1.45109 0.36524,-1.50586 9.8e-4,-6.4e-4 0.005,-0.003 0.006,-0.003 l 0.002,-0.002 h 0.002 0.002 0.002 0.002 v 0.002 h 0.002 0.002 c 0.0469,0.043 0.07,0.39343 0.0918,1.01758 0.0798,2.27934 1.87982,11.83877 3.20899,17.04492 2.46299,9.64636 4.27067,12.63286 13.37109,22.07031 4.89931,5.07994 20.77367,22.47285 23.47266,37.29884 1.12134,6.16191 0.47169,14.90521 1.11328,15.54686 0.60703,0.60749 1.97232,-3.17371 3.32813,-9.21484 4.2176,-18.79676 4.84991,-38.10162 1.56445,-47.76172 -4.56261,-13.41307 -12.6709,-22.13062 -23.31054,-25.05664 -5.64499,-1.55106 -7.38532,-2.40038 -9.32618,-4.54882 -7.70331,-9.14425 -7.85953,-22.08675 -17.36719,-41.37695 -1.50311,-3.04874 -2.67115,-5.60962 -2.5957,-5.6875 0.0753,-0.0792 1.78542,1.59345 3.79882,3.71288 3.73028,3.92651 5.41722,6.35425 13.30665,19.13281 10.22237,16.34912 17.97216,21.02399 40.92968,30.86329 l 0.002,-0.002 c 0.1053,-0.14978 -1.01719,-1.90067 -2.88087,-3.52735 -9.17475,-8.00868 -16.26284,-17.91468 -20.125,-23.10156 -1.51271,-2.032 -2.70727,-3.19394 -2.40234,-3.46485 0.27904,-0.24695 2.73052,-0.14395 5.49414,0.23048 7.58802,1.02707 7.88575,1.00125 7.86524,-0.71094 -0.0249,-2.08128 -3.01817,-9.63497 -5.93556,-14.97852 -3.01009,-5.51258 -7.21449,-10.91461 -14.00976,-17.99609 -6.36552,-6.63467 -9.98828,-10.75219 -9.98828,-11.35352 0,-1.32975 7.24258,0.33855 15.30664,3.52735 2.5885,1.02363 4.80164,1.77121 4.94726,1.67187 h 0.002 l 0.002,-0.002 c 1.24653,-1.24618 -5.7019,-12.27076 -10.10742,-16.03516 -1.61147,-1.37707 -4.84866,-4.16896 -7.1953,-6.20312 -7.00519,-6.07238 -10.39193,-8.78915 -14.96485,-12.01172 -2.31221,-1.62944 -4.12497,-3.06462 -4.12695,-3.26172 4e-5,-7.5e-4 -1.2e-4,-0.005 0,-0.006 l 0.002,-0.002 v -0.002 -0.002 h 0.002 v -0.002 l 0.002,-0.002 c 0.64714,-0.64698 15.07587,3.66123 22.33009,6.66601 2.38587,0.98817 2.28287,0.42315 -0.73243,-4.05858 -3.62299,-5.38467 -4.53061,-7.38029 -4.15038,-9.11134 0.18104,-0.82425 2.18268,-4.19561 4.44726,-7.49024 2.26485,-3.29479 4.81712,-7.38794 5.67187,-9.09764 3.02245,-6.04523 6.9554,-19.87271 5.94141,-20.88673 -0.24842,-0.2483 -2.97764,1.0118 -6.10742,2.81836 -6.21919,3.54555 -12.6898,6.57817 -19.19727,9.55078 -10.23854,4.82238 -17.0497,-0.99696 -18.66406,-2.61132 -2.63055,-2.86752 -4.09231,-6.59589 -5.95899,-9.95508 -6.90864,-0.64398 -13.60398,-2.46665 -19.43945,-6.41992 -2.9153,-1.87422 -5.91304,-3.61618 -9.08008,-5.03125 8.91738,-0.21349 24.86333,1.24574 30.60156,-6.04297 -0.37489,3e-5 -2.36196,0.50666 -4.41602,1.12499 -5.47288,1.64771 -9.93028,1.49024 -16.08788,-0.56835 -7.38708,-2.46968 -23.05907,-10.41122 -28.86328,-14.625 -4.6713,-3.39099 -10.24444,-7.79817 -7.88281,-6.79883 33.14009,14.0277 51.36982,-3.11937 52.19726,-3.92188 2.35688,-2.28619 2.62676,-3.59968 0.12696,-2.05468 -1.94971,1.2049 -5.3224,2.48495 -8.34962,3.16797 -2.62585,0.5924 -2.56741,-0.0523 0.38282,-4.24415 1.29404,-1.83847 3.47073,-5.00043 4.83594,-7.02343 9.94411,-14.73487 24.6364,-22.23259 39.65429,-20.23633 10.2419,1.36132 16.12976,7.30491 18.06641,18.23632 1.79679,10.14225 -1.22583,20.88923 -9.9375,35.33594 -4.65507,7.71958 -8.59091,12.89297 -13.04492,17.14844 -2.25161,2.15113 -4.09376,4.02838 -4.09376,4.16993 0,0.44237 5.89581,0.27441 9.19532,-0.26172 5.65879,-0.91936 10.24713,-3.67042 16.55469,-9.92579 6.17405,-6.12312 8.54427,-9.36099 12.82421,-17.50976 2.80486,-5.34094 15.36032,-31.81934 5.48438,-61.11133 -5.86916,-17.40754 -18.16112,-38.75668 -38.51563,-39.9668 -2.90769,-0.17284 -5.98079,0.0637 -9.22266,0.7832 -27.69977,6.14669 -58.94,41.30949 -75.14062,49.42384 -1.87888,0.9409 -5.80381,3.10181 -8.7207,4.80078 -2.30842,1.3448 -4.43476,3.08018 -5.02539,2.5957 -1.42754,-1.17053 -1.65688,-1.31631 -2.93751,-3.01758 -1.4082,-1.87272 1.5947,-2.58329 3.49611,-3.87695 3.91926,-2.11494 10.14344,-4.8409 11.74218,-5.4375 2.0765,-0.77496 1.08261,-1.10375 -0.44726,-1.91016 -6.79,-3.69872 -29.92912,-14.6993 -37.7793,-17.83008 -12.40154,-4.94478 -27.94356,-9.51158 -38.35742,-11.27148 -13.75584,-2.32464 -30.07862,-3.22796 -55.68165,-3.3418 h -1.68945 -1.68945 c -25.60303,0.11384 -41.92581,1.01716 -55.68165,3.3418 -10.41386,1.7599 -25.95588,6.3267 -38.35742,11.27148 -7.85018,3.13078 -30.98931,14.13136 -37.77929,17.83008 -1.52987,0.80641 -2.52377,1.1352 -0.44727,1.91016 1.59873,0.5966 7.82292,3.32256 11.74219,5.4375 1.9014,1.29366 4.9043,2.00423 3.49609,3.87695 -1.28063,1.70127 -1.50995,1.84705 -2.9375,3.01758 -0.59063,0.48448 -2.71697,-1.2509 -5.02539,-2.5957 -2.91689,-1.69897 -6.84183,-3.85988 -8.7207,-4.80078 -16.20062,-8.11435 -47.44085,-43.27715 -75.14063,-49.42384 -3.24186,-0.71944 -6.31496,-0.95604 -9.22265,-0.7832 z m 218.86328,25.31055 h 0.83594 l 0.0645,0.11719 0.0644,-0.11719 h 0.83594 l 9.52149,17.41601 c 12.16515,-11.57848 8.27828,-14.94336 28.98437,-14.94336 23.02492,0 52.99573,17.03936 58.77344,26.00587 0.20291,0.31372 -11.37927,-4.26435 -24.48438,-6.21094 -18.28821,-2.71643 -32.51915,-2.70659 -49.95703,5.32031 -9.10507,4.19094 -21.37295,22.71067 -22.72656,31.21094 l -0.50977,1.69921 -0.50195,-1.53711 -0.50195,1.53711 -0.50977,-1.69921 c -1.35362,-8.50027 -13.62149,-27.02 -22.72656,-31.21094 -17.43788,-8.0269 -31.66883,-8.03674 -49.95703,-5.32031 -13.10512,1.94659 -24.68728,6.52466 -24.48438,6.21094 5.77771,-8.96651 35.74853,-26.00587 58.77344,-26.00587 20.70609,0 16.81922,3.36488 28.98437,14.94336 z m -207.58594,3.22851 c 7.21879,-0.14876 15.70018,1.04875 24.4961,4.56641 12.45039,4.97912 22.16731,12.90629 27.19531,17.56446 4.65811,4.31552 12.46503,10.86326 17.2168,13.67578 4.23173,2.50435 8.59073,3.84155 8.00586,5.3457 -5.32377,4.61003 -20.19667,9.20517 -26.95118,9.23438 -6.95169,-0.28962 -11.77714,-3.72496 -19.29492,-13.73438 -6.46458,-8.60703 -16.10681,-15.54552 -26.74218,-19.24414 -5.97797,-2.07897 -13.7556,-2.59922 -19.32813,-1.29101 -1.97774,0.46428 -3.67736,0.76621 -3.79687,0.67773 -0.77472,-0.77477 6.00453,-6.33535 10.5039,-8.61523 2.26023,-1.14537 2.47967,-1.39728 1.80274,-2.07422 -3.08342,-1.52012 -6.67165,-1.92967 -10.02735,-2.58985 3.74571,-1.8694 9.70111,-3.36674 16.91992,-3.51563 z m 416.97266,0 c 7.21882,0.14889 13.17421,1.64623 16.91993,3.51563 -3.3557,0.66018 -6.94393,1.06973 -10.02735,2.58985 -0.67693,0.67694 -0.4575,0.92885 1.80273,2.07422 4.49937,2.27988 11.27863,7.84046 10.50391,8.61523 -0.11953,0.0885 -1.81913,-0.21345 -3.79687,-0.67773 -5.57254,-1.30821 -13.35017,-0.78796 -19.32813,1.29101 -10.63537,3.69862 -20.27761,10.63711 -26.74218,19.24414 -7.51779,10.00942 -12.34323,13.44476 -19.29493,13.73438 -6.7545,-0.0293 -21.62741,-4.62435 -26.95117,-9.23438 -0.58488,-1.50415 3.77413,-2.84135 8.00586,-5.3457 4.75176,-2.81252 12.55869,-9.36026 17.2168,-13.67578 5.02799,-4.65817 14.74491,-12.58534 27.19531,-17.56446 8.79592,-3.51766 17.27731,-4.71517 24.49609,-4.56641 z M 366.89857,239.1487 c 1.76067,0.0158 3.48502,0.106 5.17187,0.25977 20.71437,1.88843 35.66374,13.60895 37.58594,21.5371 5.39902,22.27299 -10.7237,35.78288 -26.97656,42.19531 -3.82101,1.50786 -38.75845,13.58924 -49.6836,-5.44726 -3.23541,-5.63768 -0.0407,-14.57103 0.25586,-14.47851 0.001,6.4e-4 0.003,0.001 0.004,0.002 7.6952,7.21319 13.70111,9.69331 23.36328,9.625 31.98079,0.31125 47.29259,-34.48679 4.28906,-34.59374 -18.75139,-0.0468 -39.32407,7.60241 -46.82031,14.6289 -4.14088,2.74291 -13.27486,15.63758 -14.62695,15.31055 -2.38044,-14.84877 16.45508,-29.20638 26.7832,-36.17579 12.28896,-8.16708 24.32878,-11.8663 35.27539,-12.68554 1.82505,-0.13705 3.61928,-0.19392 5.37891,-0.17773 z m 110.28124,0 c 1.75963,-0.0161 3.55387,0.0407 5.37892,0.17773 10.94661,0.81924 22.98642,4.51847 35.27538,12.68555 10.32812,6.9694 29.16364,21.32702 26.78321,36.17578 -1.3521,0.32703 -10.48607,-12.56764 -14.62695,-15.31055 -7.49624,-7.02649 -28.06893,-14.67568 -46.82032,-14.6289 -43.00353,0.10692 -27.69173,34.90499 4.28906,34.59375 9.66217,0.0683 15.66808,-2.41182 23.36329,-9.625 9.8e-4,-9.3e-4 0.002,-10e-4 0.003,-0.002 0.2966,-0.0925 3.49128,8.84084 0.25586,14.47851 -10.92514,19.0365 -45.86259,6.95512 -49.6836,5.44726 -16.25286,-6.41243 -32.37558,-19.92231 -26.97655,-42.19531 1.92219,-7.92814 16.87157,-19.64867 37.58593,-21.5371 1.68685,-0.15377 3.4112,-0.24398 5.17187,-0.25977 z m -146.17773,42.78125 c 0.64859,-0.001 1.09243,0.0855 1.27344,0.26562 0.96398,0.95877 -12.42456,6.93961 -19.46875,13.44726 -2.67432,2.47051 -9.42947,9.73534 -10.93945,10.43946 -0.88718,0.41357 -0.22705,-3.69889 1.32031,-7.13476 2.99565,-5.15966 7.45207,-9.32438 12.62891,-12.25782 5.28264,-2.84818 11.35721,-4.48941 14.4707,-4.72851 0.25947,-0.0199 0.49865,-0.0308 0.71484,-0.0312 z m 182.07422,0 c 0.2162,5.3e-4 0.45537,0.0115 0.71485,0.0312 3.11348,0.23911 9.18806,1.88034 14.4707,4.72852 5.17684,2.93344 9.63325,7.09816 12.6289,12.25782 1.54737,3.43587 2.20749,7.54832 1.32031,7.13476 -1.50997,-0.70413 -8.26513,-7.96896 -10.93944,-10.43946 -7.04419,-6.50765 -20.43274,-12.48849 -19.46875,-13.44726 0.18101,-0.1801 0.62484,-0.26721 1.27343,-0.26562 z m -274.92187,31.73633 c 0.17492,0.009 0.37195,0.0471 0.60351,0.1015 3.86359,0.91115 11.25376,1.86668 14.51172,1.87695 l 3.67969,0.0118 -2.10352,1.8457 c -4.4644,3.91758 -12.72967,10.67254 -15.23828,12.45508 -4.3266,3.07487 -8.2881,4.84162 -11.75391,5.77929 -7.50938,2.03187 -12.69095,0.17751 -14.21679,-0.67186 -1.27921,-0.71212 -2.41141,-1.55757 -2.51563,-1.87891 -0.10666,-0.3286 1.93243,-1.32426 4.66211,-2.27735 7.91288,-2.76324 16.73304,-7.41178 20.38282,-14.95117 0.81966,-1.69344 1.17384,-2.24173 1.82031,-2.28711 v -0.002 c 0.0539,-0.003 0.10966,-0.005 0.16797,-0.002 z m 367.76953,0 c 0.0583,-0.003 0.11406,-0.002 0.16796,0.002 v 0.002 c 0.64647,0.0454 1.00066,0.59367 1.82032,2.28711 3.64978,7.53939 12.46993,12.18793 20.38281,14.95117 2.72968,0.95308 4.76878,1.94875 4.66212,2.27735 -0.10427,0.32134 -1.23643,1.16679 -2.51564,1.8789 -1.52584,0.84938 -6.70741,2.70374 -14.21679,0.67187 -3.46581,-0.93767 -7.42731,-2.70443 -11.75391,-5.77929 -2.5086,-1.78254 -10.77388,-8.53751 -15.23827,-12.45508 l -2.10352,-1.8457 3.67968,-0.0118 c 3.25797,-0.0104 10.64814,-0.96581 14.51172,-1.87695 0.23157,-0.0545 0.42859,-0.0928 0.60352,-0.10151 z m -240.59766,0.0762 c 0.59556,-0.0267 1.39383,0.0816 2.00586,0.19337 8.81535,0.87625 16.99557,4.7584 23.7461,10.45312 12.55117,11.20864 19.91992,20.30103 16.94921,37.57617 -2.33857,12.4809 -18.61912,24.08347 -20.82226,25.95899 -3.07676,2.61788 -19.80452,12.68308 -24.60938,10.89453 0,-0.26716 3.08494,-3.1846 5.90235,-5.41407 10.98493,-8.68719 26.06908,-23.6991 26.25586,-40.72851 -0.48721,-19.48175 -14.42589,-27.80327 -28.91016,-37.03711 -1.55028,-1.14585 -1.58644,-1.64411 -1.03125,-1.82031 0.13902,-0.0441 0.31515,-0.0673 0.51367,-0.0761 z m 113.42579,0 c 0.19851,0.009 0.37464,0.0322 0.51366,0.0762 0.55519,0.1762 0.51903,0.67446 -1.03125,1.82031 -14.48427,9.23383 -28.42294,17.55536 -28.91015,37.0371 0.18678,17.02941 15.27093,32.04133 26.25586,40.72852 2.8174,2.22946 5.90234,5.14691 5.90234,5.41407 -4.80486,1.78854 -21.53262,-8.27665 -24.60938,-10.89454 -2.20314,-1.87551 -18.48369,-13.47808 -20.82226,-25.95898 -2.9707,-17.27514 4.39804,-26.36754 16.94922,-37.57617 6.75053,-5.69472 14.93074,-9.57688 23.74609,-10.45312 0.61204,-0.11188 1.41031,-0.22013 2.00587,-0.19337 z m -57.66993,-15.5488 c 5.09969,4.43708 12.10937,17.233 12.10937,22.68359 0,11.88835 -6.53254,16.4082 -12.10941,21.9082 -5.37361,-5.125 -12.14496,-10.30354 -12.10933,-21.50195 0.019,-5.98163 6.75968,-18.18318 12.10937,-23.08984 z M 284.3224,316.84401 c 0.005,-5.1e-4 0.0121,10e-4 0.0156,0.002 h 0.002 v 0.002 h 0.002 l 0.002,0.002 0.002,0.002 v 0.002 c 0.10137,0.14829 -0.74906,2.29649 -1.90039,4.80077 -2.41401,5.25126 -4.30158,11.21047 -5.56836,17.58399 -0.71861,3.61045 -2.51446,17.63129 4.01563,30.59375 0.82017,1.62675 2.33488,3.7473 2.13086,3.95703 -0.52359,0.53994 -9.47011,-0.34654 -14.77344,-4.54687 -11.54324,-9.14251 -6.93701,-27.54531 12.14453,-48.5039 1.97297,-2.16676 3.69221,-3.8693 3.92774,-3.89454 z m 275.42382,0 c 0.18999,-0.0301 1.93245,1.69255 3.93751,3.89454 19.08154,20.95859 23.68777,39.36139 12.14452,48.5039 -5.30332,4.20033 -14.24985,5.08681 -14.77344,4.54687 -0.20401,-0.20974 1.31069,-2.33028 2.13086,-3.95703 6.5301,-12.96246 4.73424,-26.98331 4.01563,-30.59375 -1.26678,-6.37352 -3.15435,-12.33273 -5.56836,-17.58399 -1.15132,-2.50428 -2.00175,-4.65248 -1.90039,-4.80077 v -0.002 l 0.002,-0.002 0.002,-0.002 h 0.002 v -0.002 h 0.002 c 7.1e-4,-1.7e-4 0.005,-0.002 0.006,-0.002 z m -227.41992,9.96094 c 1.52384,-0.0268 3.34073,-3e-4 5.14649,0.0644 11.47339,0.42173 24.05066,4.30561 29.5664,7.96289 4.69011,3.10998 16.44613,12.74792 9.75781,27.76952 -1.17929,2.64978 -4.63488,6.51978 -6.46679,7.24415 -1.39381,0.55057 -1.49215,0.52196 -1.58399,-0.47657 -1.36492,-14.80586 -7.73888,-19.4698 -13.08984,-22.7539 -10.80075,-6.62946 -19.61653,-4.82716 -24.75195,-10.67579 -1.95349,-2.22444 -3.61543,-5.27761 -3.88477,-7.13672 -0.16302,-1.1169 0.0847,-1.34062 1.91602,-1.74999 0.63715,-0.14223 1.86663,-0.22121 3.39062,-0.24805 z m 179.42578,0 c 1.52399,0.0268 2.75347,0.10577 3.39062,0.24805 1.83129,0.40937 2.07904,0.63308 1.91602,1.74999 -0.26934,1.8591 -1.93128,4.91227 -3.88477,7.13672 -5.13542,5.84863 -13.95119,4.04633 -24.75194,10.67579 -5.35097,3.28409 -11.72493,7.94804 -13.08985,22.7539 -0.0918,0.99853 -0.19018,1.02713 -1.58399,0.47657 -1.83191,-0.72437 -5.28749,-4.59437 -6.46679,-7.24415 -6.68831,-15.0216 5.0677,-24.65954 9.75781,-27.76952 5.51575,-3.65728 18.09301,-7.54116 29.56641,-7.9629 1.80576,-0.0648 3.62264,-0.0913 5.14648,-0.0644 z m -268.38867,19.23633 c 0.15291,-0.0146 0.0886,0.39573 -0.0605,1.1289 -0.69987,3.45635 -4.53165,14.43515 -6.32422,18.12306 -4.03769,8.3067 -10.8682,16.53478 -21.28125,25.63866 -3.61257,3.15808 -8.69589,7.61969 -11.29688,9.91406 -2.95568,2.60692 -4.78618,3.89578 -4.88281,3.43751 -0.29009,-1.37545 1.42353,-8.32084 2.79102,-11.3086 3.67108,-8.02399 9.22176,-14.43846 23.05468,-26.64454 4.40595,-3.8877 11.63449,-11.93473 15.79688,-17.58593 1.1884,-1.61358 1.81315,-2.44246 2.0957,-2.65039 0.0441,-0.0325 0.0791,-0.05 0.10743,-0.0528 z m 357.33398,0 c 0.0304,-0.003 0.072,0.0137 0.125,0.0528 0.28255,0.20793 0.90731,1.03681 2.09571,2.65039 4.16239,5.65121 11.39093,13.69823 15.79687,17.58594 13.83293,12.20607 19.38361,18.62054 23.05469,26.64454 1.36749,2.98776 3.08111,9.93314 2.79102,11.30859 -0.0967,0.45827 -1.92714,-0.83059 -4.88281,-3.4375 -2.60099,-2.29438 -7.68432,-6.75598 -11.29688,-9.91407 -10.41305,-9.10388 -17.24356,-17.33195 -21.28125,-25.63866 -1.79257,-3.6879 -5.62436,-14.6667 -6.32422,-18.12306 -0.14361,-0.70601 -0.21,-1.11282 -0.0781,-1.1289 z m -289.01953,0.82421 c 10.83695,-0.29955 23.09486,5.94979 29.66407,25.50781 3.44012,10.24501 5.14543,22.24462 6.41601,33.1211 0.88585,7.57803 -7.10105,-23.37856 -29.30859,-20.98633 -16.84349,1.81424 -29.41735,-12.49963 -27.9082,-23.85156 0.88214,-6.64289 10.29887,-13.49162 21.13671,-13.79102 z m 220.72266,0 c 10.83785,0.2994 20.25457,7.14813 21.13672,13.79102 1.50914,11.35193 -11.06471,25.6658 -27.90821,23.85156 -22.20754,-2.39223 -30.19443,28.56436 -29.30859,20.98633 1.27058,-10.87648 2.97589,-22.87609 6.41601,-33.1211 6.56921,-19.55802 18.82712,-25.80736 29.66407,-25.50781 z m -148.46094,50.9004 c 2.90494,-0.19582 10.01121,6.80451 2.25391,32.21093 -8.14322,26.66981 -19.61278,48.77363 -21.09766,42.27735 6.63084,-18.5802 10.42555,-32.60007 12.79492,-46.31446 1.71109,-9.89825 3.09801,-15.35551 4.29102,-22.94336 0.72701,-4.61556 0.24185,-4.87668 1.49023,-5.18944 0.0843,-0.021 0.17388,-0.0347 0.26758,-0.041 z m 76.19922,0 c 0.0937,0.006 0.18326,0.02 0.26757,0.041 1.24838,0.31276 0.76324,0.57388 1.49024,5.18944 1.19301,7.58785 2.57994,13.04511 4.29102,22.94336 2.36938,13.71439 6.16409,27.73426 12.79492,46.31446 -1.48488,6.49628 -12.95443,-15.60754 -21.09765,-42.27735 -7.75731,-25.40642 -0.65103,-32.40675 2.2539,-32.21093 z m -151.68164,14.80469 c -3.20243,0.21877 -10.00806,1.62525 -14.9043,7.04491 0.10532,2.08875 1.28512,6.43398 2.36133,8.52149 0.79895,1.55118 2.92581,5.40307 5.66211,8.18165 5.53577,5.61991 13.31087,8.6944 20.48438,8.66796 5.07662,-0.0193 9.43789,-1.50214 12.76562,-3.1914 3.43365,-1.74364 6.70698,-4.04687 8.41992,-8.1504 -2.33933,-6.54051 -6.91063,-11.05535 -10.87695,-13.93164 -0.30734,1.20649 -1.9017,6.85604 -5.81445,9.83399 -1.83176,1.17159 -3.29365,1.91992 -5.49805,1.91992 -0.83182,0 -1.65691,-0.12264 -2.46289,-0.30274 -6.50427,-1.94983 -10.41401,-11.8479 -10.13672,-18.59374 z m 227.16406,0 c 0.27729,6.74584 -3.63245,16.64391 -10.13672,18.59374 -0.80597,0.1801 -1.63106,0.30274 -2.46288,0.30274 -2.2044,0 -3.66629,-0.74833 -5.49805,-1.91992 -3.91276,-2.97795 -5.50712,-8.6275 -5.81445,-9.83399 -3.96632,2.87629 -8.53762,7.39113 -10.87696,13.93164 1.71294,4.10353 4.98628,6.40676 8.41992,8.1504 3.32773,1.68926 7.68901,3.17205 12.76563,3.1914 7.17351,0.0264 14.9486,-3.04805 20.48437,-8.66796 2.73631,-2.77858 4.86316,-6.63047 5.66211,-8.18165 1.07622,-2.08751 2.25601,-6.43274 2.36133,-8.52149 -4.89623,-5.41966 -11.70187,-6.82614 -14.9043,-7.04491 z m -214.85156,2.05859 c -1.93767,-2.7e-4 -3.5075,1.5694 -3.50781,3.50585 -2e-4,1.93804 1.56987,3.50985 3.50781,3.50977 1.93776,-3.6e-4 3.50814,-1.57201 3.50781,-3.50977 -1.5e-4,-1.93622 -1.57025,-3.5058 -3.50781,-3.50585 z m 202.53906,0 c -1.93756,5e-5 -3.50766,1.56963 -3.50781,3.50585 -3.2e-4,1.93776 1.57005,3.50941 3.50781,3.50977 1.93795,8e-5 3.50801,-1.57173 3.50781,-3.50977 -3.1e-4,-1.93645 -1.57014,-3.50612 -3.50781,-3.50585 z M 369.50404,499.4905 c 1.8383,-0.14911 -4.00293,17.64618 -9.19141,19.40429 -1.2748,0.4322 -2.92168,4.12521 -3.36524,4.00781 -1.33936,-3.29851 0.43892,-6.35842 3.20313,-7.61719 7.1298,-3.24944 8.59191,-15.54104 9.25977,-15.77343 0.0331,-0.0115 0.0646,-0.0191 0.0937,-0.0214 z m 105.02929,0 c 0.0409,-0.003 0.0851,0.005 0.13477,0.0214 0.66785,0.23239 2.12997,12.52399 9.25977,15.77342 2.7642,1.25878 4.54248,4.31869 3.20312,7.6172 -0.44356,0.11739 -2.09043,-3.57562 -3.36523,-4.00781 -5.1473,-1.74417 -10.93574,-19.27179 -9.23243,-19.4043 z m -88.55468,63.85156 c -4.91519,0.12676 -9.15381,1.63021 -12.64844,4.65038 -0.72461,0.52816 -1.4601,0.97019 -1.42774,1.23048 0.0806,0.6323 0.18764,2.59125 1.31055,4.02539 2.1603,0.0438 3.00266,-0.16377 6.80469,0.18164 14.82941,1.34456 23.41195,5.17974 26.30078,18.83007 0.78687,3.71677 0.88401,11.29997 0.0449,14.68165 -0.20757,0.83971 0.27717,0.9474 1.61719,2.01758 1.64261,1.31173 5.49754,4.59861 7.39258,5.70703 1.01098,-3.06851 3.97966,-7.89288 4.54101,-13.72266 0.20891,-2.16952 0.8559,-2.35741 1.13672,-2.36719 l 0.50586,-0.006 0.48242,0.006 0.48243,-0.006 0.50585,0.006 c 0.28083,0.009 0.92782,0.19767 1.13672,2.36719 0.56135,5.82978 3.53004,10.65415 4.54102,13.72266 1.89504,-1.10842 5.74997,-4.3953 7.39258,-5.70703 1.34002,-1.07018 1.82476,-1.17787 1.61719,-2.01758 -0.83909,-3.38168 -0.74196,-10.96488 0.0449,-14.68165 2.88883,-13.65033 11.47137,-17.48551 26.30078,-18.83007 3.80202,-0.34541 4.64438,-0.13786 6.80468,-0.18164 1.12291,-1.43414 1.2299,-3.39309 1.31055,-4.02539 0.0324,-0.26029 -0.70312,-0.70232 -1.42773,-1.23048 -3.49463,-3.02017 -7.73325,-4.52362 -12.64844,-4.65038 -1.63763,-0.0416 -3.34973,0.068 -5.13477,0.32617 -5.77158,0.74868 -13.23388,3.5793 -19.39257,4.94922 -4.07807,0.9068 -7.63365,0.95106 -10.27149,1.20898 -0.42054,-0.003 -0.84118,-0.002 -1.26172,0 -0.42053,-0.002 -0.84117,-0.003 -1.26171,0 -2.63785,-0.25792 -6.19342,-0.30218 -10.27149,-1.20898 -6.1587,-1.36992 -13.621,-4.20054 -19.39258,-4.94922 -1.78504,-0.25816 -3.49713,-0.36773 -5.13476,-0.32617 z m -61.70704,6.125 c 0.17689,-0.007 0.35709,0.007 0.53516,0.041 v 0.002 c 0.355,0.0698 0.70405,0.22216 1.00586,0.47266 0.781,0.6486 1.02916,2.68258 0.40625,3.30664 -0.62283,0.62298 -2.65328,0.36967 -3.30078,-0.41015 -0.34691,-0.41735 -0.55335,-1.30503 -0.45899,-1.97071 0.0985,-0.69522 0.63347,-1.17909 1.29688,-1.36133 0.16518,-0.046 0.33874,-0.0733 0.51562,-0.0801 z m 195.53516,0 c 0.17689,0.007 0.35044,0.0341 0.51562,0.0801 0.66341,0.18223 1.19838,0.6661 1.29689,1.36132 0.0944,0.66568 -0.11211,1.55337 -0.459,1.97071 -0.6475,0.77982 -2.67795,1.03314 -3.30078,0.41016 -0.62291,-0.62407 -0.37475,-2.65804 0.40625,-3.30665 0.30181,-0.2505 0.65086,-0.40283 1.00587,-0.47266 v -0.002 c 0.17806,-0.0343 0.35827,-0.0479 0.53515,-0.041 z m -184.60938,4.14844 c 0.23692,-0.002 0.47504,0.0341 0.70508,0.10346 0.91909,0.27903 1.70313,1.10653 1.70313,2.28516 0,0.60672 -0.2847,1.38724 -0.63086,1.73438 -1.71901,1.71795 -4.75841,-0.83243 -3.5918,-3.01367 0.40725,-0.76091 1.1037,-1.10334 1.81445,-1.10938 z m 173.6836,0 c 0.71075,0.006 1.4072,0.34847 1.81445,1.10937 1.16661,2.18125 -1.87279,4.73163 -3.5918,3.01368 -0.34616,-0.34715 -0.63086,-1.12766 -0.63086,-1.73438 0,-1.17863 0.78405,-2.00613 1.70314,-2.28516 0.23003,-0.0695 0.46815,-0.10554 0.70507,-0.10346 z m -148.93555,35.58984 c 0.14298,-0.002 0.28987,0.002 0.43946,0.0137 1.1964,0.0939 2.57491,0.63237 3.61523,1.57422 1.2336,1.11639 1.17151,1.66129 -0.25391,2.2578 -2.52427,1.05759 -6.62287,-0.84663 -5.89648,-2.74023 0.28064,-0.73054 1.09484,-1.08984 2.0957,-1.10547 z m 124.1875,0 c 1.00086,0.0157 1.81506,0.37492 2.0957,1.10547 0.72639,1.89359 -3.37221,3.79781 -5.89648,2.74023 -1.42542,-0.59652 -1.4875,-1.14142 -0.2539,-2.2578 1.04032,-0.94185 2.41883,-1.48032 3.61523,-1.57423 0.14958,-0.0118 0.29648,-0.0159 0.43945,-0.0137 z m -108.69726,13.9746 c 0.0751,0.003 0.14001,0.012 0.19336,0.0254 1.27826,0.32218 2.34181,2.83675 1.29492,4.09766 -0.34742,0.41983 -1.79741,0.91992 -2.30469,0.91992 -2.09071,0 -2.91245,-3.47944 -1.09375,-4.62499 0.39848,-0.25025 1.38427,-0.44492 1.91016,-0.41798 z m 93.20703,0 c 0.52589,-0.027 1.51168,0.16774 1.91015,0.41798 1.8187,1.14555 0.99696,4.625 -1.09375,4.625 -0.50728,0 -1.95726,-0.5001 -2.30468,-0.91993 -1.04689,-1.2609 0.0167,-3.77548 1.29491,-4.09765 0.0533,-0.0134 0.11824,-0.0215 0.19337,-0.0254 z m -47.08594,27.2754 c -5.74501,0.1466 -11.73282,1.28725 -17.5332,3.24024 -15.30425,5.1539 -21.64761,17.62145 -47.49805,20.12889 -3.37259,0.32758 -5.68545,20.56028 7.31836,33.55665 0.14458,0.16132 0.2792,0.26052 0.42383,0.41602 0.82661,0.79629 1.65443,1.54309 2.48828,2.24023 0.41427,0.33846 0.85666,0.86741 1.25586,1.13086 0.75693,0.50178 1.96952,1.57215 3.13086,2.58789 0.12407,0.11141 0.2438,0.20781 0.36718,0.32227 1.3003,1.20525 9.17421,9.68474 12.13477,11.42383 0.0803,0.0506 0.18719,0.13851 0.25977,0.17968 0.0393,0.0192 0.0711,0.0259 0.10742,0.043 0.24909,0.13098 0.39598,0.1458 0.52344,0.13868 0.0418,-0.0143 0.0942,-0.007 0.13281,-0.0273 0.0869,-0.0591 0.14051,-0.15185 0.11134,-0.33788 -0.066,-0.89338 -1.82427,-3.31793 -3.45118,-7.27345 -1.21552,-3.3791 -2.16992,-7.2178 -2.16992,-9.6289 0,-0.89629 0.0296,-1.45518 0.11328,-1.80469 0.32099,0.17023 0.68122,0.28312 1.17383,0.87891 6.25112,7.71189 12.88155,13.18694 22.29297,17.00977 1.21027,0.58211 2.18012,1.0129 3.11523,1.62109 5.11684,3.32497 8.5711,4.21138 11.30078,7.7793 1.01292,1.32255 4.00273,5.28048 4.04102,5.33398 0.003,-0.007 0.2788,0.32781 0.35156,0.31836 h 0.002 0.002 v -0.002 h 0.002 l 0.002,-0.002 0.002,-0.002 0.002,0.002 0.002,0.002 h 0.002 v 0.002 h 0.002 0.002 0.002 c 0.0727,0.0104 0.34625,-0.3229 0.34961,-0.31836 0.001,-10e-4 0.11466,-0.15158 0.12109,-0.16015 0.006,0.008 0.11994,0.159 0.1211,0.16015 0.003,-0.005 0.27688,0.32827 0.3496,0.31836 h 0.002 0.002 0.002 v -0.002 h 0.002 l 0.002,-0.002 0.002,-0.002 0.002,0.002 0.002,0.002 h 0.002 v 0.002 h 0.002 0.002 c 0.0728,0.009 0.34832,-0.32484 0.35156,-0.31836 0.0383,-0.0535 3.0281,-4.01143 4.04102,-5.33398 2.72968,-3.56792 6.18393,-4.45433 11.30077,-7.7793 0.93511,-0.60819 1.90497,-1.03898 3.11524,-1.62109 9.41141,-3.82283 16.04185,-9.29788 22.29297,-17.00977 0.49261,-0.59579 0.85283,-0.70868 1.17382,-0.87891 0.0836,0.34951 0.11326,0.9084 0.11326,1.80469 0,2.4111 -0.9544,6.2498 -2.16992,9.6289 -1.62691,3.95552 -3.38515,6.38007 -3.45117,7.27345 -0.0292,0.18603 0.0244,0.27877 0.1113,0.33788 0.0386,0.0204 0.091,0.013 0.13282,0.0273 0.12746,0.007 0.27435,-0.008 0.52344,-0.13868 0.0363,-0.0171 0.0681,-0.0237 0.10738,-0.043 0.0726,-0.0411 0.17946,-0.1291 0.25976,-0.17968 2.96056,-1.73909 10.83446,-10.21858 12.13476,-11.42383 0.12338,-0.11441 0.24311,-0.21086 0.36719,-0.32227 1.16133,-1.01574 2.37393,-2.08611 3.13086,-2.58789 0.3992,-0.26345 0.84159,-0.7924 1.25586,-1.13086 0.83384,-0.69714 1.66166,-1.44394 2.48828,-2.24023 0.14463,-0.1555 0.27924,-0.2547 0.42383,-0.41602 13.00381,-12.99637 10.69095,-33.22907 7.31835,-33.55665 -25.85044,-2.50744 -32.1938,-14.97499 -47.49804,-20.12889 -5.80038,-1.95299 -11.78819,-3.09364 -17.5332,-3.24024 -0.15847,0.005 -0.32359,0.047 -0.48242,0.0528 -0.15883,-0.006 -0.32395,-0.0487 -0.48242,-0.0528 z"
     sodipodi:nodetypes="ccccsscsscscsccccssccccccccscsccscccccccsscscccsccscccccccsccccccccccsccccccccccsscccssscccccccsccscscscsscccscccccsccccccccccccscccccccccccccccccscccccccccccccccccccccscccccccscccccccccccccccccccsccccscccccscsscccsscscccscsccccscccccccccccccccscccscccccccssccccccccscccccccccccsccccccccccccccccssccccccccccccscccccssccsscscscsccccccccccssscccsssccccccccccccccccccccscccccccsccssccsssssccccccsscsscsccccccccscccssscssssssscssccccccsccscccsccscccccscccccccscscccccccscscccsscccssscccccsccscssscccsssccccsccccccccccccccccsccccscscscccssscccccsssccccccscccccsscccsssscscscssccccccccssscccccccccscscscscccccccccccscsccscccsccccccccscccccccccsscccccccccsscsccscsssssscscsccscsccccccccccccscccccsscccccscccccccccsccccsccccccccccsccccccscccccscsccccscccccccscscccccscscccccccccccccccscccccscsscsccsccsscsccssccscssscccsscccsssccscsscscssccccccccccccccccscccccccccccccccccccccccccccccccccccccccccccscccccccscccccccccc" /><path
     id="path1-62"
     style="display:none;fill:#d40000;stroke-width:0.394623"
     inkscape:highlight-color="#f00e0e"
     inkscape:label="ROJO"
     d="m 420.94947,298.30688 c -5.19079,4.97762 -11.2872,15.25647 -11.99034,23.06256 -0.88759,9.85276 6.26054,15.77319 11.99835,21.33546 0.1268,0.11628 0.14085,0.10684 0.23556,0.002 5.73813,-5.56281 12.88606,-11.48346 11.99839,-21.33733 -0.70618,-7.83913 -6.84935,-18.17201 -12.05435,-23.1255 -0.0569,-0.0632 -0.0562,-0.0675 -0.18761,0.0629 z"
     sodipodi:nodetypes="ccccscc" /></svg>
